<ttFont>
    <TTGlyph name="A" xMin="14" yMin="-8" xMax="611" yMax="688">
      <contour>
        <pt x="426" y="155" on="1"/>
        <pt x="377" y="154" on="1"/>
        <pt x="237" y="154" on="1"/>
        <pt x="188" y="155" on="1"/>
        <pt x="141" y="-1" on="1"/>
        <pt x="120" y="-6" on="0"/>
        <pt x="43" y="-6" on="0"/>
        <pt x="19" y="3" on="1"/>
        <pt x="14" y="10" on="1"/>
        <pt x="237" y="683" on="1"/>
        <pt x="274" y="688" on="0"/>
        <pt x="360" y="688" on="0"/>
        <pt x="392" y="682" on="1"/>
        <pt x="611" y="9" on="1"/>
        <pt x="582" y="-8" on="0"/>
        <pt x="501" y="-8" on="0"/>
        <pt x="466" y="22" on="0"/>
        <pt x="454" y="64" on="1"/>
      </contour>
      <contour>
        <pt x="221" y="261" on="1"/>
        <pt x="266" y="262" on="1"/>
        <pt x="352" y="262" on="1"/>
        <pt x="394" y="261" on="1"/>
        <pt x="364" y="363" on="1"/>
        <pt x="330" y="477" on="0"/>
        <pt x="310" y="557" on="1"/>
        <pt x="304" y="557" on="1"/>
        <pt x="295" y="514" on="0"/>
        <pt x="260" y="388" on="1"/>
      </contour>
    </TTGlyph>
    <TTGlyph name="AE" xMin="10" yMin="-5" xMax="841" yMax="683">
      <contour>
        <pt x="525" y="172" on="1"/>
        <pt x="524" y="109" on="1"/>
        <pt x="566" y="111" on="0"/>
        <pt x="594" y="111" on="1"/>
        <pt x="841" y="111" on="1"/>
        <pt x="841" y="79" on="0"/>
        <pt x="838" y="62" on="1"/>
        <pt x="827" y="-2" on="0"/>
        <pt x="752" y="-2" on="1"/>
        <pt x="471" y="-2" on="1"/>
        <pt x="435" y="-2" on="0"/>
        <pt x="395" y="40" on="0"/>
        <pt x="395" y="78" on="1"/>
        <pt x="395" y="155" on="1"/>
        <pt x="380" y="154" on="0"/>
        <pt x="351" y="154" on="1"/>
        <pt x="262" y="154" on="1"/>
        <pt x="231" y="154" on="0"/>
        <pt x="215" y="155" on="1"/>
        <pt x="145" y="0" on="1"/>
        <pt x="126" y="-5" on="0"/>
        <pt x="36" y="-5" on="0"/>
        <pt x="14" y="4" on="1"/>
        <pt x="10" y="10" on="1"/>
        <pt x="321" y="671" on="1"/>
        <pt x="348" y="683" on="0"/>
        <pt x="402" y="683" on="1"/>
        <pt x="818" y="683" on="1"/>
        <pt x="823" y="658" on="0"/>
        <pt x="823" y="601" on="0"/>
        <pt x="812" y="570" on="1"/>
        <pt x="524" y="570" on="1"/>
        <pt x="525" y="501" on="1"/>
        <pt x="525" y="398" on="1"/>
        <pt x="550" y="399" on="0"/>
        <pt x="590" y="399" on="1"/>
        <pt x="761" y="399" on="1"/>
        <pt x="769" y="376" on="0"/>
        <pt x="769" y="312" on="0"/>
        <pt x="761" y="289" on="1"/>
        <pt x="525" y="289" on="1"/>
      </contour>
      <contour>
        <pt x="350" y="261" on="1"/>
        <pt x="395" y="260" on="1"/>
        <pt x="395" y="557" on="1"/>
        <pt x="390" y="557" on="1"/>
        <pt x="350" y="451" on="0"/>
        <pt x="321" y="388" on="1"/>
        <pt x="263" y="260" on="1"/>
        <pt x="299" y="261" on="1"/>
      </contour>
    </TTGlyph>
    <TTGlyph name="Aacute" xMin="14" yMin="-8" xMax="611" yMax="921">
      <component glyphName="A" x="0" y="0" flags="0x204"/>
      <component glyphName="acute.cap" x="116" y="0" flags="0x4"/>
    </TTGlyph>
    <TTGlyph name="Acircumflex" xMin="14" yMin="-8" xMax="611" yMax="911">
      <component glyphName="A" x="0" y="0" flags="0x204"/>
      <component glyphName="circumflex.cap" x="116" y="0" flags="0x4"/>
    </TTGlyph>
    <TTGlyph name="Adieresis" xMin="14" yMin="-8" xMax="611" yMax="856">
      <component glyphName="A" x="0" y="0" flags="0x204"/>
      <component glyphName="dieresis.cap" x="116" y="0" flags="0x4"/>
    </TTGlyph>
    <TTGlyph name="Agrave" xMin="14" yMin="-8" xMax="611" yMax="921">
      <component glyphName="A" x="0" y="0" flags="0x204"/>
      <component glyphName="grave.cap" x="117" y="0" flags="0x4"/>
    </TTGlyph>
    <TTGlyph name="Aogonek" xMin="14" yMin="-218" xMax="652" yMax="688">
      <contour>
        <pt x="426" y="155" on="1"/>
        <pt x="377" y="154" on="1"/>
        <pt x="237" y="154" on="1"/>
        <pt x="204" y="154" on="0"/>
        <pt x="188" y="155" on="1"/>
        <pt x="141" y="-1" on="1"/>
        <pt x="120" y="-6" on="0"/>
        <pt x="43" y="-6" on="0"/>
        <pt x="19" y="3" on="1"/>
        <pt x="14" y="10" on="1"/>
        <pt x="237" y="683" on="1"/>
        <pt x="274" y="688" on="0"/>
        <pt x="360" y="688" on="0"/>
        <pt x="392" y="682" on="1"/>
        <pt x="611" y="9" on="1"/>
        <pt x="524" y="-41" on="0"/>
        <pt x="524" y="-94" on="1"/>
        <pt x="524" y="-113" on="0"/>
        <pt x="552" y="-134" on="0"/>
        <pt x="573" y="-134" on="0"/>
        <pt x="594" y="-134" on="0"/>
        <pt x="623" y="-119" on="1"/>
        <pt x="649" y="-142" on="0"/>
        <pt x="652" y="-180" on="1"/>
        <pt x="604" y="-218" on="0"/>
        <pt x="546" y="-218" on="1"/>
        <pt x="489" y="-218" on="0"/>
        <pt x="426" y="-165" on="0"/>
        <pt x="426" y="-121" on="1"/>
        <pt x="426" y="-57" on="0"/>
        <pt x="493" y="0" on="1"/>
        <pt x="468" y="14" on="0"/>
        <pt x="454" y="64" on="1"/>
      </contour>
      <contour>
        <pt x="221" y="261" on="1"/>
        <pt x="266" y="262" on="1"/>
        <pt x="352" y="262" on="1"/>
        <pt x="386" y="261" on="0"/>
        <pt x="394" y="261" on="1"/>
        <pt x="364" y="363" on="1"/>
        <pt x="330" y="477" on="0"/>
        <pt x="310" y="557" on="1"/>
        <pt x="304" y="557" on="1"/>
        <pt x="295" y="514" on="0"/>
        <pt x="260" y="388" on="1"/>
      </contour>
    </TTGlyph>
    <TTGlyph name="Aring" xMin="14" yMin="-8" xMax="611" yMax="905">
      <contour>
        <pt x="426" y="155" on="1"/>
        <pt x="356" y="154" on="1"/>
        <pt x="237" y="154" on="1"/>
        <pt x="188" y="155" on="1"/>
        <pt x="141" y="-1" on="1"/>
        <pt x="118" y="-6" on="0"/>
        <pt x="81" y="-6" on="1"/>
        <pt x="43" y="-6" on="0"/>
        <pt x="19" y="3" on="1"/>
        <pt x="14" y="10" on="1"/>
        <pt x="237" y="683" on="1"/>
        <pt x="240" y="683" on="1"/>
        <pt x="183" y="717" on="0"/>
        <pt x="183" y="784" on="1"/>
        <pt x="183" y="809" on="0"/>
        <pt x="203" y="854" on="0"/>
        <pt x="238" y="886" on="0"/>
        <pt x="286" y="905" on="0"/>
        <pt x="315" y="905" on="1"/>
        <pt x="344" y="905" on="0"/>
        <pt x="392" y="886" on="0"/>
        <pt x="427" y="854" on="0"/>
        <pt x="446" y="809" on="0"/>
        <pt x="446" y="784" on="1"/>
        <pt x="446" y="717" on="0"/>
        <pt x="388" y="683" on="1"/>
        <pt x="392" y="683" on="1"/>
        <pt x="611" y="9" on="1"/>
        <pt x="582" y="-8" on="0"/>
        <pt x="541" y="-8" on="1"/>
        <pt x="521" y="-8" on="0"/>
        <pt x="493" y="-1" on="0"/>
        <pt x="474" y="15" on="0"/>
        <pt x="460" y="43" on="0"/>
        <pt x="454" y="64" on="1"/>
      </contour>
      <contour>
        <pt x="221" y="261" on="1"/>
        <pt x="265" y="262" on="1"/>
        <pt x="352" y="262" on="1"/>
        <pt x="394" y="261" on="1"/>
        <pt x="364" y="363" on="1"/>
        <pt x="347" y="420" on="0"/>
        <pt x="319" y="517" on="0"/>
        <pt x="310" y="557" on="1"/>
        <pt x="304" y="557" on="1"/>
        <pt x="299" y="535" on="0"/>
        <pt x="277" y="451" on="0"/>
        <pt x="260" y="388" on="1"/>
      </contour>
      <contour>
        <pt x="315" y="837" on="1"/>
        <pt x="293" y="837" on="0"/>
        <pt x="265" y="807" on="0"/>
        <pt x="265" y="784" on="1"/>
        <pt x="265" y="760" on="0"/>
        <pt x="295" y="732" on="0"/>
        <pt x="318" y="732" on="1"/>
        <pt x="341" y="732" on="0"/>
        <pt x="363" y="765" on="0"/>
        <pt x="363" y="785" on="1"/>
        <pt x="363" y="805" on="0"/>
        <pt x="339" y="837" on="0"/>
      </contour>
    </TTGlyph>
    <TTGlyph name="Atilde" xMin="14" yMin="-8" xMax="611" yMax="894">
      <component glyphName="A" x="0" y="0" flags="0x204"/>
      <component glyphName="tilde.cap" x="116" y="0" flags="0x4"/>
    </TTGlyph>
    <TTGlyph name="B" xMin="83" yMin="-5" xMax="568" yMax="688">
      <contour>
        <pt x="90" y="684" on="1"/>
        <pt x="168" y="686" on="0"/>
        <pt x="277" y="688" on="0"/>
        <pt x="309" y="688" on="1"/>
        <pt x="418" y="688" on="0"/>
        <pt x="536" y="595" on="0"/>
        <pt x="536" y="507" on="1"/>
        <pt x="536" y="461" on="0"/>
        <pt x="486" y="385" on="0"/>
        <pt x="444" y="368" on="1"/>
        <pt x="469" y="360" on="0"/>
        <pt x="515" y="327" on="0"/>
        <pt x="549" y="280" on="0"/>
        <pt x="568" y="224" on="0"/>
        <pt x="568" y="194" on="1"/>
        <pt x="568" y="98" on="0"/>
        <pt x="442" y="-5" on="0"/>
        <pt x="324" y="-5" on="1"/>
        <pt x="287" y="-5" on="0"/>
        <pt x="171" y="-3" on="0"/>
        <pt x="90" y="-1" on="1"/>
        <pt x="83" y="5" on="1"/>
        <pt x="83" y="678" on="1"/>
      </contour>
      <contour>
        <pt x="314" y="309" on="1"/>
        <pt x="216" y="309" on="1"/>
        <pt x="216" y="91" on="1"/>
        <pt x="235" y="92" on="0"/>
        <pt x="283" y="91" on="0"/>
        <pt x="331" y="93" on="0"/>
        <pt x="376" y="100" on="0"/>
        <pt x="411" y="126" on="0"/>
        <pt x="432" y="168" on="0"/>
        <pt x="432" y="201" on="1"/>
        <pt x="432" y="222" on="0"/>
        <pt x="418" y="261" on="0"/>
        <pt x="390" y="291" on="0"/>
        <pt x="345" y="309" on="0"/>
      </contour>
      <contour>
        <pt x="216" y="591" on="1"/>
        <pt x="216" y="408" on="1"/>
        <pt x="303" y="408" on="1"/>
        <pt x="403" y="408" on="0"/>
        <pt x="403" y="500" on="1"/>
        <pt x="403" y="538" on="0"/>
        <pt x="374" y="576" on="0"/>
        <pt x="322" y="590" on="0"/>
        <pt x="253" y="589" on="0"/>
      </contour>
    </TTGlyph>
    <TTGlyph name="C" xMin="42" yMin="-14" xMax="575" yMax="698">
      <contour>
        <pt x="446" y="428" on="1"/>
        <pt x="446" y="438" on="1"/>
        <pt x="446" y="471" on="0"/>
        <pt x="432" y="526" on="0"/>
        <pt x="402" y="567" on="0"/>
        <pt x="355" y="590" on="0"/>
        <pt x="322" y="590" on="1"/>
        <pt x="249" y="590" on="0"/>
        <pt x="183" y="459" on="0"/>
        <pt x="183" y="326" on="1"/>
        <pt x="183" y="220" on="0"/>
        <pt x="264" y="103" on="0"/>
        <pt x="334" y="103" on="1"/>
        <pt x="371" y="103" on="0"/>
        <pt x="458" y="138" on="0"/>
        <pt x="508" y="176" on="1"/>
        <pt x="529" y="162" on="0"/>
        <pt x="567" y="112" on="0"/>
        <pt x="572" y="89" on="1"/>
        <pt x="550" y="67" on="0"/>
        <pt x="491" y="30" on="0"/>
        <pt x="423" y="2" on="0"/>
        <pt x="349" y="-14" on="0"/>
        <pt x="312" y="-14" on="1"/>
        <pt x="238" y="-14" on="0"/>
        <pt x="136" y="43" on="0"/>
        <pt x="71" y="140" on="0"/>
        <pt x="42" y="268" on="0"/>
        <pt x="42" y="339" on="1"/>
        <pt x="42" y="429" on="0"/>
        <pt x="86" y="564" on="0"/>
        <pt x="161" y="653" on="0"/>
        <pt x="262" y="698" on="0"/>
        <pt x="319" y="698" on="1"/>
        <pt x="378" y="698" on="0"/>
        <pt x="473" y="666" on="0"/>
        <pt x="539" y="611" on="0"/>
        <pt x="575" y="538" on="0"/>
        <pt x="575" y="496" on="1"/>
        <pt x="575" y="421" on="0"/>
        <pt x="499" y="421" on="1"/>
        <pt x="488" y="421" on="0"/>
        <pt x="462" y="424" on="0"/>
      </contour>
    </TTGlyph>
    <TTGlyph name="Cacute" xMin="42" yMin="-14" xMax="575" yMax="921">
      <component glyphName="C" x="0" y="0" flags="0x204"/>
      <component glyphName="acute.cap" x="125" y="0" flags="0x4"/>
    </TTGlyph>
    <TTGlyph name="Ccaron" xMin="42" yMin="-14" xMax="575" yMax="916">
      <component glyphName="C" x="0" y="0" flags="0x204"/>
      <component glyphName="caron.cap" x="126" y="0" flags="0x4"/>
    </TTGlyph>
    <TTGlyph name="Ccedilla" xMin="42" yMin="-228" xMax="575" yMax="698">
      <contour>
        <pt x="258" y="-76" on="1"/>
        <pt x="262" y="-59" on="0"/>
        <pt x="272" y="-27" on="0"/>
        <pt x="278" y="-12" on="1"/>
        <pt x="213" y="-6" on="0"/>
        <pt x="124" y="57" on="0"/>
        <pt x="67" y="153" on="0"/>
        <pt x="42" y="274" on="0"/>
        <pt x="42" y="339" on="1"/>
        <pt x="42" y="429" on="0"/>
        <pt x="86" y="564" on="0"/>
        <pt x="161" y="653" on="0"/>
        <pt x="262" y="698" on="0"/>
        <pt x="319" y="698" on="1"/>
        <pt x="378" y="698" on="0"/>
        <pt x="473" y="666" on="0"/>
        <pt x="539" y="611" on="0"/>
        <pt x="575" y="538" on="0"/>
        <pt x="575" y="496" on="1"/>
        <pt x="575" y="421" on="0"/>
        <pt x="499" y="421" on="1"/>
        <pt x="488" y="421" on="0"/>
        <pt x="462" y="424" on="0"/>
        <pt x="446" y="428" on="1"/>
        <pt x="446" y="438" on="1"/>
        <pt x="446" y="471" on="0"/>
        <pt x="432" y="526" on="0"/>
        <pt x="402" y="567" on="0"/>
        <pt x="355" y="590" on="0"/>
        <pt x="322" y="590" on="1"/>
        <pt x="249" y="590" on="0"/>
        <pt x="183" y="459" on="0"/>
        <pt x="183" y="326" on="1"/>
        <pt x="183" y="220" on="0"/>
        <pt x="264" y="103" on="0"/>
        <pt x="334" y="103" on="1"/>
        <pt x="371" y="103" on="0"/>
        <pt x="458" y="138" on="0"/>
        <pt x="508" y="176" on="1"/>
        <pt x="529" y="162" on="0"/>
        <pt x="567" y="112" on="0"/>
        <pt x="572" y="89" on="1"/>
        <pt x="534" y="51" on="0"/>
        <pt x="416" y="-5" on="0"/>
        <pt x="351" y="-12" on="1"/>
        <pt x="344" y="-24" on="0"/>
        <pt x="341" y="-34" on="1"/>
        <pt x="386" y="-37" on="0"/>
        <pt x="438" y="-85" on="0"/>
        <pt x="438" y="-127" on="1"/>
        <pt x="438" y="-148" on="0"/>
        <pt x="418" y="-184" on="0"/>
        <pt x="383" y="-212" on="0"/>
        <pt x="337" y="-228" on="0"/>
        <pt x="311" y="-228" on="1"/>
        <pt x="257" y="-228" on="0"/>
        <pt x="226" y="-206" on="1"/>
        <pt x="227" y="-169" on="0"/>
        <pt x="249" y="-146" on="1"/>
        <pt x="268" y="-159" on="0"/>
        <pt x="297" y="-159" on="1"/>
        <pt x="337" y="-159" on="0"/>
        <pt x="337" y="-126" on="1"/>
        <pt x="337" y="-108" on="0"/>
        <pt x="315" y="-93" on="0"/>
        <pt x="299" y="-93" on="1"/>
        <pt x="287" y="-93" on="0"/>
        <pt x="278" y="-96" on="1"/>
        <pt x="263" y="-88" on="0"/>
      </contour>
    </TTGlyph>
    <TTGlyph name="D" xMin="83" yMin="-5" xMax="614" yMax="688">
      <contour>
        <pt x="505" y="45" on="1"/>
        <pt x="475" y="19" on="0"/>
        <pt x="372" y="-5" on="0"/>
        <pt x="318" y="-5" on="1"/>
        <pt x="291" y="-5" on="0"/>
        <pt x="178" y="-3" on="0"/>
        <pt x="90" y="-1" on="1"/>
        <pt x="83" y="5" on="1"/>
        <pt x="83" y="678" on="1"/>
        <pt x="90" y="684" on="1"/>
        <pt x="148" y="686" on="0"/>
        <pt x="265" y="688" on="0"/>
        <pt x="326" y="688" on="1"/>
        <pt x="410" y="688" on="0"/>
        <pt x="521" y="634" on="0"/>
        <pt x="587" y="539" on="0"/>
        <pt x="614" y="413" on="0"/>
        <pt x="614" y="341" on="1"/>
        <pt x="614" y="241" on="0"/>
        <pt x="569" y="96" on="0"/>
      </contour>
      <contour>
        <pt x="450" y="502" on="1"/>
        <pt x="420" y="582" on="0"/>
        <pt x="326" y="582" on="1"/>
        <pt x="291" y="582" on="0"/>
        <pt x="237" y="582" on="0"/>
        <pt x="217" y="583" on="1"/>
        <pt x="217" y="100" on="1"/>
        <pt x="236" y="101" on="0"/>
        <pt x="285" y="101" on="0"/>
        <pt x="335" y="103" on="0"/>
        <pt x="378" y="109" on="0"/>
        <pt x="392" y="116" on="1"/>
        <pt x="418" y="130" on="0"/>
        <pt x="451" y="177" on="0"/>
        <pt x="469" y="238" on="0"/>
        <pt x="476" y="309" on="0"/>
        <pt x="476" y="347" on="1"/>
        <pt x="476" y="390" on="0"/>
        <pt x="465" y="464" on="0"/>
      </contour>
    </TTGlyph>
    <TTGlyph name="Dcaron" xMin="83" yMin="-5" xMax="614" yMax="916">
      <component glyphName="D" x="0" y="0" flags="0x204"/>
      <component glyphName="caron.cap" x="117" y="0" flags="0x4"/>
    </TTGlyph>
    <TTGlyph name="E" xMin="82" yMin="-2" xMax="529" yMax="683">
      <contour>
        <pt x="215" y="171" on="1"/>
        <pt x="214" y="109" on="1"/>
        <pt x="284" y="111" on="1"/>
        <pt x="529" y="111" on="1"/>
        <pt x="529" y="79" on="0"/>
        <pt x="526" y="62" on="1"/>
        <pt x="515" y="-2" on="0"/>
        <pt x="440" y="-2" on="1"/>
        <pt x="159" y="-2" on="1"/>
        <pt x="123" y="-2" on="0"/>
        <pt x="82" y="41" on="0"/>
        <pt x="82" y="78" on="1"/>
        <pt x="82" y="676" on="1"/>
        <pt x="89" y="683" on="1"/>
        <pt x="506" y="683" on="1"/>
        <pt x="511" y="658" on="0"/>
        <pt x="511" y="601" on="0"/>
        <pt x="500" y="570" on="1"/>
        <pt x="214" y="570" on="1"/>
        <pt x="215" y="501" on="1"/>
        <pt x="215" y="398" on="1"/>
        <pt x="280" y="399" on="1"/>
        <pt x="449" y="399" on="1"/>
        <pt x="457" y="376" on="0"/>
        <pt x="457" y="312" on="0"/>
        <pt x="449" y="289" on="1"/>
        <pt x="215" y="289" on="1"/>
      </contour>
    </TTGlyph>
    <TTGlyph name="Eacute" xMin="82" yMin="-2" xMax="529" yMax="921">
      <component glyphName="E" x="0" y="0" flags="0x204"/>
      <component glyphName="acute.cap" x="100" y="0" flags="0x4"/>
    </TTGlyph>
    <TTGlyph name="Ecaron" xMin="82" yMin="-2" xMax="529" yMax="916">
      <component glyphName="E" x="0" y="0" flags="0x204"/>
      <component glyphName="caron.cap" x="100" y="0" flags="0x4"/>
    </TTGlyph>
    <TTGlyph name="Ecircumflex" xMin="82" yMin="-2" xMax="529" yMax="911">
      <component glyphName="E" x="0" y="0" flags="0x204"/>
      <component glyphName="circumflex.cap" x="100" y="0" flags="0x4"/>
    </TTGlyph>
    <TTGlyph name="Edieresis" xMin="82" yMin="-2" xMax="529" yMax="856">
      <component glyphName="E" x="0" y="0" flags="0x204"/>
      <component glyphName="dieresis.cap" x="100" y="0" flags="0x4"/>
    </TTGlyph>
    <TTGlyph name="Egrave" xMin="82" yMin="-2" xMax="529" yMax="921">
      <component glyphName="E" x="0" y="0" flags="0x204"/>
      <component glyphName="grave.cap" x="100" y="0" flags="0x4"/>
    </TTGlyph>
    <TTGlyph name="Eogonek" xMin="82" yMin="-219" xMax="529" yMax="683">
      <contour>
        <pt x="215" y="171" on="1"/>
        <pt x="214" y="109" on="1"/>
        <pt x="256" y="111" on="0"/>
        <pt x="284" y="111" on="1"/>
        <pt x="529" y="111" on="1"/>
        <pt x="529" y="79" on="0"/>
        <pt x="526" y="62" on="1"/>
        <pt x="520" y="21" on="0"/>
        <pt x="477" y="3" on="1"/>
        <pt x="438" y="-13" on="0"/>
        <pt x="395" y="-68" on="0"/>
        <pt x="395" y="-94" on="1"/>
        <pt x="395" y="-134" on="0"/>
        <pt x="439" y="-134" on="1"/>
        <pt x="467" y="-134" on="0"/>
        <pt x="493" y="-119" on="1"/>
        <pt x="519" y="-142" on="0"/>
        <pt x="522" y="-180" on="1"/>
        <pt x="473" y="-212" on="0"/>
        <pt x="417" y="-219" on="0"/>
        <pt x="359" y="-214" on="0"/>
        <pt x="296" y="-165" on="0"/>
        <pt x="296" y="-120" on="1"/>
        <pt x="296" y="-53" on="0"/>
        <pt x="361" y="-2" on="1"/>
        <pt x="159" y="-2" on="1"/>
        <pt x="123" y="-2" on="0"/>
        <pt x="82" y="41" on="0"/>
        <pt x="82" y="78" on="1"/>
        <pt x="82" y="676" on="1"/>
        <pt x="89" y="683" on="1"/>
        <pt x="506" y="683" on="1"/>
        <pt x="511" y="658" on="0"/>
        <pt x="511" y="601" on="0"/>
        <pt x="500" y="570" on="1"/>
        <pt x="214" y="570" on="1"/>
        <pt x="215" y="501" on="1"/>
        <pt x="215" y="398" on="1"/>
        <pt x="240" y="399" on="0"/>
        <pt x="280" y="399" on="1"/>
        <pt x="449" y="399" on="1"/>
        <pt x="457" y="376" on="0"/>
        <pt x="457" y="312" on="0"/>
        <pt x="449" y="289" on="1"/>
        <pt x="215" y="289" on="1"/>
      </contour>
    </TTGlyph>
    <TTGlyph name="Eth" xMin="21" yMin="-5" xMax="630" yMax="688">
      <contour>
        <pt x="521" y="45" on="1"/>
        <pt x="489" y="19" on="0"/>
        <pt x="387" y="-5" on="0"/>
        <pt x="333" y="-5" on="1"/>
        <pt x="306" y="-5" on="0"/>
        <pt x="193" y="-3" on="0"/>
        <pt x="105" y="-1" on="1"/>
        <pt x="98" y="5" on="1"/>
        <pt x="98" y="292" on="1"/>
        <pt x="26" y="292" on="1"/>
        <pt x="23" y="302" on="0"/>
        <pt x="21" y="330" on="0"/>
        <pt x="21" y="345" on="1"/>
        <pt x="21" y="360" on="0"/>
        <pt x="23" y="389" on="0"/>
        <pt x="26" y="401" on="1"/>
        <pt x="98" y="401" on="1"/>
        <pt x="98" y="678" on="1"/>
        <pt x="105" y="684" on="1"/>
        <pt x="163" y="686" on="0"/>
        <pt x="281" y="688" on="0"/>
        <pt x="342" y="688" on="1"/>
        <pt x="426" y="688" on="0"/>
        <pt x="537" y="634" on="0"/>
        <pt x="603" y="539" on="0"/>
        <pt x="630" y="413" on="0"/>
        <pt x="630" y="341" on="1"/>
        <pt x="630" y="241" on="0"/>
        <pt x="585" y="96" on="0"/>
      </contour>
      <contour>
        <pt x="370" y="292" on="1"/>
        <pt x="230" y="292" on="1"/>
        <pt x="230" y="100" on="1"/>
        <pt x="250" y="101" on="0"/>
        <pt x="300" y="101" on="0"/>
        <pt x="329" y="101" on="1"/>
        <pt x="384" y="101" on="0"/>
        <pt x="449" y="142" on="0"/>
        <pt x="481" y="213" on="0"/>
        <pt x="491" y="299" on="0"/>
        <pt x="491" y="342" on="1"/>
        <pt x="491" y="388" on="0"/>
        <pt x="479" y="475" on="0"/>
        <pt x="446" y="543" on="0"/>
        <pt x="388" y="582" on="0"/>
        <pt x="342" y="582" on="1"/>
        <pt x="306" y="582" on="0"/>
        <pt x="250" y="582" on="0"/>
        <pt x="230" y="583" on="1"/>
        <pt x="230" y="401" on="1"/>
        <pt x="370" y="401" on="1"/>
        <pt x="372" y="389" on="0"/>
        <pt x="375" y="360" on="0"/>
        <pt x="375" y="345" on="1"/>
        <pt x="375" y="314" on="0"/>
      </contour>
    </TTGlyph>
    <TTGlyph name="Euro" xMin="13" yMin="-14" xMax="549" yMax="662">
      <contour>
        <pt x="493" y="498" on="1"/>
        <pt x="419" y="555" on="0"/>
        <pt x="346" y="555" on="1"/>
        <pt x="255" y="555" on="0"/>
        <pt x="230" y="443" on="1"/>
        <pt x="413" y="443" on="1"/>
        <pt x="418" y="422" on="0"/>
        <pt x="418" y="379" on="0"/>
        <pt x="413" y="359" on="1"/>
        <pt x="220" y="359" on="1"/>
        <pt x="220" y="287" on="1"/>
        <pt x="413" y="287" on="1"/>
        <pt x="418" y="266" on="0"/>
        <pt x="418" y="223" on="0"/>
        <pt x="413" y="203" on="1"/>
        <pt x="231" y="203" on="1"/>
        <pt x="255" y="93" on="0"/>
        <pt x="346" y="93" on="1"/>
        <pt x="418" y="93" on="0"/>
        <pt x="493" y="149" on="1"/>
        <pt x="540" y="122" on="0"/>
        <pt x="549" y="70" on="1"/>
        <pt x="450" y="-14" on="0"/>
        <pt x="328" y="-14" on="1"/>
        <pt x="138" y="-14" on="0"/>
        <pt x="99" y="203" on="1"/>
        <pt x="18" y="203" on="1"/>
        <pt x="13" y="223" on="0"/>
        <pt x="13" y="266" on="0"/>
        <pt x="18" y="287" on="1"/>
        <pt x="90" y="287" on="1"/>
        <pt x="89" y="299" on="0"/>
        <pt x="89" y="347" on="0"/>
        <pt x="90" y="359" on="1"/>
        <pt x="18" y="359" on="1"/>
        <pt x="13" y="379" on="0"/>
        <pt x="13" y="422" on="0"/>
        <pt x="18" y="443" on="1"/>
        <pt x="99" y="443" on="1"/>
        <pt x="138" y="662" on="0"/>
        <pt x="328" y="662" on="1"/>
        <pt x="449" y="662" on="0"/>
        <pt x="549" y="577" on="1"/>
        <pt x="545" y="555" on="0"/>
        <pt x="514" y="510" on="0"/>
      </contour>
    </TTGlyph>
    <TTGlyph name="Euro.smcp" xMin="10" yMin="-14" xMax="488" yMax="562">
      <contour>
        <pt x="434" y="421" on="1"/>
        <pt x="372" y="460" on="0"/>
        <pt x="312" y="460" on="1"/>
        <pt x="237" y="460" on="0"/>
        <pt x="214" y="378" on="1"/>
        <pt x="362" y="378" on="1"/>
        <pt x="367" y="358" on="0"/>
        <pt x="367" y="323" on="0"/>
        <pt x="362" y="303" on="1"/>
        <pt x="203" y="303" on="1"/>
        <pt x="203" y="246" on="1"/>
        <pt x="362" y="246" on="1"/>
        <pt x="367" y="226" on="0"/>
        <pt x="367" y="190" on="0"/>
        <pt x="362" y="170" on="1"/>
        <pt x="214" y="170" on="1"/>
        <pt x="237" y="88" on="0"/>
        <pt x="312" y="88" on="1"/>
        <pt x="374" y="88" on="0"/>
        <pt x="434" y="127" on="1"/>
        <pt x="455" y="116" on="0"/>
        <pt x="485" y="74" on="0"/>
        <pt x="488" y="53" on="1"/>
        <pt x="400" y="-14" on="0"/>
        <pt x="296" y="-14" on="1"/>
        <pt x="127" y="-14" on="0"/>
        <pt x="89" y="170" on="1"/>
        <pt x="15" y="170" on="1"/>
        <pt x="10" y="186" on="0"/>
        <pt x="10" y="230" on="0"/>
        <pt x="15" y="246" on="1"/>
        <pt x="80" y="246" on="1"/>
        <pt x="79" y="255" on="0"/>
        <pt x="79" y="274" on="1"/>
        <pt x="79" y="303" on="1"/>
        <pt x="15" y="303" on="1"/>
        <pt x="10" y="319" on="0"/>
        <pt x="10" y="362" on="0"/>
        <pt x="15" y="378" on="1"/>
        <pt x="88" y="378" on="1"/>
        <pt x="124" y="562" on="0"/>
        <pt x="297" y="562" on="1"/>
        <pt x="402" y="562" on="0"/>
        <pt x="488" y="497" on="1"/>
        <pt x="485" y="475" on="0"/>
        <pt x="454" y="432" on="0"/>
      </contour>
    </TTGlyph>
    <TTGlyph name="F" xMin="83" yMin="-5" xMax="508" yMax="683">
      <contour>
        <pt x="217" y="0" on="1"/>
        <pt x="190" y="-5" on="0"/>
        <pt x="111" y="-5" on="0"/>
        <pt x="83" y="0" on="1"/>
        <pt x="83" y="677" on="1"/>
        <pt x="90" y="683" on="1"/>
        <pt x="502" y="683" on="1"/>
        <pt x="508" y="660" on="0"/>
        <pt x="508" y="598" on="0"/>
        <pt x="473" y="569" on="0"/>
        <pt x="435" y="569" on="1"/>
        <pt x="216" y="569" on="1"/>
        <pt x="217" y="472" on="1"/>
        <pt x="217" y="397" on="1"/>
        <pt x="445" y="397" on="1"/>
        <pt x="452" y="375" on="0"/>
        <pt x="452" y="310" on="0"/>
        <pt x="445" y="286" on="1"/>
        <pt x="217" y="286" on="1"/>
      </contour>
    </TTGlyph>
    <TTGlyph name="G" xMin="42" yMin="-14" xMax="592" yMax="697">
      <contour>
        <pt x="345" y="374" on="1"/>
        <pt x="500" y="375" on="1"/>
        <pt x="592" y="375" on="0"/>
        <pt x="592" y="290" on="1"/>
        <pt x="592" y="28" on="1"/>
        <pt x="473" y="-14" on="0"/>
        <pt x="331" y="-14" on="1"/>
        <pt x="259" y="-14" on="0"/>
        <pt x="150" y="36" on="0"/>
        <pt x="78" y="128" on="0"/>
        <pt x="42" y="258" on="0"/>
        <pt x="42" y="337" on="1"/>
        <pt x="42" y="429" on="0"/>
        <pt x="94" y="565" on="0"/>
        <pt x="180" y="654" on="0"/>
        <pt x="293" y="697" on="0"/>
        <pt x="355" y="697" on="1"/>
        <pt x="483" y="697" on="0"/>
        <pt x="590" y="625" on="1"/>
        <pt x="587" y="596" on="0"/>
        <pt x="550" y="541" on="0"/>
        <pt x="528" y="527" on="1"/>
        <pt x="448" y="584" on="0"/>
        <pt x="360" y="584" on="1"/>
        <pt x="180" y="584" on="0"/>
        <pt x="180" y="339" on="1"/>
        <pt x="180" y="94" on="0"/>
        <pt x="359" y="94" on="1"/>
        <pt x="414" y="94" on="0"/>
        <pt x="465" y="106" on="1"/>
        <pt x="465" y="195" on="1"/>
        <pt x="465" y="217" on="0"/>
        <pt x="466" y="250" on="0"/>
        <pt x="467" y="261" on="1"/>
        <pt x="399" y="261" on="1"/>
        <pt x="364" y="261" on="0"/>
        <pt x="335" y="289" on="0"/>
        <pt x="335" y="320" on="1"/>
        <pt x="335" y="346" on="0"/>
      </contour>
    </TTGlyph>
    <TTGlyph name="H" xMin="83" yMin="-5" xMax="598" yMax="688">
      <contour>
        <pt x="464" y="408" on="1"/>
        <pt x="463" y="482" on="1"/>
        <pt x="463" y="683" on="1"/>
        <pt x="489" y="688" on="0"/>
        <pt x="570" y="688" on="0"/>
        <pt x="598" y="683" on="1"/>
        <pt x="598" y="0" on="1"/>
        <pt x="569" y="-5" on="0"/>
        <pt x="490" y="-5" on="0"/>
        <pt x="463" y="0" on="1"/>
        <pt x="463" y="223" on="1"/>
        <pt x="464" y="297" on="1"/>
        <pt x="411" y="296" on="1"/>
        <pt x="270" y="296" on="1"/>
        <pt x="216" y="297" on="1"/>
        <pt x="217" y="223" on="1"/>
        <pt x="217" y="0" on="1"/>
        <pt x="191" y="-5" on="0"/>
        <pt x="109" y="-5" on="0"/>
        <pt x="83" y="0" on="1"/>
        <pt x="83" y="683" on="1"/>
        <pt x="109" y="688" on="0"/>
        <pt x="191" y="688" on="0"/>
        <pt x="217" y="683" on="1"/>
        <pt x="217" y="482" on="1"/>
        <pt x="216" y="408" on="1"/>
        <pt x="270" y="409" on="1"/>
        <pt x="411" y="409" on="1"/>
      </contour>
    </TTGlyph>
    <TTGlyph name="Hbar" xMin="13" yMin="-5" xMax="676" yMax="688">
      <contour>
        <pt x="221" y="295" on="1"/>
        <pt x="222" y="221" on="1"/>
        <pt x="222" y="0" on="1"/>
        <pt x="194" y="-5" on="0"/>
        <pt x="113" y="-5" on="0"/>
        <pt x="87" y="0" on="1"/>
        <pt x="87" y="491" on="1"/>
        <pt x="20" y="491" on="1"/>
        <pt x="13" y="515" on="0"/>
        <pt x="13" y="566" on="0"/>
        <pt x="20" y="591" on="1"/>
        <pt x="87" y="591" on="1"/>
        <pt x="87" y="683" on="1"/>
        <pt x="113" y="688" on="0"/>
        <pt x="194" y="688" on="0"/>
        <pt x="222" y="683" on="1"/>
        <pt x="222" y="591" on="1"/>
        <pt x="467" y="591" on="1"/>
        <pt x="467" y="683" on="1"/>
        <pt x="494" y="688" on="0"/>
        <pt x="576" y="688" on="0"/>
        <pt x="602" y="683" on="1"/>
        <pt x="602" y="591" on="1"/>
        <pt x="670" y="591" on="1"/>
        <pt x="676" y="564" on="0"/>
        <pt x="676" y="516" on="0"/>
        <pt x="670" y="491" on="1"/>
        <pt x="602" y="491" on="1"/>
        <pt x="602" y="0" on="1"/>
        <pt x="574" y="-5" on="0"/>
        <pt x="494" y="-5" on="0"/>
        <pt x="467" y="0" on="1"/>
        <pt x="467" y="221" on="1"/>
        <pt x="468" y="295" on="1"/>
        <pt x="415" y="294" on="1"/>
        <pt x="274" y="294" on="1"/>
      </contour>
      <contour>
        <pt x="221" y="405" on="1"/>
        <pt x="274" y="406" on="1"/>
        <pt x="415" y="406" on="1"/>
        <pt x="468" y="405" on="1"/>
        <pt x="467" y="480" on="1"/>
        <pt x="467" y="491" on="1"/>
        <pt x="222" y="491" on="1"/>
        <pt x="222" y="480" on="1"/>
      </contour>
    </TTGlyph>
    <TTGlyph name="I" xMin="86" yMin="-5" xMax="220" yMax="688">
      <contour>
        <pt x="86" y="0" on="1"/>
        <pt x="86" y="683" on="1"/>
        <pt x="111" y="688" on="0"/>
        <pt x="192" y="688" on="0"/>
        <pt x="220" y="683" on="1"/>
        <pt x="220" y="0" on="1"/>
        <pt x="192" y="-5" on="0"/>
        <pt x="111" y="-5" on="0"/>
      </contour>
    </TTGlyph>
    <TTGlyph name="IJ" xMin="86" yMin="-10" xMax="689" yMax="688">
      <component glyphName="I" x="0" y="0" flags="0x4"/>
      <component glyphName="J" x="301" y="0" flags="0x4"/>
    </TTGlyph>
    <TTGlyph name="Iacute" xMin="41" yMin="-5" xMax="308" yMax="921">
      <component glyphName="I" x="0" y="0" flags="0x204"/>
      <component glyphName="acute.cap" x="-45" y="0" flags="0x4"/>
    </TTGlyph>
    <TTGlyph name="Icircumflex" xMin="-19" yMin="-5" xMax="322" yMax="911">
      <component glyphName="I" x="0" y="0" flags="0x204"/>
      <component glyphName="circumflex.cap" x="-44" y="0" flags="0x4"/>
    </TTGlyph>
    <TTGlyph name="Idieresis" xMin="-23" yMin="-5" xMax="331" yMax="856">
      <component glyphName="I" x="0" y="0" flags="0x204"/>
      <component glyphName="dieresis.cap" x="-45" y="0" flags="0x4"/>
    </TTGlyph>
    <TTGlyph name="Igrave" xMin="11" yMin="-5" xMax="278" yMax="921">
      <component glyphName="I" x="0" y="0" flags="0x204"/>
      <component glyphName="grave.cap" x="-45" y="0" flags="0x4"/>
    </TTGlyph>
    <TTGlyph name="Itilde" xMin="-37" yMin="-5" xMax="345" yMax="894">
      <component glyphName="I" x="0" y="0" flags="0x204"/>
      <component glyphName="tilde.cap" x="-45" y="0" flags="0x4"/>
    </TTGlyph>
    <TTGlyph name="J" xMin="10" yMin="-10" xMax="388" yMax="688">
      <contour>
        <pt x="58" y="133" on="1"/>
        <pt x="111" y="101" on="0"/>
        <pt x="161" y="101" on="1"/>
        <pt x="212" y="101" on="0"/>
        <pt x="254" y="168" on="0"/>
        <pt x="254" y="241" on="1"/>
        <pt x="254" y="683" on="1"/>
        <pt x="282" y="688" on="0"/>
        <pt x="321" y="688" on="1"/>
        <pt x="360" y="688" on="0"/>
        <pt x="388" y="683" on="1"/>
        <pt x="388" y="256" on="1"/>
        <pt x="388" y="196" on="0"/>
        <pt x="369" y="98" on="0"/>
        <pt x="319" y="27" on="0"/>
        <pt x="235" y="-10" on="0"/>
        <pt x="169" y="-10" on="1"/>
        <pt x="80" y="-10" on="0"/>
        <pt x="10" y="33" on="1"/>
        <pt x="20" y="89" on="0"/>
      </contour>
    </TTGlyph>
    <TTGlyph name="Jcircumflex" xMin="10" yMin="-10" xMax="488" yMax="911">
      <component glyphName="J" x="0" y="0" flags="0x204"/>
      <component glyphName="circumflex.cap" x="122" y="0" flags="0x4"/>
    </TTGlyph>
    <TTGlyph name="K" xMin="83" yMin="-8" xMax="598" yMax="688">
      <contour>
        <pt x="598" y="34" on="1"/>
        <pt x="570" y="-8" on="0"/>
        <pt x="508" y="-8" on="1"/>
        <pt x="473" y="-8" on="0"/>
        <pt x="438" y="28" on="0"/>
        <pt x="424" y="71" on="1"/>
        <pt x="378" y="202" on="1"/>
        <pt x="360" y="254" on="0"/>
        <pt x="313" y="297" on="0"/>
        <pt x="273" y="297" on="1"/>
        <pt x="263" y="297" on="0"/>
        <pt x="217" y="295" on="1"/>
        <pt x="217" y="0" on="1"/>
        <pt x="191" y="-5" on="0"/>
        <pt x="109" y="-5" on="0"/>
        <pt x="83" y="0" on="1"/>
        <pt x="83" y="683" on="1"/>
        <pt x="109" y="688" on="0"/>
        <pt x="191" y="688" on="0"/>
        <pt x="217" y="683" on="1"/>
        <pt x="217" y="408" on="1"/>
        <pt x="257" y="409" on="1"/>
        <pt x="273" y="409" on="0"/>
        <pt x="289" y="422" on="0"/>
        <pt x="299" y="440" on="1"/>
        <pt x="410" y="638" on="1"/>
        <pt x="425" y="665" on="0"/>
        <pt x="455" y="688" on="0"/>
        <pt x="509" y="688" on="0"/>
        <pt x="563" y="684" on="1"/>
        <pt x="571" y="674" on="1"/>
        <pt x="435" y="431" on="1"/>
        <pt x="412" y="390" on="0"/>
        <pt x="386" y="369" on="1"/>
        <pt x="433" y="359" on="0"/>
        <pt x="483" y="302" on="0"/>
        <pt x="502" y="251" on="1"/>
        <pt x="549" y="117" on="1"/>
        <pt x="556" y="99" on="0"/>
        <pt x="559" y="92" on="0"/>
        <pt x="564" y="80" on="1"/>
        <pt x="578" y="52" on="0"/>
        <pt x="594" y="38" on="0"/>
      </contour>
    </TTGlyph>
    <TTGlyph name="Kcommaaccent" xMin="83" yMin="-278" xMax="598" yMax="688">
      <component glyphName="K" x="0" y="0" flags="0x204"/>
      <component glyphName="commaaccent.cap" x="123" y="0" flags="0x4"/>
    </TTGlyph>
    <TTGlyph name="L" xMin="82" yMin="-2" xMax="494" yMax="689">
      <contour>
        <pt x="308" y="114" on="1"/>
        <pt x="494" y="114" on="1"/>
        <pt x="494" y="84" on="0"/>
        <pt x="490" y="63" on="1"/>
        <pt x="479" y="-2" on="0"/>
        <pt x="403" y="-2" on="1"/>
        <pt x="160" y="-2" on="1"/>
        <pt x="124" y="-2" on="0"/>
        <pt x="82" y="41" on="0"/>
        <pt x="82" y="78" on="1"/>
        <pt x="82" y="682" on="1"/>
        <pt x="89" y="689" on="1"/>
        <pt x="139" y="689" on="1"/>
        <pt x="179" y="689" on="0"/>
        <pt x="217" y="648" on="0"/>
        <pt x="217" y="603" on="1"/>
        <pt x="217" y="110" on="1"/>
        <pt x="260" y="114" on="0"/>
      </contour>
    </TTGlyph>
    <TTGlyph name="Ldot" xMin="82" yMin="-2" xMax="494" yMax="689">
      <component glyphName="L" x="0" y="0" flags="0x204"/>
      <component glyphName="dotaccent.alt" x="206" y="0" flags="0x4"/>
    </TTGlyph>
    <TTGlyph name="Lslash" xMin="-2" yMin="-2" xMax="502" yMax="689">
      <contour>
        <pt x="225" y="603" on="1"/>
        <pt x="225" y="421" on="1"/>
        <pt x="390" y="479" on="1"/>
        <pt x="400" y="474" on="1"/>
        <pt x="413" y="435" on="0"/>
        <pt x="402" y="375" on="1"/>
        <pt x="225" y="315" on="1"/>
        <pt x="225" y="110" on="1"/>
        <pt x="268" y="114" on="0"/>
        <pt x="317" y="114" on="1"/>
        <pt x="502" y="114" on="1"/>
        <pt x="502" y="79" on="0"/>
        <pt x="499" y="63" on="1"/>
        <pt x="488" y="-2" on="0"/>
        <pt x="411" y="-2" on="1"/>
        <pt x="169" y="-2" on="1"/>
        <pt x="133" y="-2" on="0"/>
        <pt x="91" y="41" on="0"/>
        <pt x="91" y="78" on="1"/>
        <pt x="91" y="274" on="1"/>
        <pt x="22" y="249" on="1"/>
        <pt x="12" y="254" on="1"/>
        <pt x="-2" y="298" on="0"/>
        <pt x="10" y="354" on="1"/>
        <pt x="91" y="381" on="1"/>
        <pt x="91" y="682" on="1"/>
        <pt x="98" y="689" on="1"/>
        <pt x="147" y="689" on="1"/>
        <pt x="187" y="689" on="0"/>
        <pt x="225" y="648" on="0"/>
      </contour>
    </TTGlyph>
    <TTGlyph name="M" xMin="64" yMin="-5" xMax="757" yMax="689">
      <contour>
        <pt x="64" y="2" on="1"/>
        <pt x="117" y="682" on="1"/>
        <pt x="158" y="689" on="0"/>
        <pt x="253" y="689" on="0"/>
        <pt x="292" y="682" on="1"/>
        <pt x="369" y="405" on="1"/>
        <pt x="400" y="281" on="0"/>
        <pt x="407" y="234" on="1"/>
        <pt x="414" y="234" on="1"/>
        <pt x="421" y="281" on="0"/>
        <pt x="452" y="405" on="1"/>
        <pt x="528" y="682" on="1"/>
        <pt x="570" y="689" on="0"/>
        <pt x="662" y="689" on="0"/>
        <pt x="704" y="682" on="1"/>
        <pt x="757" y="2" on="1"/>
        <pt x="730" y="-5" on="0"/>
        <pt x="655" y="-5" on="0"/>
        <pt x="630" y="-1" on="1"/>
        <pt x="611" y="320" on="1"/>
        <pt x="603" y="444" on="0"/>
        <pt x="603" y="537" on="1"/>
        <pt x="596" y="537" on="1"/>
        <pt x="479" y="102" on="1"/>
        <pt x="446" y="97" on="0"/>
        <pt x="375" y="97" on="0"/>
        <pt x="342" y="102" on="1"/>
        <pt x="225" y="537" on="1"/>
        <pt x="218" y="537" on="1"/>
        <pt x="216" y="414" on="0"/>
        <pt x="210" y="320" on="1"/>
        <pt x="191" y="-1" on="1"/>
        <pt x="166" y="-5" on="0"/>
        <pt x="91" y="-5" on="0"/>
      </contour>
    </TTGlyph>
    <TTGlyph name="N" xMin="83" yMin="-5" xMax="605" yMax="689">
      <contour>
        <pt x="598" y="689" on="1"/>
        <pt x="605" y="682" on="1"/>
        <pt x="605" y="2" on="1"/>
        <pt x="574" y="-5" on="0"/>
        <pt x="480" y="-5" on="0"/>
        <pt x="445" y="0" on="1"/>
        <pt x="261" y="387" on="1"/>
        <pt x="221" y="475" on="0"/>
        <pt x="201" y="527" on="1"/>
        <pt x="197" y="526" on="1"/>
        <pt x="208" y="385" on="0"/>
        <pt x="208" y="254" on="1"/>
        <pt x="208" y="0" on="1"/>
        <pt x="180" y="-5" on="0"/>
        <pt x="109" y="-5" on="0"/>
        <pt x="83" y="0" on="1"/>
        <pt x="83" y="681" on="1"/>
        <pt x="112" y="688" on="0"/>
        <pt x="206" y="688" on="0"/>
        <pt x="241" y="683" on="1"/>
        <pt x="423" y="296" on="1"/>
        <pt x="488" y="148" on="1"/>
        <pt x="491" y="149" on="1"/>
        <pt x="481" y="294" on="0"/>
        <pt x="481" y="423" on="1"/>
        <pt x="481" y="606" on="1"/>
        <pt x="481" y="651" on="0"/>
        <pt x="515" y="689" on="0"/>
        <pt x="555" y="689" on="1"/>
      </contour>
    </TTGlyph>
    <TTGlyph name="Nacute" xMin="83" yMin="-5" xMax="605" yMax="921">
      <component glyphName="N" x="0" y="0" flags="0x204"/>
      <component glyphName="acute.cap" x="148" y="0" flags="0x4"/>
    </TTGlyph>
    <TTGlyph name="Ncaron" xMin="83" yMin="-5" xMax="605" yMax="916">
      <component glyphName="N" x="0" y="0" flags="0x204"/>
      <component glyphName="caron.cap" x="148" y="0" flags="0x4"/>
    </TTGlyph>
    <TTGlyph name="Ntilde" xMin="83" yMin="-5" xMax="605" yMax="894">
      <component glyphName="N" x="0" y="0" flags="0x204"/>
      <component glyphName="tilde.cap" x="148" y="0" flags="0x4"/>
    </TTGlyph>
    <TTGlyph name="O" xMin="42" yMin="-14" xMax="620" yMax="697">
      <contour>
        <pt x="479" y="341" on="1"/>
        <pt x="479" y="592" on="0"/>
        <pt x="331" y="592" on="1"/>
        <pt x="183" y="592" on="0"/>
        <pt x="183" y="341" on="1"/>
        <pt x="183" y="91" on="0"/>
        <pt x="331" y="91" on="1"/>
        <pt x="479" y="91" on="0"/>
      </contour>
      <contour>
        <pt x="149" y="47" on="1"/>
        <pt x="42" y="139" on="0"/>
        <pt x="42" y="341" on="1"/>
        <pt x="42" y="426" on="0"/>
        <pt x="81" y="558" on="0"/>
        <pt x="156" y="649" on="0"/>
        <pt x="263" y="697" on="0"/>
        <pt x="332" y="697" on="1"/>
        <pt x="400" y="697" on="0"/>
        <pt x="507" y="649" on="0"/>
        <pt x="581" y="558" on="0"/>
        <pt x="620" y="425" on="0"/>
        <pt x="620" y="341" on="1"/>
        <pt x="620" y="257" on="0"/>
        <pt x="581" y="125" on="0"/>
        <pt x="507" y="34" on="0"/>
        <pt x="400" y="-14" on="0"/>
        <pt x="332" y="-14" on="1"/>
        <pt x="223" y="-14" on="0"/>
      </contour>
    </TTGlyph>
    <TTGlyph name="OE" xMin="42" yMin="-14" xMax="873" yMax="697">
      <contour>
        <pt x="559" y="172" on="1"/>
        <pt x="558" y="110" on="1"/>
        <pt x="579" y="111" on="0"/>
        <pt x="614" y="112" on="0"/>
        <pt x="628" y="112" on="1"/>
        <pt x="873" y="112" on="1"/>
        <pt x="873" y="53" on="0"/>
        <pt x="837" y="-1" on="0"/>
        <pt x="785" y="-1" on="1"/>
        <pt x="470" y="-1" on="1"/>
        <pt x="425" y="-8" on="0"/>
        <pt x="357" y="-14" on="0"/>
        <pt x="333" y="-14" on="1"/>
        <pt x="264" y="-14" on="0"/>
        <pt x="156" y="34" on="0"/>
        <pt x="81" y="125" on="0"/>
        <pt x="42" y="257" on="0"/>
        <pt x="42" y="341" on="1"/>
        <pt x="42" y="425" on="0"/>
        <pt x="81" y="558" on="0"/>
        <pt x="156" y="649" on="0"/>
        <pt x="264" y="697" on="0"/>
        <pt x="333" y="697" on="1"/>
        <pt x="353" y="697" on="0"/>
        <pt x="422" y="690" on="0"/>
        <pt x="471" y="683" on="1"/>
        <pt x="851" y="683" on="1"/>
        <pt x="853" y="674" on="0"/>
        <pt x="855" y="650" on="0"/>
        <pt x="855" y="636" on="1"/>
        <pt x="855" y="619" on="0"/>
        <pt x="850" y="585" on="0"/>
        <pt x="844" y="570" on="1"/>
        <pt x="558" y="570" on="1"/>
        <pt x="559" y="516" on="1"/>
        <pt x="559" y="398" on="1"/>
        <pt x="572" y="399" on="0"/>
        <pt x="604" y="399" on="0"/>
        <pt x="624" y="399" on="1"/>
        <pt x="794" y="399" on="1"/>
        <pt x="797" y="387" on="0"/>
        <pt x="801" y="358" on="0"/>
        <pt x="801" y="344" on="1"/>
        <pt x="801" y="329" on="0"/>
        <pt x="797" y="301" on="0"/>
        <pt x="794" y="289" on="1"/>
        <pt x="559" y="289" on="1"/>
      </contour>
      <contour>
        <pt x="332" y="91" on="1"/>
        <pt x="373" y="91" on="0"/>
        <pt x="429" y="105" on="1"/>
        <pt x="429" y="577" on="1"/>
        <pt x="376" y="592" on="0"/>
        <pt x="333" y="592" on="1"/>
        <pt x="181" y="592" on="0"/>
        <pt x="181" y="341" on="1"/>
        <pt x="181" y="91" on="0"/>
      </contour>
    </TTGlyph>
    <TTGlyph name="Oacute" xMin="42" yMin="-14" xMax="620" yMax="921">
      <component glyphName="O" x="0" y="0" flags="0x204"/>
      <component glyphName="acute.cap" x="132" y="0" flags="0x4"/>
    </TTGlyph>
    <TTGlyph name="Ocircumflex" xMin="42" yMin="-14" xMax="620" yMax="911">
      <component glyphName="O" x="0" y="0" flags="0x204"/>
      <component glyphName="circumflex.cap" x="132" y="0" flags="0x4"/>
    </TTGlyph>
    <TTGlyph name="Odieresis" xMin="42" yMin="-14" xMax="620" yMax="856">
      <component glyphName="O" x="0" y="0" flags="0x204"/>
      <component glyphName="dieresis.cap" x="132" y="0" flags="0x4"/>
    </TTGlyph>
    <TTGlyph name="Ograve" xMin="42" yMin="-14" xMax="620" yMax="921">
      <component glyphName="O" x="0" y="0" flags="0x204"/>
      <component glyphName="grave.cap" x="132" y="0" flags="0x4"/>
    </TTGlyph>
    <TTGlyph name="Oslash" xMin="42" yMin="-63" xMax="623" yMax="748">
      <contour>
        <pt x="42" y="342" on="1"/>
        <pt x="42" y="424" on="0"/>
        <pt x="80" y="556" on="0"/>
        <pt x="154" y="648" on="0"/>
        <pt x="262" y="697" on="0"/>
        <pt x="332" y="697" on="1"/>
        <pt x="402" y="697" on="0"/>
        <pt x="453" y="675" on="1"/>
        <pt x="495" y="748" on="1"/>
        <pt x="549" y="740" on="0"/>
        <pt x="580" y="702" on="1"/>
        <pt x="533" y="618" on="1"/>
        <pt x="623" y="520" on="0"/>
        <pt x="623" y="342" on="1"/>
        <pt x="623" y="260" on="0"/>
        <pt x="585" y="129" on="0"/>
        <pt x="511" y="36" on="0"/>
        <pt x="402" y="-14" on="0"/>
        <pt x="332" y="-14" on="1"/>
        <pt x="265" y="-14" on="0"/>
        <pt x="211" y="8" on="1"/>
        <pt x="170" y="-63" on="1"/>
        <pt x="147" y="-60" on="0"/>
        <pt x="99" y="-34" on="0"/>
        <pt x="86" y="-17" on="1"/>
        <pt x="132" y="64" on="1"/>
        <pt x="42" y="161" on="0"/>
      </contour>
      <contour>
        <pt x="199" y="190" on="1"/>
        <pt x="401" y="578" on="1"/>
        <pt x="369" y="596" on="0"/>
        <pt x="328" y="596" on="1"/>
        <pt x="284" y="596" on="0"/>
        <pt x="226" y="552" on="0"/>
        <pt x="192" y="477" on="0"/>
        <pt x="178" y="377" on="0"/>
        <pt x="178" y="320" on="1"/>
        <pt x="178" y="250" on="0"/>
      </contour>
      <contour>
        <pt x="465" y="492" on="1"/>
        <pt x="263" y="104" on="1"/>
        <pt x="292" y="87" on="0"/>
        <pt x="335" y="87" on="1"/>
        <pt x="382" y="87" on="0"/>
        <pt x="442" y="134" on="0"/>
        <pt x="475" y="212" on="0"/>
        <pt x="487" y="311" on="0"/>
        <pt x="487" y="363" on="1"/>
        <pt x="487" y="433" on="0"/>
      </contour>
    </TTGlyph>
    <TTGlyph name="Otilde" xMin="42" yMin="-14" xMax="620" yMax="894">
      <component glyphName="O" x="0" y="0" flags="0x204"/>
      <component glyphName="tilde.cap" x="126" y="0" flags="0x4"/>
    </TTGlyph>
    <TTGlyph name="P" xMin="83" yMin="-5" xMax="546" yMax="688">
      <contour>
        <pt x="309" y="227" on="1"/>
        <pt x="217" y="227" on="1"/>
        <pt x="217" y="0" on="1"/>
        <pt x="189" y="-5" on="0"/>
        <pt x="150" y="-5" on="1"/>
        <pt x="111" y="-5" on="0"/>
        <pt x="83" y="0" on="1"/>
        <pt x="83" y="678" on="1"/>
        <pt x="90" y="684" on="1"/>
        <pt x="171" y="686" on="0"/>
        <pt x="280" y="688" on="0"/>
        <pt x="309" y="688" on="1"/>
        <pt x="417" y="688" on="0"/>
        <pt x="546" y="570" on="0"/>
        <pt x="546" y="458" on="1"/>
        <pt x="546" y="402" on="0"/>
        <pt x="512" y="316" on="0"/>
        <pt x="450" y="258" on="0"/>
        <pt x="363" y="227" on="0"/>
      </contour>
      <contour>
        <pt x="217" y="584" on="1"/>
        <pt x="217" y="329" on="1"/>
        <pt x="256" y="330" on="0"/>
        <pt x="311" y="330" on="0"/>
        <pt x="350" y="337" on="0"/>
        <pt x="377" y="356" on="0"/>
        <pt x="388" y="375" on="1"/>
        <pt x="398" y="392" on="0"/>
        <pt x="408" y="435" on="0"/>
        <pt x="408" y="457" on="1"/>
        <pt x="408" y="480" on="0"/>
        <pt x="398" y="525" on="0"/>
        <pt x="374" y="561" on="0"/>
        <pt x="334" y="583" on="0"/>
        <pt x="304" y="583" on="1"/>
        <pt x="275" y="583" on="0"/>
        <pt x="232" y="583" on="0"/>
      </contour>
    </TTGlyph>
    <TTGlyph name="Q" xMin="42" yMin="-137" xMax="623" yMax="697">
      <contour>
        <pt x="444" y="-103" on="1"/>
        <pt x="334" y="-14" on="1"/>
        <pt x="261" y="-14" on="0"/>
        <pt x="153" y="35" on="0"/>
        <pt x="80" y="126" on="0"/>
        <pt x="42" y="258" on="0"/>
        <pt x="42" y="342" on="1"/>
        <pt x="42" y="426" on="0"/>
        <pt x="80" y="557" on="0"/>
        <pt x="153" y="649" on="0"/>
        <pt x="260" y="697" on="0"/>
        <pt x="329" y="697" on="1"/>
        <pt x="399" y="697" on="0"/>
        <pt x="507" y="649" on="0"/>
        <pt x="581" y="558" on="0"/>
        <pt x="618" y="426" on="0"/>
        <pt x="618" y="341" on="1"/>
        <pt x="618" y="221" on="0"/>
        <pt x="541" y="57" on="0"/>
        <pt x="473" y="28" on="1"/>
        <pt x="497" y="11" on="1"/>
        <pt x="569" y="-41" on="0"/>
        <pt x="623" y="-40" on="1"/>
        <pt x="623" y="-85" on="0"/>
        <pt x="571" y="-137" on="0"/>
        <pt x="530" y="-137" on="1"/>
        <pt x="510" y="-137" on="0"/>
        <pt x="465" y="-121" on="0"/>
      </contour>
      <contour>
        <pt x="330" y="592" on="1"/>
        <pt x="181" y="592" on="0"/>
        <pt x="181" y="342" on="1"/>
        <pt x="181" y="92" on="0"/>
        <pt x="330" y="92" on="1"/>
        <pt x="479" y="92" on="0"/>
        <pt x="479" y="342" on="1"/>
        <pt x="479" y="592" on="0"/>
      </contour>
    </TTGlyph>
    <TTGlyph name="R" xMin="83" yMin="-8" xMax="586" yMax="688">
      <contour>
        <pt x="553" y="477" on="1"/>
        <pt x="553" y="444" on="0"/>
        <pt x="534" y="385" on="0"/>
        <pt x="500" y="338" on="0"/>
        <pt x="455" y="303" on="0"/>
        <pt x="428" y="294" on="1"/>
        <pt x="454" y="285" on="0"/>
        <pt x="489" y="241" on="0"/>
        <pt x="502" y="206" on="1"/>
        <pt x="539" y="105" on="1"/>
        <pt x="548" y="80" on="0"/>
        <pt x="570" y="44" on="0"/>
        <pt x="586" y="32" on="1"/>
        <pt x="573" y="14" on="0"/>
        <pt x="524" y="-8" on="0"/>
        <pt x="493" y="-8" on="1"/>
        <pt x="463" y="-8" on="0"/>
        <pt x="427" y="28" on="0"/>
        <pt x="412" y="71" on="1"/>
        <pt x="370" y="190" on="1"/>
        <pt x="357" y="225" on="0"/>
        <pt x="317" y="262" on="0"/>
        <pt x="277" y="262" on="1"/>
        <pt x="216" y="262" on="1"/>
        <pt x="216" y="0" on="1"/>
        <pt x="202" y="-2" on="0"/>
        <pt x="168" y="-5" on="0"/>
        <pt x="148" y="-5" on="1"/>
        <pt x="111" y="-5" on="0"/>
        <pt x="83" y="0" on="1"/>
        <pt x="83" y="678" on="1"/>
        <pt x="90" y="684" on="1"/>
        <pt x="171" y="686" on="0"/>
        <pt x="284" y="688" on="0"/>
        <pt x="318" y="688" on="1"/>
        <pt x="426" y="688" on="0"/>
        <pt x="553" y="580" on="0"/>
      </contour>
      <contour>
        <pt x="216" y="586" on="1"/>
        <pt x="216" y="366" on="1"/>
        <pt x="268" y="369" on="0"/>
        <pt x="308" y="369" on="1"/>
        <pt x="415" y="369" on="0"/>
        <pt x="415" y="477" on="1"/>
        <pt x="415" y="585" on="0"/>
        <pt x="308" y="585" on="1"/>
        <pt x="277" y="585" on="0"/>
        <pt x="232" y="585" on="0"/>
      </contour>
    </TTGlyph>
    <TTGlyph name="Racute" xMin="83" yMin="-8" xMax="586" yMax="921">
      <component glyphName="R" x="0" y="0" flags="0x204"/>
      <component glyphName="acute.cap" x="102" y="0" flags="0x4"/>
    </TTGlyph>
    <TTGlyph name="Rcaron" xMin="83" yMin="-8" xMax="586" yMax="916">
      <component glyphName="R" x="0" y="0" flags="0x204"/>
      <component glyphName="caron.cap" x="103" y="0" flags="0x4"/>
    </TTGlyph>
    <TTGlyph name="Rcommaaccent" xMin="83" yMin="-278" xMax="586" yMax="688">
      <component glyphName="R" x="0" y="0" flags="0x204"/>
      <component glyphName="commaaccent.cap" x="121" y="0" flags="0x4"/>
    </TTGlyph>
    <TTGlyph name="S" xMin="22" yMin="-14" xMax="523" yMax="697">
      <contour>
        <pt x="22" y="60" on="1"/>
        <pt x="25" y="88" on="0"/>
        <pt x="56" y="145" on="0"/>
        <pt x="76" y="162" on="1"/>
        <pt x="179" y="96" on="0"/>
        <pt x="278" y="96" on="1"/>
        <pt x="326" y="96" on="0"/>
        <pt x="382" y="141" on="0"/>
        <pt x="382" y="175" on="1"/>
        <pt x="380" y="233" on="0"/>
        <pt x="305" y="266" on="1"/>
        <pt x="187" y="316" on="1"/>
        <pt x="117" y="345" on="0"/>
        <pt x="47" y="436" on="0"/>
        <pt x="47" y="495" on="1"/>
        <pt x="47" y="540" on="0"/>
        <pt x="82" y="614" on="0"/>
        <pt x="147" y="667" on="0"/>
        <pt x="236" y="697" on="0"/>
        <pt x="290" y="697" on="1"/>
        <pt x="400" y="697" on="0"/>
        <pt x="506" y="642" on="1"/>
        <pt x="503" y="581" on="0"/>
        <pt x="459" y="540" on="1"/>
        <pt x="358" y="588" on="0"/>
        <pt x="283" y="588" on="1"/>
        <pt x="235" y="588" on="0"/>
        <pt x="184" y="544" on="0"/>
        <pt x="184" y="512" on="1"/>
        <pt x="184" y="466" on="0"/>
        <pt x="255" y="436" on="1"/>
        <pt x="373" y="386" on="1"/>
        <pt x="445" y="356" on="0"/>
        <pt x="523" y="258" on="0"/>
        <pt x="523" y="194" on="1"/>
        <pt x="523" y="149" on="0"/>
        <pt x="491" y="72" on="0"/>
        <pt x="426" y="17" on="0"/>
        <pt x="329" y="-14" on="0"/>
        <pt x="263" y="-14" on="1"/>
        <pt x="135" y="-14" on="0"/>
      </contour>
    </TTGlyph>
    <TTGlyph name="Sacute" xMin="22" yMin="-14" xMax="523" yMax="921">
      <component glyphName="S" x="0" y="0" flags="0x204"/>
      <component glyphName="acute.cap" x="87" y="0" flags="0x4"/>
    </TTGlyph>
    <TTGlyph name="Scaron" xMin="22" yMin="-14" xMax="523" yMax="916">
      <component glyphName="S" x="0" y="0" flags="0x204"/>
      <component glyphName="caron.cap" x="86" y="0" flags="0x4"/>
    </TTGlyph>
    <TTGlyph name="T" xMin="8" yMin="-5" xMax="498" yMax="683">
      <contour>
        <pt x="318" y="572" on="1"/>
        <pt x="319" y="498" on="1"/>
        <pt x="319" y="0" on="1"/>
        <pt x="290" y="-5" on="0"/>
        <pt x="213" y="-5" on="0"/>
        <pt x="184" y="0" on="1"/>
        <pt x="184" y="498" on="1"/>
        <pt x="185" y="572" on="1"/>
        <pt x="124" y="571" on="1"/>
        <pt x="13" y="571" on="1"/>
        <pt x="8" y="596" on="0"/>
        <pt x="8" y="658" on="0"/>
        <pt x="13" y="683" on="1"/>
        <pt x="491" y="683" on="1"/>
        <pt x="498" y="658" on="0"/>
        <pt x="498" y="599" on="0"/>
        <pt x="464" y="571" on="0"/>
        <pt x="426" y="571" on="1"/>
        <pt x="379" y="571" on="1"/>
        <pt x="318" y="572" on="1"/>
      </contour>
    </TTGlyph>
    <TTGlyph name="Tcaron" xMin="8" yMin="-5" xMax="498" yMax="916">
      <component glyphName="T" x="0" y="0" flags="0x204"/>
      <component glyphName="caron.cap" x="52" y="0" flags="0x4"/>
    </TTGlyph>
    <TTGlyph name="Thorn" xMin="83" yMin="-5" xMax="546" yMax="688">
      <contour>
        <pt x="217" y="585" on="1"/>
        <pt x="307" y="586" on="1"/>
        <pt x="361" y="586" on="0"/>
        <pt x="450" y="559" on="0"/>
        <pt x="512" y="503" on="0"/>
        <pt x="546" y="420" on="0"/>
        <pt x="546" y="365" on="1"/>
        <pt x="546" y="309" on="0"/>
        <pt x="512" y="225" on="0"/>
        <pt x="449" y="169" on="0"/>
        <pt x="361" y="140" on="0"/>
        <pt x="307" y="140" on="1"/>
        <pt x="217" y="140" on="1"/>
        <pt x="217" y="0" on="1"/>
        <pt x="189" y="-5" on="0"/>
        <pt x="150" y="-5" on="1"/>
        <pt x="111" y="-5" on="0"/>
        <pt x="83" y="0" on="1"/>
        <pt x="83" y="683" on="1"/>
        <pt x="111" y="688" on="0"/>
        <pt x="150" y="688" on="1"/>
        <pt x="189" y="688" on="0"/>
        <pt x="217" y="683" on="1"/>
      </contour>
      <contour>
        <pt x="299" y="482" on="1"/>
        <pt x="217" y="482" on="1"/>
        <pt x="217" y="244" on="1"/>
        <pt x="244" y="245" on="0"/>
        <pt x="310" y="243" on="0"/>
        <pt x="368" y="258" on="0"/>
        <pt x="408" y="313" on="0"/>
        <pt x="408" y="363" on="1"/>
        <pt x="408" y="388" on="0"/>
        <pt x="396" y="432" on="0"/>
        <pt x="371" y="464" on="0"/>
        <pt x="329" y="482" on="0"/>
      </contour>
    </TTGlyph>
    <TTGlyph name="U" xMin="74" yMin="-14" xMax="597" yMax="689">
      <contour>
        <pt x="597" y="683" on="1"/>
        <pt x="597" y="246" on="1"/>
        <pt x="597" y="121" on="0"/>
        <pt x="460" y="-14" on="0"/>
        <pt x="335" y="-14" on="1"/>
        <pt x="211" y="-14" on="0"/>
        <pt x="74" y="121" on="0"/>
        <pt x="74" y="246" on="1"/>
        <pt x="74" y="682" on="1"/>
        <pt x="80" y="689" on="1"/>
        <pt x="130" y="689" on="1"/>
        <pt x="170" y="689" on="0"/>
        <pt x="208" y="648" on="0"/>
        <pt x="208" y="603" on="1"/>
        <pt x="208" y="245" on="1"/>
        <pt x="208" y="93" on="0"/>
        <pt x="335" y="93" on="1"/>
        <pt x="463" y="93" on="0"/>
        <pt x="463" y="245" on="1"/>
        <pt x="463" y="683" on="1"/>
        <pt x="491" y="688" on="0"/>
        <pt x="530" y="688" on="1"/>
        <pt x="569" y="688" on="0"/>
      </contour>
    </TTGlyph>
    <TTGlyph name="Uacute" xMin="74" yMin="-14" xMax="597" yMax="921">
      <component glyphName="U" x="0" y="0" flags="0x204"/>
      <component glyphName="acute.cap" x="135" y="0" flags="0x4"/>
    </TTGlyph>
    <TTGlyph name="Ucircumflex" xMin="74" yMin="-14" xMax="597" yMax="911">
      <component glyphName="U" x="0" y="0" flags="0x204"/>
      <component glyphName="circumflex.cap" x="135" y="0" flags="0x4"/>
    </TTGlyph>
    <TTGlyph name="Udieresis" xMin="74" yMin="-14" xMax="597" yMax="856">
      <component glyphName="U" x="0" y="0" flags="0x204"/>
      <component glyphName="dieresis.cap" x="136" y="0" flags="0x4"/>
    </TTGlyph>
    <TTGlyph name="Ugrave" xMin="74" yMin="-14" xMax="597" yMax="921">
      <component glyphName="U" x="0" y="0" flags="0x204"/>
      <component glyphName="grave.cap" x="135" y="0" flags="0x4"/>
    </TTGlyph>
    <TTGlyph name="Uring" xMin="74" yMin="-14" xMax="597" yMax="905">
      <component glyphName="U" x="0" y="0" flags="0x204"/>
      <component glyphName="ring.cap" x="135" y="0" flags="0x4"/>
    </TTGlyph>
    <TTGlyph name="V" xMin="14" yMin="-5" xMax="579" yMax="691">
      <contour>
        <pt x="308" y="115" on="1"/>
        <pt x="453" y="683" on="1"/>
        <pt x="472" y="688" on="0"/>
        <pt x="546" y="688" on="0"/>
        <pt x="573" y="679" on="1"/>
        <pt x="579" y="671" on="1"/>
        <pt x="386" y="0" on="1"/>
        <pt x="346" y="-5" on="0"/>
        <pt x="243" y="-5" on="0"/>
        <pt x="199" y="20" on="0"/>
        <pt x="189" y="57" on="1"/>
        <pt x="14" y="671" on="1"/>
        <pt x="59" y="691" on="0"/>
        <pt x="125" y="691" on="0"/>
        <pt x="159" y="660" on="0"/>
        <pt x="168" y="625" on="1"/>
        <pt x="258" y="303" on="1"/>
        <pt x="279" y="226" on="0"/>
        <pt x="299" y="126" on="1"/>
        <pt x="301" y="115" on="0"/>
      </contour>
    </TTGlyph>
    <TTGlyph name="W" xMin="22" yMin="-5" xMax="854" yMax="691">
      <contour>
        <pt x="144" y="57" on="1"/>
        <pt x="22" y="675" on="1"/>
        <pt x="57" y="691" on="0"/>
        <pt x="129" y="691" on="0"/>
        <pt x="161" y="660" on="0"/>
        <pt x="168" y="618" on="1"/>
        <pt x="220" y="320" on="1"/>
        <pt x="242" y="194" on="0"/>
        <pt x="250" y="115" on="0"/>
        <pt x="253" y="112" on="0"/>
        <pt x="259" y="112" on="1"/>
        <pt x="354" y="669" on="1"/>
        <pt x="392" y="676" on="0"/>
        <pt x="492" y="676" on="0"/>
        <pt x="527" y="669" on="1"/>
        <pt x="614" y="124" on="1"/>
        <pt x="616" y="112" on="0"/>
        <pt x="624" y="112" on="1"/>
        <pt x="634" y="197" on="0"/>
        <pt x="657" y="322" on="1"/>
        <pt x="723" y="683" on="1"/>
        <pt x="748" y="688" on="0"/>
        <pt x="820" y="688" on="0"/>
        <pt x="847" y="679" on="1"/>
        <pt x="854" y="671" on="1"/>
        <pt x="716" y="1" on="1"/>
        <pt x="670" y="-5" on="0"/>
        <pt x="564" y="-5" on="0"/>
        <pt x="523" y="19" on="0"/>
        <pt x="518" y="57" on="1"/>
        <pt x="477" y="298" on="1"/>
        <pt x="454" y="437" on="0"/>
        <pt x="443" y="537" on="1"/>
        <pt x="435" y="537" on="1"/>
        <pt x="422" y="439" on="0"/>
        <pt x="397" y="298" on="1"/>
        <pt x="344" y="1" on="1"/>
        <pt x="296" y="-5" on="0"/>
        <pt x="194" y="-5" on="0"/>
        <pt x="152" y="19" on="0"/>
      </contour>
    </TTGlyph>
    <TTGlyph name="X" xMin="13" yMin="-9" xMax="589" yMax="692">
      <contour>
        <pt x="439" y="683" on="1"/>
        <pt x="461" y="688" on="0"/>
        <pt x="534" y="688" on="0"/>
        <pt x="565" y="677" on="1"/>
        <pt x="568" y="669" on="1"/>
        <pt x="378" y="359" on="1"/>
        <pt x="589" y="21" on="1"/>
        <pt x="546" y="-9" on="0"/>
        <pt x="450" y="-9" on="0"/>
        <pt x="415" y="45" on="1"/>
        <pt x="291" y="244" on="1"/>
        <pt x="145" y="0" on="1"/>
        <pt x="122" y="-5" on="0"/>
        <pt x="50" y="-5" on="0"/>
        <pt x="17" y="6" on="1"/>
        <pt x="13" y="14" on="1"/>
        <pt x="223" y="355" on="1"/>
        <pt x="33" y="662" on="1"/>
        <pt x="76" y="692" on="0"/>
        <pt x="171" y="692" on="0"/>
        <pt x="205" y="639" on="1"/>
        <pt x="310" y="469" on="1"/>
      </contour>
    </TTGlyph>
    <TTGlyph name="Y" xMin="3" yMin="-5" xMax="521" yMax="691">
      <contour>
        <pt x="316" y="485" on="1"/>
        <pt x="395" y="683" on="1"/>
        <pt x="418" y="688" on="0"/>
        <pt x="488" y="688" on="0"/>
        <pt x="516" y="679" on="1"/>
        <pt x="521" y="671" on="1"/>
        <pt x="329" y="213" on="1"/>
        <pt x="329" y="0" on="1"/>
        <pt x="303" y="-5" on="0"/>
        <pt x="221" y="-5" on="0"/>
        <pt x="195" y="0" on="1"/>
        <pt x="195" y="217" on="1"/>
        <pt x="3" y="667" on="1"/>
        <pt x="45" y="691" on="0"/>
        <pt x="113" y="691" on="0"/>
        <pt x="145" y="665" on="0"/>
        <pt x="157" y="635" on="1"/>
        <pt x="220" y="481" on="1"/>
        <pt x="246" y="413" on="0"/>
        <pt x="263" y="347" on="1"/>
        <pt x="269" y="347" on="1"/>
        <pt x="285" y="405" on="0"/>
      </contour>
    </TTGlyph>
    <TTGlyph name="Yacute" xMin="3" yMin="-5" xMax="521" yMax="921">
      <component glyphName="Y" x="0" y="0" flags="0x204"/>
      <component glyphName="acute.cap" x="67" y="0" flags="0x4"/>
    </TTGlyph>
    <TTGlyph name="Ydieresis" xMin="3" yMin="-5" xMax="521" yMax="856">
      <component glyphName="Y" x="0" y="0" flags="0x204"/>
      <component glyphName="dieresis.cap" x="65" y="0" flags="0x4"/>
    </TTGlyph>
    <TTGlyph name="Z" xMin="42" yMin="0" xMax="529" yMax="683">
      <contour>
        <pt x="59" y="135" on="1"/>
        <pt x="296" y="476" on="1"/>
        <pt x="332" y="527" on="0"/>
        <pt x="376" y="577" on="1"/>
        <pt x="373" y="580" on="1"/>
        <pt x="309" y="572" on="0"/>
        <pt x="218" y="572" on="1"/>
        <pt x="66" y="572" on="1"/>
        <pt x="61" y="592" on="0"/>
        <pt x="61" y="648" on="0"/>
        <pt x="70" y="683" on="1"/>
        <pt x="498" y="683" on="1"/>
        <pt x="517" y="618" on="0"/>
        <pt x="517" y="573" on="0"/>
        <pt x="501" y="550" on="1"/>
        <pt x="265" y="210" on="1"/>
        <pt x="226" y="156" on="0"/>
        <pt x="186" y="110" on="1"/>
        <pt x="189" y="107" on="1"/>
        <pt x="275" y="113" on="0"/>
        <pt x="325" y="113" on="1"/>
        <pt x="404" y="113" on="1"/>
        <pt x="474" y="113" on="0"/>
        <pt x="519" y="134" on="1"/>
        <pt x="529" y="106" on="0"/>
        <pt x="529" y="37" on="0"/>
        <pt x="481" y="0" on="0"/>
        <pt x="439" y="0" on="1"/>
        <pt x="58" y="0" on="1"/>
        <pt x="42" y="67" on="0"/>
        <pt x="42" y="109" on="0"/>
      </contour>
    </TTGlyph>
    <TTGlyph name="Zacute" xMin="42" yMin="0" xMax="529" yMax="921">
      <component glyphName="Z" x="0" y="0" flags="0x204"/>
      <component glyphName="acute.cap" x="87" y="0" flags="0x4"/>
    </TTGlyph>
    <TTGlyph name="Zcaron" xMin="42" yMin="0" xMax="529" yMax="916">
      <component glyphName="Z" x="0" y="0" flags="0x204"/>
      <component glyphName="caron.cap" x="87" y="0" flags="0x4"/>
    </TTGlyph>
    <TTGlyph name="Zdotaccent" xMin="42" yMin="0" xMax="529" yMax="874">
      <component glyphName="Z" x="0" y="0" flags="0x204"/>
      <component glyphName="dotaccent.cap" x="87" y="0" flags="0x4"/>
    </TTGlyph>
    <TTGlyph name="a" xMin="36" yMin="-14" xMax="473" yMax="508">
      <contour>
        <pt x="473" y="60" on="1"/>
        <pt x="468" y="42" on="0"/>
        <pt x="442" y="2" on="0"/>
        <pt x="429" y="-8" on="1"/>
        <pt x="364" y="0" on="0"/>
        <pt x="334" y="49" on="1"/>
        <pt x="269" y="-14" on="0"/>
        <pt x="192" y="-14" on="1"/>
        <pt x="153" y="-14" on="0"/>
        <pt x="94" y="11" on="0"/>
        <pt x="55" y="53" on="0"/>
        <pt x="36" y="107" on="0"/>
        <pt x="36" y="136" on="1"/>
        <pt x="36" y="178" on="0"/>
        <pt x="65" y="241" on="0"/>
        <pt x="118" y="283" on="0"/>
        <pt x="189" y="305" on="0"/>
        <pt x="231" y="305" on="1"/>
        <pt x="285" y="305" on="0"/>
        <pt x="315" y="302" on="1"/>
        <pt x="315" y="329" on="1"/>
        <pt x="315" y="405" on="0"/>
        <pt x="241" y="405" on="1"/>
        <pt x="191" y="405" on="0"/>
        <pt x="89" y="370" on="1"/>
        <pt x="61" y="401" on="0"/>
        <pt x="55" y="463" on="1"/>
        <pt x="161" y="508" on="0"/>
        <pt x="274" y="508" on="1"/>
        <pt x="349" y="508" on="0"/>
        <pt x="445" y="424" on="0"/>
        <pt x="445" y="339" on="1"/>
        <pt x="445" y="134" on="1"/>
        <pt x="445" y="81" on="0"/>
      </contour>
      <contour>
        <pt x="221" y="85" on="1"/>
        <pt x="271" y="85" on="0"/>
        <pt x="315" y="129" on="1"/>
        <pt x="315" y="216" on="1"/>
        <pt x="299" y="217" on="0"/>
        <pt x="269" y="219" on="0"/>
        <pt x="255" y="219" on="1"/>
        <pt x="211" y="219" on="0"/>
        <pt x="165" y="186" on="0"/>
        <pt x="165" y="148" on="1"/>
        <pt x="165" y="118" on="0"/>
        <pt x="195" y="85" on="0"/>
      </contour>
    </TTGlyph>
    <TTGlyph name="a.smcp" xMin="9" yMin="-8" xMax="552" yMax="554">
      <contour>
        <pt x="380" y="109" on="1"/>
        <pt x="339" y="108" on="1"/>
        <pt x="209" y="108" on="1"/>
        <pt x="168" y="109" on="1"/>
        <pt x="131" y="0" on="1"/>
        <pt x="107" y="-6" on="0"/>
        <pt x="34" y="-6" on="0"/>
        <pt x="13" y="4" on="1"/>
        <pt x="9" y="10" on="1"/>
        <pt x="205" y="548" on="1"/>
        <pt x="245" y="554" on="0"/>
        <pt x="317" y="554" on="0"/>
        <pt x="359" y="548" on="1"/>
        <pt x="552" y="6" on="1"/>
        <pt x="521" y="-8" on="0"/>
        <pt x="449" y="-8" on="0"/>
        <pt x="411" y="15" on="0"/>
        <pt x="400" y="49" on="1"/>
      </contour>
      <contour>
        <pt x="203" y="213" on="1"/>
        <pt x="240" y="214" on="1"/>
        <pt x="313" y="214" on="1"/>
        <pt x="339" y="213" on="0"/>
        <pt x="345" y="213" on="1"/>
        <pt x="324" y="277" on="1"/>
        <pt x="309" y="326" on="0"/>
        <pt x="278" y="444" on="1"/>
        <pt x="273" y="444" on="1"/>
        <pt x="243" y="333" on="0"/>
        <pt x="228" y="286" on="1"/>
      </contour>
    </TTGlyph>
    <TTGlyph name="aacute" xMin="36" yMin="-14" xMax="473" yMax="755">
      <component glyphName="a" x="0" y="0" flags="0x204"/>
      <component glyphName="acute" x="50" y="0" flags="0x4"/>
    </TTGlyph>
    <TTGlyph name="aacute.smcp" xMin="9" yMin="-8" xMax="552" yMax="807">
      <component glyphName="a.smcp" x="0" y="0" flags="0x204"/>
      <component glyphName="acute" x="86" y="52" flags="0x4"/>
    </TTGlyph>
    <TTGlyph name="acircumflex" xMin="36" yMin="-14" xMax="473" yMax="745">
      <component glyphName="a" x="0" y="0" flags="0x204"/>
      <component glyphName="circumflex" x="48" y="0" flags="0x4"/>
    </TTGlyph>
    <TTGlyph name="acircumflex.smcp" xMin="9" yMin="-8" xMax="552" yMax="797">
      <component glyphName="a.smcp" x="0" y="0" flags="0x204"/>
      <component glyphName="circumflex" x="85" y="52" flags="0x4"/>
    </TTGlyph>
    <TTGlyph name="acute" xMin="113" yMin="539" xMax="347" yMax="755">
      <contour>
        <pt x="113" y="591" on="1"/>
        <pt x="263" y="755" on="1"/>
        <pt x="289" y="747" on="0"/>
        <pt x="338" y="701" on="0"/>
        <pt x="347" y="675" on="1"/>
        <pt x="168" y="539" on="1"/>
        <pt x="128" y="552" on="0"/>
      </contour>
    </TTGlyph>
    <TTGlyph name="acute.cap" xMin="86" yMin="728" xMax="353" yMax="921">
      <contour>
        <pt x="86" y="792" on="1"/>
        <pt x="299" y="921" on="1"/>
        <pt x="317" y="907" on="0"/>
        <pt x="351" y="848" on="0"/>
        <pt x="353" y="820" on="1"/>
        <pt x="124" y="728" on="1"/>
        <pt x="110" y="736" on="0"/>
        <pt x="88" y="774" on="0"/>
      </contour>
    </TTGlyph>
    <TTGlyph name="adieresis" xMin="36" yMin="-14" xMax="473" yMax="677">
      <component glyphName="a" x="0" y="0" flags="0x204"/>
      <component glyphName="dieresis" x="48" y="0" flags="0x4"/>
    </TTGlyph>
    <TTGlyph name="adieresis.smcp" xMin="9" yMin="-8" xMax="552" yMax="729">
      <component glyphName="a.smcp" x="0" y="0" flags="0x204"/>
      <component glyphName="dieresis" x="85" y="52" flags="0x4"/>
    </TTGlyph>
    <TTGlyph name="ae" xMin="36" yMin="-14" xMax="730" yMax="510">
      <contour>
        <pt x="719" y="206" on="1"/>
        <pt x="445" y="206" on="1"/>
        <pt x="448" y="150" on="0"/>
        <pt x="492" y="88" on="0"/>
        <pt x="548" y="88" on="1"/>
        <pt x="576" y="88" on="0"/>
        <pt x="642" y="105" on="0"/>
        <pt x="679" y="123" on="1"/>
        <pt x="709" y="94" on="0"/>
        <pt x="717" y="43" on="1"/>
        <pt x="637" y="-14" on="0"/>
        <pt x="527" y="-14" on="1"/>
        <pt x="416" y="-14" on="0"/>
        <pt x="361" y="62" on="1"/>
        <pt x="288" y="-14" on="0"/>
        <pt x="186" y="-14" on="1"/>
        <pt x="150" y="-14" on="0"/>
        <pt x="94" y="11" on="0"/>
        <pt x="56" y="53" on="0"/>
        <pt x="36" y="107" on="0"/>
        <pt x="36" y="136" on="1"/>
        <pt x="36" y="178" on="0"/>
        <pt x="65" y="241" on="0"/>
        <pt x="118" y="283" on="0"/>
        <pt x="189" y="305" on="0"/>
        <pt x="231" y="305" on="1"/>
        <pt x="254" y="305" on="0"/>
        <pt x="295" y="303" on="0"/>
        <pt x="315" y="301" on="1"/>
        <pt x="315" y="330" on="1"/>
        <pt x="315" y="405" on="0"/>
        <pt x="242" y="405" on="1"/>
        <pt x="186" y="405" on="0"/>
        <pt x="89" y="370" on="1"/>
        <pt x="61" y="401" on="0"/>
        <pt x="55" y="463" on="1"/>
        <pt x="161" y="508" on="0"/>
        <pt x="265" y="508" on="1"/>
        <pt x="348" y="508" on="0"/>
        <pt x="392" y="455" on="1"/>
        <pt x="448" y="510" on="0"/>
        <pt x="535" y="510" on="1"/>
        <pt x="578" y="510" on="0"/>
        <pt x="650" y="479" on="0"/>
        <pt x="701" y="422" on="0"/>
        <pt x="730" y="344" on="0"/>
        <pt x="730" y="298" on="1"/>
        <pt x="730" y="273" on="0"/>
        <pt x="724" y="228" on="0"/>
      </contour>
      <contour>
        <pt x="221" y="85" on="1"/>
        <pt x="279" y="85" on="0"/>
        <pt x="327" y="139" on="1"/>
        <pt x="317" y="179" on="0"/>
        <pt x="315" y="216" on="1"/>
        <pt x="299" y="217" on="0"/>
        <pt x="269" y="219" on="0"/>
        <pt x="255" y="219" on="1"/>
        <pt x="213" y="219" on="0"/>
        <pt x="165" y="186" on="0"/>
        <pt x="165" y="148" on="1"/>
        <pt x="165" y="118" on="0"/>
        <pt x="195" y="85" on="0"/>
      </contour>
      <contour>
        <pt x="527" y="416" on="1"/>
        <pt x="451" y="416" on="0"/>
        <pt x="445" y="298" on="1"/>
        <pt x="607" y="298" on="1"/>
        <pt x="607" y="309" on="1"/>
        <pt x="607" y="357" on="0"/>
        <pt x="569" y="416" on="0"/>
      </contour>
    </TTGlyph>
    <TTGlyph name="ae.smcp" xMin="5" yMin="-5" xMax="753" yMax="548">
      <contour>
        <pt x="480" y="158" on="1"/>
        <pt x="479" y="103" on="1"/>
        <pt x="479" y="102" on="1"/>
        <pt x="509" y="105" on="0"/>
        <pt x="543" y="105" on="1"/>
        <pt x="753" y="105" on="1"/>
        <pt x="753" y="77" on="0"/>
        <pt x="751" y="62" on="1"/>
        <pt x="739" y="-1" on="0"/>
        <pt x="670" y="-1" on="1"/>
        <pt x="431" y="-1" on="1"/>
        <pt x="395" y="-1" on="0"/>
        <pt x="356" y="39" on="0"/>
        <pt x="356" y="75" on="1"/>
        <pt x="356" y="114" on="1"/>
        <pt x="343" y="113" on="0"/>
        <pt x="320" y="113" on="1"/>
        <pt x="235" y="113" on="1"/>
        <pt x="185" y="114" on="1"/>
        <pt x="128" y="0" on="1"/>
        <pt x="108" y="-5" on="0"/>
        <pt x="31" y="-5" on="0"/>
        <pt x="10" y="4" on="1"/>
        <pt x="5" y="11" on="1"/>
        <pt x="280" y="538" on="1"/>
        <pt x="304" y="548" on="0"/>
        <pt x="361" y="548" on="1"/>
        <pt x="736" y="548" on="1"/>
        <pt x="740" y="529" on="0"/>
        <pt x="740" y="468" on="0"/>
        <pt x="729" y="442" on="1"/>
        <pt x="479" y="442" on="1"/>
        <pt x="480" y="388" on="1"/>
        <pt x="480" y="327" on="1"/>
        <pt x="503" y="328" on="0"/>
        <pt x="539" y="328" on="1"/>
        <pt x="683" y="328" on="1"/>
        <pt x="690" y="309" on="0"/>
        <pt x="690" y="245" on="0"/>
        <pt x="683" y="226" on="1"/>
        <pt x="480" y="226" on="1"/>
      </contour>
      <contour>
        <pt x="318" y="213" on="1"/>
        <pt x="356" y="212" on="1"/>
        <pt x="356" y="453" on="1"/>
        <pt x="351" y="453" on="1"/>
        <pt x="342" y="433" on="0"/>
        <pt x="274" y="291" on="1"/>
        <pt x="234" y="212" on="1"/>
        <pt x="272" y="213" on="1"/>
      </contour>
    </TTGlyph>
    <TTGlyph name="agrave" xMin="36" yMin="-14" xMax="473" yMax="755">
      <component glyphName="a" x="0" y="0" flags="0x204"/>
      <component glyphName="grave" x="50" y="0" flags="0x4"/>
    </TTGlyph>
    <TTGlyph name="agrave.smcp" xMin="9" yMin="-8" xMax="552" yMax="807">
      <component glyphName="a.smcp" x="0" y="0" flags="0x204"/>
      <component glyphName="grave" x="87" y="52" flags="0x4"/>
    </TTGlyph>
    <TTGlyph name="ampersand" xMin="45" yMin="-14" xMax="630" yMax="697">
      <contour>
        <pt x="518" y="304" on="1"/>
        <pt x="519" y="156" on="1"/>
        <pt x="519" y="127" on="0"/>
        <pt x="522" y="49" on="0"/>
        <pt x="526" y="0" on="1"/>
        <pt x="512" y="-5" on="0"/>
        <pt x="482" y="-8" on="0"/>
        <pt x="465" y="-8" on="1"/>
        <pt x="449" y="-8" on="0"/>
        <pt x="418" y="-5" on="0"/>
        <pt x="405" y="-1" on="1"/>
        <pt x="396" y="41" on="1"/>
        <pt x="329" y="-14" on="0"/>
        <pt x="237" y="-14" on="1"/>
        <pt x="192" y="-14" on="0"/>
        <pt x="120" y="16" on="0"/>
        <pt x="71" y="67" on="0"/>
        <pt x="45" y="134" on="0"/>
        <pt x="45" y="171" on="1"/>
        <pt x="45" y="209" on="0"/>
        <pt x="65" y="272" on="0"/>
        <pt x="100" y="322" on="0"/>
        <pt x="147" y="356" on="0"/>
        <pt x="174" y="365" on="1"/>
        <pt x="129" y="381" on="0"/>
        <pt x="74" y="462" on="0"/>
        <pt x="74" y="516" on="1"/>
        <pt x="74" y="556" on="0"/>
        <pt x="104" y="623" on="0"/>
        <pt x="161" y="671" on="0"/>
        <pt x="242" y="697" on="0"/>
        <pt x="292" y="697" on="1"/>
        <pt x="393" y="697" on="0"/>
        <pt x="486" y="665" on="1"/>
        <pt x="486" y="635" on="0"/>
        <pt x="470" y="586" on="0"/>
        <pt x="452" y="565" on="1"/>
        <pt x="410" y="579" on="0"/>
        <pt x="342" y="592" on="0"/>
        <pt x="315" y="592" on="1"/>
        <pt x="261" y="592" on="0"/>
        <pt x="212" y="545" on="0"/>
        <pt x="212" y="506" on="1"/>
        <pt x="212" y="416" on="0"/>
        <pt x="323" y="416" on="1"/>
        <pt x="512" y="416" on="1"/>
        <pt x="571" y="416" on="0"/>
        <pt x="613" y="433" on="1"/>
        <pt x="630" y="413" on="0"/>
        <pt x="630" y="372" on="1"/>
        <pt x="630" y="304" on="0"/>
        <pt x="545" y="304" on="1"/>
      </contour>
      <contour>
        <pt x="390" y="242" on="1"/>
        <pt x="390" y="262" on="0"/>
        <pt x="390" y="293" on="0"/>
        <pt x="391" y="304" on="1"/>
        <pt x="312" y="304" on="1"/>
        <pt x="248" y="304" on="0"/>
        <pt x="182" y="242" on="0"/>
        <pt x="182" y="191" on="1"/>
        <pt x="182" y="140" on="0"/>
        <pt x="231" y="89" on="0"/>
        <pt x="273" y="89" on="1"/>
        <pt x="341" y="89" on="0"/>
        <pt x="390" y="132" on="1"/>
      </contour>
    </TTGlyph>
    <TTGlyph name="ampersand.smcp" xMin="40" yMin="-13" xMax="572" yMax="562">
      <contour>
        <pt x="299" y="340" on="1"/>
        <pt x="463" y="340" on="1"/>
        <pt x="517" y="340" on="0"/>
        <pt x="555" y="358" on="1"/>
        <pt x="572" y="335" on="0"/>
        <pt x="572" y="300" on="1"/>
        <pt x="572" y="237" on="0"/>
        <pt x="489" y="237" on="1"/>
        <pt x="474" y="237" on="1"/>
        <pt x="475" y="228" on="0"/>
        <pt x="475" y="200" on="0"/>
        <pt x="475" y="180" on="1"/>
        <pt x="475" y="101" on="1"/>
        <pt x="475" y="93" on="0"/>
        <pt x="478" y="43" on="0"/>
        <pt x="482" y="-1" on="1"/>
        <pt x="461" y="-9" on="0"/>
        <pt x="421" y="-9" on="1"/>
        <pt x="401" y="-9" on="0"/>
        <pt x="372" y="-6" on="0"/>
        <pt x="362" y="-4" on="1"/>
        <pt x="354" y="33" on="1"/>
        <pt x="296" y="-13" on="0"/>
        <pt x="213" y="-13" on="1"/>
        <pt x="171" y="-13" on="0"/>
        <pt x="106" y="11" on="0"/>
        <pt x="63" y="53" on="0"/>
        <pt x="40" y="107" on="0"/>
        <pt x="40" y="137" on="1"/>
        <pt x="40" y="198" on="0"/>
        <pt x="107" y="279" on="0"/>
        <pt x="156" y="292" on="1"/>
        <pt x="116" y="305" on="0"/>
        <pt x="68" y="371" on="0"/>
        <pt x="68" y="414" on="1"/>
        <pt x="68" y="447" on="0"/>
        <pt x="96" y="502" on="0"/>
        <pt x="149" y="541" on="0"/>
        <pt x="223" y="562" on="0"/>
        <pt x="268" y="562" on="1"/>
        <pt x="358" y="562" on="0"/>
        <pt x="445" y="536" on="1"/>
        <pt x="445" y="524" on="1"/>
        <pt x="445" y="475" on="0"/>
        <pt x="412" y="439" on="1"/>
        <pt x="371" y="451" on="0"/>
        <pt x="309" y="461" on="0"/>
        <pt x="286" y="461" on="1"/>
        <pt x="242" y="461" on="0"/>
        <pt x="206" y="429" on="0"/>
        <pt x="206" y="403" on="1"/>
        <pt x="206" y="340" on="0"/>
      </contour>
      <contour>
        <pt x="349" y="116" on="1"/>
        <pt x="349" y="237" on="1"/>
        <pt x="287" y="237" on="1"/>
        <pt x="233" y="237" on="0"/>
        <pt x="176" y="194" on="0"/>
        <pt x="176" y="157" on="1"/>
        <pt x="176" y="120" on="0"/>
        <pt x="218" y="85" on="0"/>
        <pt x="252" y="85" on="1"/>
        <pt x="308" y="85" on="0"/>
      </contour>
    </TTGlyph>
    <TTGlyph name="aogonek" xMin="36" yMin="-218" xMax="501" yMax="508">
      <contour>
        <pt x="473" y="-119" on="1"/>
        <pt x="500" y="-144" on="0"/>
        <pt x="501" y="-180" on="1"/>
        <pt x="454" y="-218" on="0"/>
        <pt x="397" y="-218" on="1"/>
        <pt x="339" y="-218" on="0"/>
        <pt x="275" y="-166" on="0"/>
        <pt x="275" y="-121" on="1"/>
        <pt x="275" y="-45" on="0"/>
        <pt x="363" y="19" on="1"/>
        <pt x="344" y="35" on="0"/>
        <pt x="335" y="50" on="1"/>
        <pt x="268" y="-14" on="0"/>
        <pt x="191" y="-14" on="1"/>
        <pt x="152" y="-14" on="0"/>
        <pt x="94" y="11" on="0"/>
        <pt x="55" y="53" on="0"/>
        <pt x="36" y="107" on="0"/>
        <pt x="36" y="136" on="1"/>
        <pt x="36" y="178" on="0"/>
        <pt x="65" y="241" on="0"/>
        <pt x="118" y="283" on="0"/>
        <pt x="189" y="305" on="0"/>
        <pt x="231" y="305" on="1"/>
        <pt x="285" y="305" on="0"/>
        <pt x="315" y="302" on="1"/>
        <pt x="315" y="329" on="1"/>
        <pt x="315" y="405" on="0"/>
        <pt x="241" y="405" on="1"/>
        <pt x="191" y="405" on="0"/>
        <pt x="89" y="370" on="1"/>
        <pt x="61" y="401" on="0"/>
        <pt x="55" y="463" on="1"/>
        <pt x="161" y="508" on="0"/>
        <pt x="274" y="508" on="1"/>
        <pt x="349" y="508" on="0"/>
        <pt x="445" y="424" on="0"/>
        <pt x="445" y="339" on="1"/>
        <pt x="445" y="134" on="1"/>
        <pt x="445" y="85" on="0"/>
        <pt x="476" y="61" on="1"/>
        <pt x="471" y="42" on="0"/>
        <pt x="442" y="5" on="0"/>
        <pt x="419" y="-16" on="1"/>
        <pt x="374" y="-57" on="0"/>
        <pt x="374" y="-94" on="1"/>
        <pt x="374" y="-111" on="0"/>
        <pt x="400" y="-135" on="0"/>
        <pt x="422" y="-135" on="1"/>
        <pt x="445" y="-135" on="0"/>
      </contour>
      <contour>
        <pt x="221" y="85" on="1"/>
        <pt x="271" y="85" on="0"/>
        <pt x="315" y="129" on="1"/>
        <pt x="315" y="216" on="1"/>
        <pt x="299" y="217" on="0"/>
        <pt x="269" y="219" on="0"/>
        <pt x="255" y="219" on="1"/>
        <pt x="216" y="219" on="0"/>
        <pt x="165" y="186" on="0"/>
        <pt x="165" y="148" on="1"/>
        <pt x="165" y="118" on="0"/>
        <pt x="195" y="85" on="0"/>
      </contour>
    </TTGlyph>
    <TTGlyph name="aogonek.smcp" xMin="9" yMin="-218" xMax="592" yMax="554">
      <contour>
        <pt x="209" y="108" on="1"/>
        <pt x="168" y="109" on="1"/>
        <pt x="131" y="0" on="1"/>
        <pt x="107" y="-6" on="0"/>
        <pt x="34" y="-6" on="0"/>
        <pt x="13" y="4" on="1"/>
        <pt x="9" y="10" on="1"/>
        <pt x="205" y="548" on="1"/>
        <pt x="245" y="554" on="0"/>
        <pt x="317" y="554" on="0"/>
        <pt x="359" y="548" on="1"/>
        <pt x="552" y="6" on="1"/>
        <pt x="549" y="4" on="1"/>
        <pt x="465" y="-40" on="0"/>
        <pt x="465" y="-95" on="1"/>
        <pt x="465" y="-134" on="0"/>
        <pt x="510" y="-134" on="1"/>
        <pt x="538" y="-134" on="0"/>
        <pt x="564" y="-119" on="1"/>
        <pt x="591" y="-144" on="0"/>
        <pt x="592" y="-180" on="1"/>
        <pt x="546" y="-218" on="0"/>
        <pt x="488" y="-218" on="1"/>
        <pt x="430" y="-218" on="0"/>
        <pt x="366" y="-165" on="0"/>
        <pt x="366" y="-121" on="1"/>
        <pt x="366" y="-57" on="0"/>
        <pt x="435" y="0" on="1"/>
        <pt x="411" y="12" on="0"/>
        <pt x="400" y="49" on="1"/>
        <pt x="380" y="109" on="1"/>
        <pt x="339" y="108" on="1"/>
      </contour>
      <contour>
        <pt x="203" y="213" on="1"/>
        <pt x="240" y="214" on="1"/>
        <pt x="313" y="214" on="1"/>
        <pt x="317" y="214" on="0"/>
        <pt x="339" y="213" on="0"/>
        <pt x="345" y="213" on="1"/>
        <pt x="324" y="277" on="1"/>
        <pt x="309" y="326" on="0"/>
        <pt x="278" y="444" on="1"/>
        <pt x="273" y="444" on="1"/>
        <pt x="243" y="333" on="0"/>
        <pt x="228" y="286" on="1"/>
      </contour>
    </TTGlyph>
    <TTGlyph name="aring" xMin="36" yMin="-14" xMax="473" yMax="783">
      <component glyphName="a" x="0" y="0" flags="0x204"/>
      <component glyphName="ring" x="48" y="0" flags="0x4"/>
    </TTGlyph>
    <TTGlyph name="aring.smcp" xMin="9" yMin="-8" xMax="552" yMax="835">
      <component glyphName="a.smcp" x="0" y="0" flags="0x204"/>
      <component glyphName="ring" x="85" y="52" flags="0x4"/>
    </TTGlyph>
    <TTGlyph name="asciicircum" xMin="36" yMin="299" xMax="494" yMax="654">
      <contour>
        <pt x="335" y="648" on="1"/>
        <pt x="494" y="306" on="1"/>
        <pt x="471" y="300" on="0"/>
        <pt x="393" y="299" on="0"/>
        <pt x="368" y="306" on="1"/>
        <pt x="304" y="452" on="1"/>
        <pt x="303" y="453" on="0"/>
        <pt x="269" y="548" on="1"/>
        <pt x="261" y="548" on="1"/>
        <pt x="227" y="455" on="0"/>
        <pt x="226" y="452" on="1"/>
        <pt x="162" y="306" on="1"/>
        <pt x="137" y="299" on="0"/>
        <pt x="59" y="300" on="0"/>
        <pt x="36" y="306" on="1"/>
        <pt x="195" y="648" on="1"/>
        <pt x="218" y="654" on="0"/>
        <pt x="312" y="654" on="0"/>
      </contour>
    </TTGlyph>
    <TTGlyph name="asciitilde" xMin="35" yMin="202" xMax="575" yMax="391">
      <contour>
        <pt x="289" y="371" on="1"/>
        <pt x="370" y="334" on="1"/>
        <pt x="397" y="322" on="0"/>
        <pt x="418" y="322" on="1"/>
        <pt x="434" y="321" on="0"/>
        <pt x="461" y="338" on="0"/>
        <pt x="475" y="352" on="1"/>
        <pt x="497" y="376" on="1"/>
        <pt x="519" y="374" on="0"/>
        <pt x="566" y="347" on="0"/>
        <pt x="575" y="326" on="1"/>
        <pt x="558" y="297" on="1"/>
        <pt x="502" y="202" on="0"/>
        <pt x="408" y="202" on="1"/>
        <pt x="388" y="203" on="0"/>
        <pt x="344" y="211" on="0"/>
        <pt x="321" y="222" on="1"/>
        <pt x="240" y="259" on="1"/>
        <pt x="215" y="270" on="0"/>
        <pt x="192" y="270" on="1"/>
        <pt x="163" y="271" on="0"/>
        <pt x="135" y="241" on="1"/>
        <pt x="113" y="217" on="1"/>
        <pt x="91" y="219" on="0"/>
        <pt x="44" y="246" on="0"/>
        <pt x="35" y="267" on="1"/>
        <pt x="52" y="296" on="1"/>
        <pt x="108" y="391" on="0"/>
        <pt x="202" y="391" on="1"/>
        <pt x="241" y="391" on="0"/>
      </contour>
    </TTGlyph>
    <TTGlyph name="asterisk" xMin="38" yMin="319" xMax="474" yMax="738">
      <contour>
        <pt x="40" y="534" on="1"/>
        <pt x="38" y="555" on="0"/>
        <pt x="60" y="622" on="0"/>
        <pt x="74" y="637" on="1"/>
        <pt x="130" y="617" on="1"/>
        <pt x="167" y="603" on="0"/>
        <pt x="226" y="561" on="1"/>
        <pt x="205" y="637" on="0"/>
        <pt x="204" y="670" on="1"/>
        <pt x="202" y="730" on="1"/>
        <pt x="221" y="738" on="0"/>
        <pt x="291" y="738" on="0"/>
        <pt x="310" y="730" on="1"/>
        <pt x="308" y="670" on="1"/>
        <pt x="306" y="641" on="0"/>
        <pt x="286" y="562" on="1"/>
        <pt x="340" y="600" on="0"/>
        <pt x="382" y="615" on="1"/>
        <pt x="439" y="636" on="1"/>
        <pt x="452" y="621" on="0"/>
        <pt x="474" y="555" on="0"/>
        <pt x="473" y="534" on="1"/>
        <pt x="414" y="517" on="1"/>
        <pt x="381" y="507" on="0"/>
        <pt x="305" y="505" on="1"/>
        <pt x="364" y="456" on="0"/>
        <pt x="385" y="430" on="1"/>
        <pt x="422" y="383" on="1"/>
        <pt x="412" y="366" on="0"/>
        <pt x="356" y="324" on="0"/>
        <pt x="335" y="319" on="1"/>
        <pt x="302" y="369" on="1"/>
        <pt x="284" y="396" on="0"/>
        <pt x="256" y="468" on="1"/>
        <pt x="233" y="404" on="0"/>
        <pt x="210" y="370" on="1"/>
        <pt x="177" y="320" on="1"/>
        <pt x="157" y="324" on="0"/>
        <pt x="100" y="365" on="0"/>
        <pt x="89" y="383" on="1"/>
        <pt x="126" y="430" on="1"/>
        <pt x="147" y="458" on="0"/>
        <pt x="207" y="505" on="1"/>
        <pt x="135" y="507" on="0"/>
        <pt x="98" y="518" on="1"/>
      </contour>
    </TTGlyph>
    <TTGlyph name="at" xMin="44" yMin="-196" xMax="928" yMax="682">
      <contour>
        <pt x="680" y="412" on="1"/>
        <pt x="679" y="161" on="1"/>
        <pt x="679" y="101" on="0"/>
        <pt x="715" y="101" on="1"/>
        <pt x="752" y="101" on="0"/>
        <pt x="800" y="194" on="0"/>
        <pt x="800" y="297" on="1"/>
        <pt x="800" y="363" on="0"/>
        <pt x="757" y="469" on="0"/>
        <pt x="678" y="544" on="0"/>
        <pt x="564" y="585" on="0"/>
        <pt x="494" y="585" on="1"/>
        <pt x="424" y="585" on="0"/>
        <pt x="307" y="531" on="0"/>
        <pt x="222" y="435" on="0"/>
        <pt x="175" y="302" on="0"/>
        <pt x="175" y="224" on="1"/>
        <pt x="175" y="146" on="0"/>
        <pt x="215" y="26" on="0"/>
        <pt x="289" y="-55" on="0"/>
        <pt x="396" y="-96" on="0"/>
        <pt x="463" y="-96" on="1"/>
        <pt x="567" y="-96" on="0"/>
        <pt x="663" y="-58" on="1"/>
        <pt x="696" y="-94" on="0"/>
        <pt x="696" y="-148" on="1"/>
        <pt x="580" y="-196" on="0"/>
        <pt x="454" y="-196" on="1"/>
        <pt x="362" y="-196" on="0"/>
        <pt x="211" y="-142" on="0"/>
        <pt x="103" y="-37" on="0"/>
        <pt x="44" y="118" on="0"/>
        <pt x="44" y="220" on="1"/>
        <pt x="44" y="322" on="0"/>
        <pt x="113" y="491" on="0"/>
        <pt x="234" y="614" on="0"/>
        <pt x="398" y="682" on="0"/>
        <pt x="494" y="682" on="1"/>
        <pt x="590" y="682" on="0"/>
        <pt x="750" y="628" on="0"/>
        <pt x="864" y="527" on="0"/>
        <pt x="928" y="383" on="0"/>
        <pt x="928" y="293" on="1"/>
        <pt x="928" y="224" on="0"/>
        <pt x="893" y="116" on="0"/>
        <pt x="835" y="43" on="0"/>
        <pt x="758" y="5" on="0"/>
        <pt x="715" y="5" on="1"/>
        <pt x="629" y="5" on="0"/>
        <pt x="585" y="64" on="1"/>
        <pt x="520" y="1" on="0"/>
        <pt x="445" y="1" on="1"/>
        <pt x="369" y="1" on="0"/>
        <pt x="286" y="124" on="0"/>
        <pt x="286" y="232" on="1"/>
        <pt x="286" y="286" on="0"/>
        <pt x="314" y="379" on="0"/>
        <pt x="368" y="446" on="0"/>
        <pt x="446" y="484" on="0"/>
        <pt x="496" y="484" on="1"/>
        <pt x="550" y="484" on="0"/>
        <pt x="649" y="442" on="0"/>
      </contour>
      <contour>
        <pt x="476" y="100" on="1"/>
        <pt x="516" y="100" on="0"/>
        <pt x="557" y="145" on="1"/>
        <pt x="557" y="368" on="1"/>
        <pt x="531" y="391" on="0"/>
        <pt x="496" y="391" on="1"/>
        <pt x="411" y="391" on="0"/>
        <pt x="411" y="232" on="1"/>
        <pt x="411" y="100" on="0"/>
      </contour>
    </TTGlyph>
    <TTGlyph name="atilde" xMin="36" yMin="-14" xMax="473" yMax="707">
      <component glyphName="a" x="0" y="0" flags="0x204"/>
      <component glyphName="tilde" x="48" y="0" flags="0x4"/>
    </TTGlyph>
    <TTGlyph name="atilde.smcp" xMin="9" yMin="-8" xMax="552" yMax="759">
      <component glyphName="a.smcp" x="0" y="0" flags="0x204"/>
      <component glyphName="tilde" x="84" y="52" flags="0x4"/>
    </TTGlyph>
    <TTGlyph name="b" xMin="69" yMin="-8" xMax="495" yMax="736">
      <contour>
        <pt x="69" y="25" on="1"/>
        <pt x="69" y="729" on="1"/>
        <pt x="75" y="736" on="1"/>
        <pt x="124" y="736" on="1"/>
        <pt x="163" y="736" on="0"/>
        <pt x="196" y="700" on="0"/>
        <pt x="196" y="655" on="1"/>
        <pt x="196" y="464" on="1"/>
        <pt x="251" y="506" on="0"/>
        <pt x="320" y="506" on="1"/>
        <pt x="406" y="506" on="0"/>
        <pt x="495" y="366" on="0"/>
        <pt x="495" y="244" on="1"/>
        <pt x="495" y="187" on="0"/>
        <pt x="460" y="94" on="0"/>
        <pt x="398" y="28" on="0"/>
        <pt x="311" y="-8" on="0"/>
        <pt x="259" y="-8" on="1"/>
        <pt x="154" y="-8" on="0"/>
      </contour>
      <contour>
        <pt x="284" y="399" on="1"/>
        <pt x="258" y="399" on="0"/>
        <pt x="216" y="378" on="0"/>
        <pt x="196" y="355" on="1"/>
        <pt x="196" y="95" on="1"/>
        <pt x="230" y="87" on="0"/>
        <pt x="259" y="87" on="1"/>
        <pt x="308" y="87" on="0"/>
        <pt x="361" y="172" on="0"/>
        <pt x="361" y="253" on="1"/>
        <pt x="361" y="399" on="0"/>
      </contour>
    </TTGlyph>
    <TTGlyph name="b.smcp" xMin="78" yMin="-4" xMax="518" yMax="553">
      <contour>
        <pt x="294" y="-4" on="1"/>
        <pt x="83" y="-1" on="1"/>
        <pt x="78" y="4" on="1"/>
        <pt x="78" y="543" on="1"/>
        <pt x="83" y="549" on="1"/>
        <pt x="140" y="551" on="0"/>
        <pt x="238" y="553" on="0"/>
        <pt x="281" y="553" on="1"/>
        <pt x="489" y="553" on="0"/>
        <pt x="489" y="408" on="1"/>
        <pt x="489" y="371" on="0"/>
        <pt x="446" y="308" on="0"/>
        <pt x="411" y="295" on="1"/>
        <pt x="457" y="282" on="0"/>
        <pt x="518" y="206" on="0"/>
        <pt x="518" y="158" on="1"/>
        <pt x="518" y="-4" on="0"/>
      </contour>
      <contour>
        <pt x="285" y="241" on="1"/>
        <pt x="207" y="241" on="1"/>
        <pt x="207" y="89" on="1"/>
        <pt x="241" y="90" on="0"/>
        <pt x="305" y="90" on="0"/>
        <pt x="353" y="99" on="0"/>
        <pt x="384" y="132" on="0"/>
        <pt x="384" y="164" on="1"/>
        <pt x="384" y="195" on="0"/>
        <pt x="338" y="241" on="0"/>
      </contour>
      <contour>
        <pt x="207" y="461" on="1"/>
        <pt x="207" y="334" on="1"/>
        <pt x="275" y="334" on="1"/>
        <pt x="359" y="334" on="0"/>
        <pt x="359" y="397" on="1"/>
        <pt x="359" y="423" on="0"/>
        <pt x="335" y="450" on="0"/>
        <pt x="294" y="460" on="0"/>
        <pt x="239" y="459" on="0"/>
      </contour>
    </TTGlyph>
    <TTGlyph name="backslash" xMin="6" yMin="-115" xMax="433" yMax="765">
      <contour>
        <pt x="321" y="-115" on="1"/>
        <pt x="6" y="722" on="1"/>
        <pt x="52" y="758" on="0"/>
        <pt x="118" y="765" on="1"/>
        <pt x="433" y="-73" on="1"/>
        <pt x="388" y="-108" on="0"/>
      </contour>
    </TTGlyph>
    <TTGlyph name="bar" xMin="70" yMin="-147" xMax="192" yMax="779">
      <contour>
        <pt x="70" y="-141" on="1"/>
        <pt x="70" y="774" on="1"/>
        <pt x="94" y="779" on="0"/>
        <pt x="168" y="779" on="0"/>
        <pt x="192" y="774" on="1"/>
        <pt x="192" y="-141" on="1"/>
        <pt x="169" y="-147" on="0"/>
        <pt x="93" y="-147" on="0"/>
      </contour>
    </TTGlyph>
    <TTGlyph name="braceleft" xMin="37" yMin="-175" xMax="367" yMax="827">
      <contour>
        <pt x="44" y="369" on="1"/>
        <pt x="80" y="377" on="0"/>
        <pt x="127" y="441" on="0"/>
        <pt x="127" y="482" on="1"/>
        <pt x="127" y="647" on="1"/>
        <pt x="127" y="719" on="0"/>
        <pt x="210" y="807" on="0"/>
        <pt x="279" y="818" on="1"/>
        <pt x="338" y="827" on="1"/>
        <pt x="351" y="813" on="0"/>
        <pt x="367" y="758" on="0"/>
        <pt x="362" y="741" on="1"/>
        <pt x="307" y="723" on="1"/>
        <pt x="259" y="708" on="0"/>
        <pt x="259" y="646" on="1"/>
        <pt x="259" y="484" on="1"/>
        <pt x="259" y="434" on="0"/>
        <pt x="212" y="348" on="0"/>
        <pt x="173" y="331" on="1"/>
        <pt x="173" y="323" on="1"/>
        <pt x="212" y="305" on="0"/>
        <pt x="259" y="219" on="0"/>
        <pt x="259" y="169" on="1"/>
        <pt x="259" y="7" on="1"/>
        <pt x="259" y="-55" on="0"/>
        <pt x="307" y="-70" on="1"/>
        <pt x="362" y="-88" on="1"/>
        <pt x="367" y="-105" on="0"/>
        <pt x="351" y="-160" on="0"/>
        <pt x="338" y="-175" on="1"/>
        <pt x="279" y="-165" on="1"/>
        <pt x="210" y="-154" on="0"/>
        <pt x="127" y="-67" on="0"/>
        <pt x="127" y="6" on="1"/>
        <pt x="127" y="171" on="1"/>
        <pt x="127" y="212" on="0"/>
        <pt x="80" y="276" on="0"/>
        <pt x="44" y="284" on="1"/>
        <pt x="37" y="300" on="0"/>
        <pt x="37" y="353" on="0"/>
      </contour>
    </TTGlyph>
    <TTGlyph name="braceright" xMin="7" yMin="-175" xMax="336" yMax="827">
      <contour>
        <pt x="330" y="369" on="1"/>
        <pt x="336" y="353" on="0"/>
        <pt x="336" y="300" on="0"/>
        <pt x="330" y="284" on="1"/>
        <pt x="294" y="276" on="0"/>
        <pt x="247" y="212" on="0"/>
        <pt x="247" y="171" on="1"/>
        <pt x="247" y="6" on="1"/>
        <pt x="247" y="-67" on="0"/>
        <pt x="163" y="-154" on="0"/>
        <pt x="94" y="-165" on="1"/>
        <pt x="35" y="-175" on="1"/>
        <pt x="22" y="-160" on="0"/>
        <pt x="7" y="-105" on="0"/>
        <pt x="11" y="-88" on="1"/>
        <pt x="66" y="-70" on="1"/>
        <pt x="115" y="-54" on="0"/>
        <pt x="115" y="7" on="1"/>
        <pt x="115" y="169" on="1"/>
        <pt x="115" y="219" on="0"/>
        <pt x="162" y="305" on="0"/>
        <pt x="201" y="323" on="1"/>
        <pt x="201" y="331" on="1"/>
        <pt x="162" y="348" on="0"/>
        <pt x="115" y="434" on="0"/>
        <pt x="115" y="484" on="1"/>
        <pt x="115" y="646" on="1"/>
        <pt x="115" y="707" on="0"/>
        <pt x="66" y="723" on="1"/>
        <pt x="11" y="741" on="1"/>
        <pt x="7" y="758" on="0"/>
        <pt x="22" y="813" on="0"/>
        <pt x="35" y="827" on="1"/>
        <pt x="94" y="818" on="1"/>
        <pt x="163" y="807" on="0"/>
        <pt x="247" y="719" on="0"/>
        <pt x="247" y="647" on="1"/>
        <pt x="247" y="482" on="1"/>
        <pt x="247" y="440" on="0"/>
        <pt x="294" y="377" on="0"/>
      </contour>
    </TTGlyph>
    <TTGlyph name="bracketleft" xMin="99" yMin="-157" xMax="338" yMax="822">
      <contour>
        <pt x="334" y="-149" on="1"/>
        <pt x="107" y="-157" on="1"/>
        <pt x="99" y="-150" on="1"/>
        <pt x="99" y="815" on="1"/>
        <pt x="107" y="822" on="1"/>
        <pt x="334" y="814" on="1"/>
        <pt x="338" y="801" on="0"/>
        <pt x="338" y="745" on="0"/>
        <pt x="328" y="723" on="1"/>
        <pt x="227" y="720" on="1"/>
        <pt x="227" y="-55" on="1"/>
        <pt x="328" y="-58" on="1"/>
        <pt x="338" y="-80" on="0"/>
        <pt x="338" y="-136" on="0"/>
      </contour>
    </TTGlyph>
    <TTGlyph name="bracketright" xMin="32" yMin="-157" xMax="271" yMax="822">
      <contour>
        <pt x="263" y="-157" on="1"/>
        <pt x="37" y="-149" on="1"/>
        <pt x="32" y="-136" on="0"/>
        <pt x="32" y="-86" on="0"/>
        <pt x="42" y="-58" on="1"/>
        <pt x="143" y="-55" on="1"/>
        <pt x="143" y="720" on="1"/>
        <pt x="42" y="723" on="1"/>
        <pt x="32" y="750" on="0"/>
        <pt x="32" y="802" on="0"/>
        <pt x="37" y="814" on="1"/>
        <pt x="263" y="822" on="1"/>
        <pt x="271" y="815" on="1"/>
        <pt x="271" y="-150" on="1"/>
      </contour>
    </TTGlyph>
    <TTGlyph name="brokenbar" xMin="68" yMin="-147" xMax="189" yMax="779">
      <contour>
        <pt x="68" y="-141" on="1"/>
        <pt x="68" y="246" on="1"/>
        <pt x="92" y="251" on="0"/>
        <pt x="164" y="251" on="0"/>
        <pt x="189" y="246" on="1"/>
        <pt x="189" y="-141" on="1"/>
        <pt x="165" y="-147" on="0"/>
        <pt x="91" y="-147" on="0"/>
      </contour>
      <contour>
        <pt x="68" y="387" on="1"/>
        <pt x="68" y="774" on="1"/>
        <pt x="92" y="779" on="0"/>
        <pt x="164" y="779" on="0"/>
        <pt x="189" y="774" on="1"/>
        <pt x="189" y="387" on="1"/>
        <pt x="165" y="381" on="0"/>
        <pt x="91" y="381" on="0"/>
      </contour>
    </TTGlyph>
    <TTGlyph name="bullet" xMin="102" yMin="150" xMax="355" yMax="390">
      <contour>
        <pt x="118" y="177" on="1"/>
        <pt x="102" y="212" on="0"/>
        <pt x="102" y="270" on="1"/>
        <pt x="102" y="328" on="0"/>
        <pt x="118" y="363" on="1"/>
        <pt x="142" y="377" on="0"/>
        <pt x="200" y="390" on="0"/>
        <pt x="229" y="390" on="1"/>
        <pt x="290" y="390" on="0"/>
        <pt x="340" y="363" on="1"/>
        <pt x="355" y="328" on="0"/>
        <pt x="355" y="270" on="1"/>
        <pt x="355" y="211" on="0"/>
        <pt x="340" y="177" on="1"/>
        <pt x="299" y="150" on="0"/>
        <pt x="230" y="150" on="1"/>
        <pt x="161" y="150" on="0"/>
      </contour>
    </TTGlyph>
    <TTGlyph name="c" xMin="37" yMin="-14" xMax="442" yMax="510">
      <contour>
        <pt x="324" y="290" on="1"/>
        <pt x="324" y="350" on="0"/>
        <pt x="295" y="412" on="0"/>
        <pt x="251" y="412" on="1"/>
        <pt x="171" y="412" on="0"/>
        <pt x="171" y="246" on="1"/>
        <pt x="171" y="164" on="0"/>
        <pt x="217" y="90" on="0"/>
        <pt x="268" y="90" on="1"/>
        <pt x="294" y="90" on="0"/>
        <pt x="354" y="112" on="0"/>
        <pt x="386" y="136" on="1"/>
        <pt x="402" y="126" on="0"/>
        <pt x="433" y="81" on="0"/>
        <pt x="437" y="61" on="1"/>
        <pt x="403" y="27" on="0"/>
        <pt x="304" y="-14" on="0"/>
        <pt x="250" y="-14" on="1"/>
        <pt x="145" y="-14" on="0"/>
        <pt x="37" y="129" on="0"/>
        <pt x="37" y="254" on="1"/>
        <pt x="37" y="318" on="0"/>
        <pt x="72" y="414" on="0"/>
        <pt x="132" y="478" on="0"/>
        <pt x="209" y="510" on="0"/>
        <pt x="251" y="510" on="1"/>
        <pt x="295" y="510" on="0"/>
        <pt x="366" y="485" on="0"/>
        <pt x="415" y="442" on="0"/>
        <pt x="442" y="384" on="0"/>
        <pt x="442" y="352" on="1"/>
        <pt x="442" y="320" on="0"/>
        <pt x="409" y="285" on="0"/>
        <pt x="376" y="285" on="1"/>
        <pt x="346" y="285" on="0"/>
      </contour>
    </TTGlyph>
    <TTGlyph name="c.smcp" xMin="36" yMin="-14" xMax="515" yMax="562">
      <contour>
        <pt x="390" y="316" on="1"/>
        <pt x="390" y="458" on="0"/>
        <pt x="289" y="458" on="1"/>
        <pt x="172" y="458" on="0"/>
        <pt x="172" y="271" on="1"/>
        <pt x="172" y="180" on="0"/>
        <pt x="241" y="96" on="0"/>
        <pt x="301" y="96" on="1"/>
        <pt x="333" y="96" on="0"/>
        <pt x="407" y="124" on="0"/>
        <pt x="446" y="154" on="1"/>
        <pt x="456" y="148" on="0"/>
        <pt x="476" y="129" on="0"/>
        <pt x="492" y="106" on="0"/>
        <pt x="505" y="81" on="0"/>
        <pt x="508" y="70" on="1"/>
        <pt x="413" y="-14" on="0"/>
        <pt x="279" y="-14" on="1"/>
        <pt x="213" y="-14" on="0"/>
        <pt x="121" y="33" on="0"/>
        <pt x="63" y="112" on="0"/>
        <pt x="36" y="215" on="0"/>
        <pt x="36" y="272" on="1"/>
        <pt x="36" y="344" on="0"/>
        <pt x="75" y="453" on="0"/>
        <pt x="144" y="526" on="0"/>
        <pt x="237" y="562" on="0"/>
        <pt x="291" y="562" on="1"/>
        <pt x="345" y="562" on="0"/>
        <pt x="430" y="534" on="0"/>
        <pt x="485" y="483" on="0"/>
        <pt x="515" y="419" on="0"/>
        <pt x="515" y="383" on="1"/>
        <pt x="515" y="312" on="0"/>
        <pt x="436" y="312" on="1"/>
        <pt x="429" y="312" on="0"/>
        <pt x="406" y="314" on="0"/>
      </contour>
    </TTGlyph>
    <TTGlyph name="cacute" xMin="37" yMin="-14" xMax="442" yMax="755">
      <component glyphName="c" x="0" y="0" flags="0x204"/>
      <component glyphName="acute" x="54" y="0" flags="0x4"/>
    </TTGlyph>
    <TTGlyph name="cacute.smcp" xMin="36" yMin="-14" xMax="515" yMax="807">
      <component glyphName="c.smcp" x="0" y="0" flags="0x204"/>
      <component glyphName="acute" x="96" y="52" flags="0x4"/>
    </TTGlyph>
    <TTGlyph name="caron" xMin="45" yMin="552" xMax="355" yMax="747">
      <contour>
        <pt x="104" y="740" on="1"/>
        <pt x="196" y="651" on="1"/>
        <pt x="296" y="747" on="1"/>
        <pt x="336" y="732" on="0"/>
        <pt x="355" y="695" on="1"/>
        <pt x="248" y="559" on="1"/>
        <pt x="225" y="552" on="0"/>
        <pt x="163" y="553" on="0"/>
        <pt x="140" y="559" on="1"/>
        <pt x="45" y="685" on="1"/>
        <pt x="53" y="704" on="0"/>
        <pt x="88" y="734" on="0"/>
      </contour>
    </TTGlyph>
    <TTGlyph name="caron.alt" xMin="195" yMin="554" xMax="320" yMax="797">
      <contour>
        <pt x="195" y="565" on="1"/>
        <pt x="207" y="790" on="1"/>
        <pt x="231" y="797" on="0"/>
        <pt x="301" y="787" on="0"/>
        <pt x="320" y="773" on="1"/>
        <pt x="270" y="560" on="1"/>
        <pt x="253" y="554" on="0"/>
        <pt x="208" y="557" on="0"/>
      </contour>
    </TTGlyph>
    <TTGlyph name="caron.cap" xMin="26" yMin="731" xMax="369" yMax="916">
      <contour>
        <pt x="80" y="906" on="1"/>
        <pt x="195" y="832" on="1"/>
        <pt x="313" y="916" on="1"/>
        <pt x="329" y="910" on="0"/>
        <pt x="364" y="879" on="0"/>
        <pt x="369" y="862" on="1"/>
        <pt x="251" y="744" on="1"/>
        <pt x="201" y="731" on="0"/>
        <pt x="139" y="743" on="1"/>
        <pt x="26" y="851" on="1"/>
        <pt x="32" y="870" on="0"/>
        <pt x="65" y="901" on="0"/>
      </contour>
    </TTGlyph>
    <TTGlyph name="ccaron" xMin="37" yMin="-14" xMax="442" yMax="747">
      <component glyphName="c" x="0" y="0" flags="0x204"/>
      <component glyphName="caron" x="53" y="0" flags="0x4"/>
    </TTGlyph>
    <TTGlyph name="ccaron.smcp" xMin="36" yMin="-14" xMax="515" yMax="799">
      <component glyphName="c.smcp" x="0" y="0" flags="0x204"/>
      <component glyphName="caron" x="94" y="52" flags="0x4"/>
    </TTGlyph>
    <TTGlyph name="ccedilla" xMin="37" yMin="-228" xMax="442" yMax="510">
      <contour>
        <pt x="190" y="-76" on="1"/>
        <pt x="201" y="-34" on="0"/>
        <pt x="211" y="-11" on="1"/>
        <pt x="125" y="2" on="0"/>
        <pt x="37" y="141" on="0"/>
        <pt x="37" y="246" on="1"/>
        <pt x="37" y="314" on="0"/>
        <pt x="72" y="414" on="0"/>
        <pt x="132" y="479" on="0"/>
        <pt x="209" y="510" on="0"/>
        <pt x="251" y="510" on="1"/>
        <pt x="295" y="510" on="0"/>
        <pt x="366" y="485" on="0"/>
        <pt x="415" y="442" on="0"/>
        <pt x="442" y="384" on="0"/>
        <pt x="442" y="352" on="1"/>
        <pt x="442" y="320" on="0"/>
        <pt x="409" y="285" on="0"/>
        <pt x="376" y="285" on="1"/>
        <pt x="359" y="285" on="0"/>
        <pt x="324" y="290" on="1"/>
        <pt x="324" y="353" on="0"/>
        <pt x="293" y="412" on="0"/>
        <pt x="251" y="412" on="1"/>
        <pt x="171" y="412" on="0"/>
        <pt x="171" y="246" on="1"/>
        <pt x="171" y="164" on="0"/>
        <pt x="217" y="90" on="0"/>
        <pt x="268" y="90" on="1"/>
        <pt x="294" y="90" on="0"/>
        <pt x="354" y="112" on="0"/>
        <pt x="386" y="136" on="1"/>
        <pt x="402" y="126" on="0"/>
        <pt x="433" y="81" on="0"/>
        <pt x="437" y="61" on="1"/>
        <pt x="376" y="0" on="0"/>
        <pt x="283" y="-12" on="1"/>
        <pt x="276" y="-24" on="0"/>
        <pt x="273" y="-34" on="1"/>
        <pt x="318" y="-37" on="0"/>
        <pt x="370" y="-85" on="0"/>
        <pt x="370" y="-127" on="1"/>
        <pt x="370" y="-148" on="0"/>
        <pt x="350" y="-184" on="0"/>
        <pt x="315" y="-212" on="0"/>
        <pt x="269" y="-228" on="0"/>
        <pt x="243" y="-228" on="1"/>
        <pt x="189" y="-228" on="0"/>
        <pt x="158" y="-206" on="1"/>
        <pt x="159" y="-172" on="0"/>
        <pt x="181" y="-146" on="1"/>
        <pt x="203" y="-159" on="0"/>
        <pt x="229" y="-159" on="1"/>
        <pt x="269" y="-159" on="0"/>
        <pt x="269" y="-126" on="1"/>
        <pt x="269" y="-107" on="0"/>
        <pt x="246" y="-93" on="0"/>
        <pt x="232" y="-93" on="1"/>
        <pt x="220" y="-93" on="0"/>
        <pt x="210" y="-96" on="1"/>
        <pt x="197" y="-89" on="0"/>
      </contour>
    </TTGlyph>
    <TTGlyph name="ccedilla.smcp" xMin="36" yMin="-228" xMax="515" yMax="562">
      <contour>
        <pt x="230" y="-76" on="1"/>
        <pt x="234" y="-60" on="0"/>
        <pt x="243" y="-29" on="0"/>
        <pt x="250" y="-13" on="1"/>
        <pt x="192" y="-8" on="0"/>
        <pt x="110" y="43" on="0"/>
        <pt x="59" y="120" on="0"/>
        <pt x="36" y="219" on="0"/>
        <pt x="36" y="272" on="1"/>
        <pt x="36" y="344" on="0"/>
        <pt x="75" y="453" on="0"/>
        <pt x="144" y="526" on="0"/>
        <pt x="237" y="562" on="0"/>
        <pt x="291" y="562" on="1"/>
        <pt x="345" y="562" on="0"/>
        <pt x="430" y="534" on="0"/>
        <pt x="485" y="483" on="0"/>
        <pt x="515" y="419" on="0"/>
        <pt x="515" y="383" on="1"/>
        <pt x="515" y="312" on="0"/>
        <pt x="436" y="312" on="1"/>
        <pt x="429" y="312" on="0"/>
        <pt x="406" y="314" on="0"/>
        <pt x="390" y="316" on="1"/>
        <pt x="390" y="458" on="0"/>
        <pt x="289" y="458" on="1"/>
        <pt x="172" y="458" on="0"/>
        <pt x="172" y="271" on="1"/>
        <pt x="172" y="180" on="0"/>
        <pt x="241" y="96" on="0"/>
        <pt x="301" y="96" on="1"/>
        <pt x="333" y="96" on="0"/>
        <pt x="407" y="124" on="0"/>
        <pt x="446" y="154" on="1"/>
        <pt x="456" y="148" on="0"/>
        <pt x="476" y="129" on="0"/>
        <pt x="492" y="106" on="0"/>
        <pt x="505" y="81" on="0"/>
        <pt x="508" y="70" on="1"/>
        <pt x="432" y="3" on="0"/>
        <pt x="323" y="-11" on="1"/>
        <pt x="319" y="-19" on="0"/>
        <pt x="314" y="-30" on="0"/>
        <pt x="313" y="-34" on="1"/>
        <pt x="358" y="-37" on="0"/>
        <pt x="410" y="-85" on="0"/>
        <pt x="410" y="-127" on="1"/>
        <pt x="410" y="-148" on="0"/>
        <pt x="390" y="-184" on="0"/>
        <pt x="355" y="-212" on="0"/>
        <pt x="309" y="-228" on="0"/>
        <pt x="283" y="-228" on="1"/>
        <pt x="229" y="-228" on="0"/>
        <pt x="198" y="-206" on="1"/>
        <pt x="199" y="-169" on="0"/>
        <pt x="221" y="-146" on="1"/>
        <pt x="243" y="-159" on="0"/>
        <pt x="269" y="-159" on="1"/>
        <pt x="309" y="-159" on="0"/>
        <pt x="309" y="-126" on="1"/>
        <pt x="309" y="-107" on="0"/>
        <pt x="286" y="-93" on="0"/>
        <pt x="272" y="-93" on="1"/>
        <pt x="260" y="-93" on="0"/>
        <pt x="250" y="-96" on="1"/>
        <pt x="235" y="-88" on="0"/>
      </contour>
    </TTGlyph>
    <TTGlyph name="cedilla" xMin="107" yMin="-228" xMax="320" yMax="0">
      <contour>
        <pt x="140" y="-76" on="1"/>
        <pt x="145" y="-56" on="0"/>
        <pt x="158" y="-19" on="0"/>
        <pt x="166" y="0" on="1"/>
        <pt x="239" y="0" on="1"/>
        <pt x="234" y="-10" on="0"/>
        <pt x="225" y="-26" on="0"/>
        <pt x="223" y="-34" on="1"/>
        <pt x="268" y="-37" on="0"/>
        <pt x="320" y="-85" on="0"/>
        <pt x="320" y="-127" on="1"/>
        <pt x="320" y="-148" on="0"/>
        <pt x="300" y="-184" on="0"/>
        <pt x="265" y="-212" on="0"/>
        <pt x="219" y="-228" on="0"/>
        <pt x="193" y="-228" on="1"/>
        <pt x="139" y="-228" on="0"/>
        <pt x="107" y="-206" on="1"/>
        <pt x="108" y="-170" on="0"/>
        <pt x="131" y="-146" on="1"/>
        <pt x="150" y="-159" on="0"/>
        <pt x="179" y="-159" on="1"/>
        <pt x="219" y="-159" on="0"/>
        <pt x="219" y="-126" on="1"/>
        <pt x="219" y="-108" on="0"/>
        <pt x="195" y="-93" on="0"/>
        <pt x="181" y="-93" on="1"/>
        <pt x="169" y="-93" on="0"/>
        <pt x="160" y="-96" on="1"/>
        <pt x="145" y="-88" on="0"/>
      </contour>
    </TTGlyph>
    <TTGlyph name="cent" xMin="33" yMin="-35" xMax="435" yMax="686">
      <contour>
        <pt x="195" y="-32" on="1"/>
        <pt x="195" y="67" on="1"/>
        <pt x="152" y="76" on="0"/>
        <pt x="90" y="121" on="0"/>
        <pt x="51" y="190" on="0"/>
        <pt x="33" y="279" on="0"/>
        <pt x="33" y="331" on="1"/>
        <pt x="33" y="437" on="0"/>
        <pt x="125" y="565" on="0"/>
        <pt x="198" y="582" on="1"/>
        <pt x="198" y="681" on="1"/>
        <pt x="215" y="686" on="0"/>
        <pt x="246" y="686" on="1"/>
        <pt x="277" y="686" on="0"/>
        <pt x="295" y="681" on="1"/>
        <pt x="295" y="584" on="1"/>
        <pt x="327" y="578" on="0"/>
        <pt x="379" y="549" on="0"/>
        <pt x="415" y="509" on="0"/>
        <pt x="435" y="461" on="0"/>
        <pt x="435" y="435" on="1"/>
        <pt x="435" y="362" on="0"/>
        <pt x="365" y="362" on="1"/>
        <pt x="344" y="363" on="0"/>
        <pt x="328" y="365" on="0"/>
        <pt x="317" y="371" on="1"/>
        <pt x="317" y="489" on="0"/>
        <pt x="243" y="489" on="1"/>
        <pt x="168" y="489" on="0"/>
        <pt x="168" y="328" on="1"/>
        <pt x="168" y="168" on="0"/>
        <pt x="267" y="168" on="1"/>
        <pt x="319" y="168" on="0"/>
        <pt x="380" y="214" on="1"/>
        <pt x="396" y="203" on="0"/>
        <pt x="427" y="161" on="0"/>
        <pt x="431" y="142" on="1"/>
        <pt x="382" y="84" on="0"/>
        <pt x="292" y="66" on="1"/>
        <pt x="292" y="-32" on="1"/>
        <pt x="278" y="-35" on="0"/>
        <pt x="243" y="-35" on="1"/>
        <pt x="207" y="-35" on="0"/>
      </contour>
    </TTGlyph>
    <TTGlyph name="cent.smcp" xMin="29" yMin="-34" xMax="393" yMax="585">
      <contour>
        <pt x="172" y="-30" on="1"/>
        <pt x="172" y="48" on="1"/>
        <pt x="120" y="60" on="0"/>
        <pt x="53" y="133" on="0"/>
        <pt x="29" y="221" on="0"/>
        <pt x="29" y="273" on="1"/>
        <pt x="29" y="371" on="0"/>
        <pt x="111" y="485" on="0"/>
        <pt x="175" y="500" on="1"/>
        <pt x="175" y="582" on="1"/>
        <pt x="193" y="585" on="0"/>
        <pt x="247" y="585" on="0"/>
        <pt x="268" y="582" on="1"/>
        <pt x="268" y="502" on="1"/>
        <pt x="326" y="491" on="0"/>
        <pt x="393" y="417" on="0"/>
        <pt x="393" y="364" on="1"/>
        <pt x="393" y="294" on="0"/>
        <pt x="325" y="294" on="1"/>
        <pt x="298" y="294" on="0"/>
        <pt x="279" y="300" on="1"/>
        <pt x="279" y="355" on="0"/>
        <pt x="253" y="408" on="0"/>
        <pt x="219" y="408" on="1"/>
        <pt x="154" y="408" on="0"/>
        <pt x="154" y="269" on="1"/>
        <pt x="154" y="143" on="0"/>
        <pt x="241" y="143" on="1"/>
        <pt x="288" y="143" on="0"/>
        <pt x="342" y="177" on="1"/>
        <pt x="379" y="152" on="0"/>
        <pt x="391" y="107" on="1"/>
        <pt x="342" y="60" on="0"/>
        <pt x="266" y="47" on="1"/>
        <pt x="266" y="-30" on="1"/>
        <pt x="252" y="-34" on="0"/>
        <pt x="188" y="-34" on="0"/>
      </contour>
    </TTGlyph>
    <TTGlyph name="circumflex" xMin="45" yMin="543" xMax="353" yMax="745">
      <contour>
        <pt x="295" y="549" on="1"/>
        <pt x="202" y="638" on="1"/>
        <pt x="104" y="543" on="1"/>
        <pt x="66" y="557" on="0"/>
        <pt x="45" y="594" on="1"/>
        <pt x="150" y="729" on="1"/>
        <pt x="198" y="745" on="0"/>
        <pt x="259" y="729" on="1"/>
        <pt x="353" y="604" on="1"/>
        <pt x="345" y="585" on="0"/>
        <pt x="311" y="554" on="0"/>
      </contour>
    </TTGlyph>
    <TTGlyph name="circumflex.cap" xMin="25" yMin="726" xMax="366" yMax="911">
      <contour>
        <pt x="313" y="736" on="1"/>
        <pt x="198" y="810" on="1"/>
        <pt x="80" y="726" on="1"/>
        <pt x="64" y="732" on="0"/>
        <pt x="30" y="764" on="0"/>
        <pt x="25" y="782" on="1"/>
        <pt x="142" y="899" on="1"/>
        <pt x="199" y="911" on="0"/>
        <pt x="253" y="899" on="1"/>
        <pt x="366" y="791" on="1"/>
        <pt x="360" y="772" on="0"/>
        <pt x="329" y="742" on="0"/>
      </contour>
    </TTGlyph>
    <TTGlyph name="colon" xMin="60" yMin="-10" xMax="221" yMax="452">
      <contour>
        <pt x="70" y="6" on="1"/>
        <pt x="65" y="17" on="0"/>
        <pt x="60" y="46" on="0"/>
        <pt x="60" y="61" on="1"/>
        <pt x="60" y="77" on="0"/>
        <pt x="65" y="106" on="0"/>
        <pt x="70" y="117" on="1"/>
        <pt x="102" y="133" on="0"/>
        <pt x="140" y="133" on="1"/>
        <pt x="179" y="133" on="0"/>
        <pt x="211" y="117" on="1"/>
        <pt x="221" y="94" on="0"/>
        <pt x="221" y="61" on="1"/>
        <pt x="221" y="29" on="0"/>
        <pt x="211" y="6" on="1"/>
        <pt x="186" y="-10" on="0"/>
        <pt x="141" y="-10" on="1"/>
        <pt x="96" y="-10" on="0"/>
      </contour>
      <contour>
        <pt x="70" y="325" on="1"/>
        <pt x="65" y="336" on="0"/>
        <pt x="60" y="365" on="0"/>
        <pt x="60" y="380" on="1"/>
        <pt x="60" y="396" on="0"/>
        <pt x="65" y="425" on="0"/>
        <pt x="70" y="436" on="1"/>
        <pt x="102" y="452" on="0"/>
        <pt x="140" y="452" on="1"/>
        <pt x="179" y="452" on="0"/>
        <pt x="211" y="436" on="1"/>
        <pt x="221" y="413" on="0"/>
        <pt x="221" y="380" on="1"/>
        <pt x="221" y="348" on="0"/>
        <pt x="211" y="325" on="1"/>
        <pt x="186" y="309" on="0"/>
        <pt x="141" y="309" on="1"/>
        <pt x="96" y="309" on="0"/>
      </contour>
    </TTGlyph>
    <TTGlyph name="comma" xMin="26" yMin="-171" xMax="223" yMax="132">
      <contour>
        <pt x="211" y="116" on="1"/>
        <pt x="223" y="87" on="0"/>
        <pt x="223" y="43" on="1"/>
        <pt x="223" y="8" on="0"/>
        <pt x="201" y="-58" on="0"/>
        <pt x="160" y="-115" on="0"/>
        <pt x="99" y="-159" on="0"/>
        <pt x="60" y="-171" on="1"/>
        <pt x="44" y="-163" on="0"/>
        <pt x="26" y="-133" on="0"/>
        <pt x="27" y="-109" on="1"/>
        <pt x="63" y="-95" on="0"/>
        <pt x="112" y="-42" on="0"/>
        <pt x="116" y="-8" on="1"/>
        <pt x="80" y="-3" on="0"/>
        <pt x="63" y="27" on="0"/>
        <pt x="63" y="62" on="1"/>
        <pt x="63" y="87" on="0"/>
        <pt x="71" y="111" on="0"/>
        <pt x="85" y="124" on="0"/>
        <pt x="127" y="132" on="0"/>
        <pt x="145" y="132" on="1"/>
        <pt x="189" y="132" on="0"/>
      </contour>
    </TTGlyph>
    <TTGlyph name="commaaccent" xMin="94" yMin="-278" xMax="274" yMax="-49">
      <contour>
        <pt x="263" y="-59" on="1"/>
        <pt x="274" y="-83" on="0"/>
        <pt x="274" y="-115" on="1"/>
        <pt x="274" y="-170" on="0"/>
        <pt x="200" y="-256" on="0"/>
        <pt x="135" y="-278" on="1"/>
        <pt x="103" y="-267" on="0"/>
        <pt x="94" y="-224" on="1"/>
        <pt x="157" y="-185" on="0"/>
        <pt x="157" y="-126" on="1"/>
        <pt x="157" y="-96" on="0"/>
        <pt x="144" y="-73" on="1"/>
        <pt x="167" y="-57" on="0"/>
        <pt x="235" y="-49" on="0"/>
      </contour>
    </TTGlyph>
    <TTGlyph name="commaaccent.cap" xMin="94" yMin="-278" xMax="274" yMax="-49">
      <contour>
        <pt x="263" y="-59" on="1"/>
        <pt x="274" y="-83" on="0"/>
        <pt x="274" y="-115" on="1"/>
        <pt x="274" y="-170" on="0"/>
        <pt x="200" y="-256" on="0"/>
        <pt x="135" y="-278" on="1"/>
        <pt x="103" y="-267" on="0"/>
        <pt x="94" y="-224" on="1"/>
        <pt x="157" y="-185" on="0"/>
        <pt x="157" y="-126" on="1"/>
        <pt x="157" y="-96" on="0"/>
        <pt x="144" y="-73" on="1"/>
        <pt x="167" y="-57" on="0"/>
        <pt x="235" y="-49" on="0"/>
      </contour>
    </TTGlyph>
    <TTGlyph name="copyright" xMin="36" yMin="-21" xMax="760" yMax="704">
      <contour>
        <pt x="140" y="83" on="1"/>
        <pt x="36" y="189" on="0"/>
        <pt x="36" y="341" on="1"/>
        <pt x="36" y="417" on="0"/>
        <pt x="92" y="549" on="0"/>
        <pt x="189" y="647" on="0"/>
        <pt x="321" y="704" on="0"/>
        <pt x="397" y="704" on="1"/>
        <pt x="473" y="704" on="0"/>
        <pt x="606" y="648" on="0"/>
        <pt x="704" y="550" on="0"/>
        <pt x="760" y="417" on="0"/>
        <pt x="760" y="341" on="1"/>
        <pt x="760" y="265" on="0"/>
        <pt x="704" y="133" on="0"/>
        <pt x="606" y="35" on="0"/>
        <pt x="473" y="-21" on="0"/>
        <pt x="397" y="-21" on="1"/>
        <pt x="244" y="-21" on="0"/>
      </contour>
      <contour>
        <pt x="211" y="535" on="1"/>
        <pt x="138" y="456" on="0"/>
        <pt x="138" y="341" on="1"/>
        <pt x="138" y="284" on="0"/>
        <pt x="177" y="184" on="0"/>
        <pt x="246" y="111" on="0"/>
        <pt x="341" y="68" on="0"/>
        <pt x="397" y="68" on="1"/>
        <pt x="453" y="68" on="0"/>
        <pt x="549" y="111" on="0"/>
        <pt x="619" y="184" on="0"/>
        <pt x="658" y="284" on="0"/>
        <pt x="658" y="341" on="1"/>
        <pt x="658" y="398" on="0"/>
        <pt x="619" y="497" on="0"/>
        <pt x="549" y="572" on="0"/>
        <pt x="453" y="615" on="0"/>
        <pt x="397" y="615" on="1"/>
        <pt x="285" y="615" on="0"/>
      </contour>
      <contour>
        <pt x="454" y="372" on="1"/>
        <pt x="454" y="382" on="1"/>
        <pt x="454" y="415" on="0"/>
        <pt x="426" y="461" on="0"/>
        <pt x="396" y="461" on="1"/>
        <pt x="330" y="461" on="0"/>
        <pt x="330" y="344" on="1"/>
        <pt x="330" y="227" on="0"/>
        <pt x="415" y="227" on="1"/>
        <pt x="453" y="227" on="0"/>
        <pt x="504" y="263" on="1"/>
        <pt x="517" y="255" on="0"/>
        <pt x="540" y="220" on="0"/>
        <pt x="543" y="204" on="1"/>
        <pt x="519" y="179" on="0"/>
        <pt x="437" y="146" on="0"/>
        <pt x="398" y="146" on="1"/>
        <pt x="353" y="146" on="0"/>
        <pt x="288" y="175" on="0"/>
        <pt x="245" y="229" on="0"/>
        <pt x="225" y="303" on="0"/>
        <pt x="225" y="348" on="1"/>
        <pt x="225" y="394" on="0"/>
        <pt x="254" y="465" on="0"/>
        <pt x="302" y="513" on="0"/>
        <pt x="364" y="538" on="0"/>
        <pt x="397" y="538" on="1"/>
        <pt x="431" y="538" on="0"/>
        <pt x="488" y="519" on="0"/>
        <pt x="527" y="487" on="0"/>
        <pt x="549" y="444" on="0"/>
        <pt x="549" y="420" on="1"/>
        <pt x="549" y="366" on="0"/>
        <pt x="493" y="366" on="1"/>
        <pt x="469" y="366" on="0"/>
      </contour>
    </TTGlyph>
    <TTGlyph name="currency" xMin="27" yMin="69" xMax="556" yMax="599">
      <contour>
        <pt x="97" y="215" on="1"/>
        <pt x="65" y="265" on="0"/>
        <pt x="65" y="333" on="1"/>
        <pt x="65" y="402" on="0"/>
        <pt x="97" y="452" on="1"/>
        <pt x="27" y="529" on="1"/>
        <pt x="48" y="568" on="0"/>
        <pt x="95" y="597" on="1"/>
        <pt x="174" y="525" on="1"/>
        <pt x="200" y="539" on="0"/>
        <pt x="259" y="552" on="0"/>
        <pt x="290" y="552" on="1"/>
        <pt x="353" y="552" on="0"/>
        <pt x="406" y="525" on="1"/>
        <pt x="488" y="599" on="1"/>
        <pt x="530" y="573" on="0"/>
        <pt x="556" y="531" on="1"/>
        <pt x="485" y="451" on="1"/>
        <pt x="516" y="401" on="0"/>
        <pt x="516" y="333" on="1"/>
        <pt x="516" y="267" on="0"/>
        <pt x="483" y="215" on="1"/>
        <pt x="554" y="137" on="1"/>
        <pt x="530" y="96" on="0"/>
        <pt x="486" y="69" on="1"/>
        <pt x="405" y="142" on="1"/>
        <pt x="355" y="116" on="0"/>
        <pt x="290" y="116" on="1"/>
        <pt x="226" y="116" on="0"/>
        <pt x="176" y="142" on="1"/>
        <pt x="95" y="70" on="1"/>
        <pt x="53" y="94" on="0"/>
        <pt x="27" y="138" on="1"/>
      </contour>
      <contour>
        <pt x="291" y="455" on="1"/>
        <pt x="243" y="455" on="0"/>
        <pt x="195" y="388" on="0"/>
        <pt x="195" y="334" on="1"/>
        <pt x="195" y="282" on="0"/>
        <pt x="243" y="213" on="0"/>
        <pt x="291" y="213" on="1"/>
        <pt x="339" y="213" on="0"/>
        <pt x="387" y="280" on="0"/>
        <pt x="387" y="334" on="1"/>
        <pt x="387" y="388" on="0"/>
        <pt x="339" y="455" on="0"/>
      </contour>
    </TTGlyph>
    <TTGlyph name="currency.smcp" xMin="12" yMin="39" xMax="463" yMax="493">
      <contour>
        <pt x="69" y="172" on="1"/>
        <pt x="57" y="192" on="0"/>
        <pt x="46" y="241" on="0"/>
        <pt x="46" y="266" on="1"/>
        <pt x="46" y="291" on="0"/>
        <pt x="57" y="339" on="0"/>
        <pt x="69" y="360" on="1"/>
        <pt x="12" y="424" on="1"/>
        <pt x="33" y="463" on="0"/>
        <pt x="80" y="490" on="1"/>
        <pt x="146" y="430" on="1"/>
        <pt x="187" y="449" on="0"/>
        <pt x="236" y="449" on="1"/>
        <pt x="283" y="449" on="0"/>
        <pt x="325" y="431" on="1"/>
        <pt x="395" y="493" on="1"/>
        <pt x="432" y="471" on="0"/>
        <pt x="463" y="426" on="1"/>
        <pt x="404" y="359" on="1"/>
        <pt x="427" y="319" on="0"/>
        <pt x="427" y="267" on="1"/>
        <pt x="427" y="242" on="0"/>
        <pt x="415" y="193" on="0"/>
        <pt x="403" y="171" on="1"/>
        <pt x="460" y="107" on="1"/>
        <pt x="436" y="66" on="0"/>
        <pt x="392" y="39" on="1"/>
        <pt x="324" y="101" on="1"/>
        <pt x="305" y="92" on="0"/>
        <pt x="260" y="84" on="0"/>
        <pt x="237" y="84" on="1"/>
        <pt x="214" y="84" on="0"/>
        <pt x="169" y="92" on="0"/>
        <pt x="149" y="101" on="1"/>
        <pt x="80" y="41" on="1"/>
        <pt x="61" y="51" on="0"/>
        <pt x="28" y="85" on="0"/>
        <pt x="12" y="108" on="1"/>
      </contour>
      <contour>
        <pt x="236" y="360" on="1"/>
        <pt x="202" y="360" on="0"/>
        <pt x="167" y="309" on="0"/>
        <pt x="167" y="267" on="1"/>
        <pt x="167" y="227" on="0"/>
        <pt x="202" y="174" on="0"/>
        <pt x="236" y="174" on="1"/>
        <pt x="271" y="174" on="0"/>
        <pt x="307" y="226" on="0"/>
        <pt x="307" y="266" on="1"/>
        <pt x="307" y="308" on="0"/>
        <pt x="270" y="360" on="0"/>
      </contour>
    </TTGlyph>
    <TTGlyph name="d" xMin="38" yMin="-14" xMax="492" yMax="736">
      <contour>
        <pt x="234" y="506" on="1"/>
        <pt x="282" y="506" on="0"/>
        <pt x="336" y="479" on="1"/>
        <pt x="336" y="729" on="1"/>
        <pt x="343" y="736" on="1"/>
        <pt x="393" y="736" on="1"/>
        <pt x="432" y="736" on="0"/>
        <pt x="464" y="700" on="0"/>
        <pt x="464" y="655" on="1"/>
        <pt x="464" y="143" on="1"/>
        <pt x="464" y="82" on="0"/>
        <pt x="492" y="60" on="1"/>
        <pt x="488" y="42" on="0"/>
        <pt x="463" y="2" on="0"/>
        <pt x="449" y="-8" on="1"/>
        <pt x="384" y="-2" on="0"/>
        <pt x="355" y="51" on="1"/>
        <pt x="296" y="-14" on="0"/>
        <pt x="212" y="-14" on="1"/>
        <pt x="169" y="-14" on="0"/>
        <pt x="104" y="23" on="0"/>
        <pt x="60" y="90" on="0"/>
        <pt x="38" y="186" on="0"/>
        <pt x="38" y="246" on="1"/>
        <pt x="38" y="307" on="0"/>
        <pt x="69" y="403" on="0"/>
        <pt x="122" y="470" on="0"/>
        <pt x="193" y="506" on="0"/>
      </contour>
      <contour>
        <pt x="246" y="93" on="1"/>
        <pt x="298" y="93" on="0"/>
        <pt x="336" y="143" on="1"/>
        <pt x="336" y="377" on="1"/>
        <pt x="314" y="391" on="0"/>
        <pt x="274" y="406" on="0"/>
        <pt x="257" y="406" on="1"/>
        <pt x="218" y="406" on="0"/>
        <pt x="171" y="324" on="0"/>
        <pt x="171" y="244" on="1"/>
        <pt x="171" y="166" on="0"/>
        <pt x="213" y="93" on="0"/>
      </contour>
    </TTGlyph>
    <TTGlyph name="d.smcp" xMin="78" yMin="-4" xMax="558" yMax="553">
      <contour>
        <pt x="83" y="-1" on="1"/>
        <pt x="78" y="5" on="1"/>
        <pt x="78" y="543" on="1"/>
        <pt x="83" y="549" on="1"/>
        <pt x="161" y="551" on="0"/>
        <pt x="263" y="553" on="0"/>
        <pt x="287" y="553" on="1"/>
        <pt x="367" y="553" on="0"/>
        <pt x="472" y="509" on="0"/>
        <pt x="534" y="433" on="0"/>
        <pt x="558" y="331" on="0"/>
        <pt x="558" y="273" on="1"/>
        <pt x="558" y="218" on="0"/>
        <pt x="537" y="118" on="0"/>
        <pt x="480" y="43" on="0"/>
        <pt x="380" y="-4" on="0"/>
        <pt x="301" y="-4" on="1"/>
        <pt x="200" y="-4" on="0"/>
      </contour>
      <contour>
        <pt x="209" y="98" on="1"/>
        <pt x="293" y="99" on="1"/>
        <pt x="359" y="100" on="0"/>
        <pt x="423" y="185" on="0"/>
        <pt x="423" y="274" on="1"/>
        <pt x="423" y="450" on="0"/>
        <pt x="293" y="450" on="1"/>
        <pt x="266" y="450" on="0"/>
        <pt x="224" y="450" on="0"/>
        <pt x="209" y="451" on="1"/>
      </contour>
    </TTGlyph>
    <TTGlyph name="dcaron" xMin="38" yMin="-14" xMax="648" yMax="797">
      <component glyphName="d" x="0" y="0" flags="0x4"/>
      <component glyphName="caron.alt" x="328" y="0" flags="0x4"/>
    </TTGlyph>
    <TTGlyph name="dcaron.smcp" xMin="78" yMin="-4" xMax="558" yMax="799">
      <component glyphName="d.smcp" x="0" y="0" flags="0x204"/>
      <component glyphName="caron" x="86" y="52" flags="0x4"/>
    </TTGlyph>
    <TTGlyph name="degree" xMin="16" yMin="365" xMax="323" yMax="673">
      <contour>
        <pt x="59" y="408" on="1"/>
        <pt x="16" y="451" on="0"/>
        <pt x="16" y="519" on="1"/>
        <pt x="16" y="552" on="0"/>
        <pt x="39" y="609" on="0"/>
        <pt x="80" y="650" on="0"/>
        <pt x="136" y="673" on="0"/>
        <pt x="169" y="673" on="1"/>
        <pt x="202" y="673" on="0"/>
        <pt x="258" y="650" on="0"/>
        <pt x="300" y="608" on="0"/>
        <pt x="323" y="552" on="0"/>
        <pt x="323" y="519" on="1"/>
        <pt x="323" y="486" on="0"/>
        <pt x="300" y="429" on="0"/>
        <pt x="259" y="388" on="0"/>
        <pt x="202" y="365" on="0"/>
        <pt x="169" y="365" on="1"/>
        <pt x="102" y="365" on="0"/>
      </contour>
      <contour>
        <pt x="126" y="570" on="1"/>
        <pt x="118" y="560" on="0"/>
        <pt x="110" y="533" on="0"/>
        <pt x="110" y="519" on="1"/>
        <pt x="110" y="488" on="0"/>
        <pt x="141" y="449" on="0"/>
        <pt x="169" y="449" on="1"/>
        <pt x="196" y="449" on="0"/>
        <pt x="228" y="488" on="0"/>
        <pt x="228" y="519" on="1"/>
        <pt x="228" y="550" on="0"/>
        <pt x="196" y="589" on="0"/>
        <pt x="169" y="589" on="1"/>
        <pt x="157" y="589" on="0"/>
        <pt x="134" y="579" on="0"/>
      </contour>
    </TTGlyph>
    <TTGlyph name="dieresis" xMin="37" yMin="559" xMax="361" yMax="677">
      <contour>
        <pt x="239" y="663" on="1"/>
        <pt x="262" y="677" on="0"/>
        <pt x="296" y="677" on="1"/>
        <pt x="328" y="677" on="0"/>
        <pt x="353" y="663" on="1"/>
        <pt x="361" y="641" on="0"/>
        <pt x="361" y="617" on="1"/>
        <pt x="361" y="598" on="0"/>
        <pt x="354" y="572" on="0"/>
        <pt x="336" y="563" on="0"/>
        <pt x="311" y="559" on="0"/>
        <pt x="296" y="559" on="1"/>
        <pt x="280" y="559" on="0"/>
        <pt x="250" y="565" on="0"/>
        <pt x="239" y="573" on="1"/>
        <pt x="234" y="583" on="0"/>
        <pt x="231" y="606" on="0"/>
        <pt x="231" y="618" on="1"/>
        <pt x="231" y="644" on="0"/>
      </contour>
      <contour>
        <pt x="45" y="663" on="1"/>
        <pt x="68" y="677" on="0"/>
        <pt x="102" y="677" on="1"/>
        <pt x="134" y="677" on="0"/>
        <pt x="159" y="663" on="1"/>
        <pt x="167" y="641" on="0"/>
        <pt x="167" y="617" on="1"/>
        <pt x="167" y="598" on="0"/>
        <pt x="160" y="572" on="0"/>
        <pt x="142" y="563" on="0"/>
        <pt x="117" y="559" on="0"/>
        <pt x="102" y="559" on="1"/>
        <pt x="86" y="559" on="0"/>
        <pt x="56" y="565" on="0"/>
        <pt x="45" y="573" on="1"/>
        <pt x="40" y="583" on="0"/>
        <pt x="37" y="606" on="0"/>
        <pt x="37" y="618" on="1"/>
        <pt x="37" y="644" on="0"/>
      </contour>
    </TTGlyph>
    <TTGlyph name="dieresis.cap" xMin="22" yMin="736" xMax="376" yMax="856">
      <contour>
        <pt x="365" y="842" on="1"/>
        <pt x="376" y="825" on="0"/>
        <pt x="376" y="795" on="1"/>
        <pt x="376" y="775" on="0"/>
        <pt x="367" y="749" on="0"/>
        <pt x="347" y="741" on="0"/>
        <pt x="324" y="736" on="0"/>
        <pt x="311" y="736" on="1"/>
        <pt x="299" y="736" on="0"/>
        <pt x="274" y="741" on="0"/>
        <pt x="252" y="750" on="0"/>
        <pt x="242" y="775" on="0"/>
        <pt x="242" y="796" on="1"/>
        <pt x="242" y="816" on="0"/>
        <pt x="252" y="843" on="0"/>
        <pt x="274" y="851" on="0"/>
        <pt x="299" y="856" on="0"/>
        <pt x="311" y="856" on="1"/>
        <pt x="340" y="856" on="0"/>
      </contour>
      <contour>
        <pt x="33" y="842" on="1"/>
        <pt x="55" y="856" on="0"/>
        <pt x="86" y="856" on="1"/>
        <pt x="98" y="856" on="0"/>
        <pt x="122" y="851" on="0"/>
        <pt x="145" y="844" on="0"/>
        <pt x="154" y="818" on="0"/>
        <pt x="154" y="796" on="1"/>
        <pt x="154" y="774" on="0"/>
        <pt x="146" y="749" on="0"/>
        <pt x="122" y="740" on="0"/>
        <pt x="98" y="736" on="0"/>
        <pt x="86" y="736" on="1"/>
        <pt x="58" y="737" on="0"/>
        <pt x="22" y="754" on="0"/>
        <pt x="22" y="795" on="1"/>
        <pt x="22" y="825" on="0"/>
      </contour>
    </TTGlyph>
    <TTGlyph name="divide" xMin="49" yMin="57" xMax="481" yMax="536">
      <contour>
        <pt x="205" y="427" on="1"/>
        <pt x="195" y="447" on="0"/>
        <pt x="195" y="475" on="1"/>
        <pt x="198" y="520" on="0"/>
        <pt x="221" y="532" on="0"/>
        <pt x="266" y="536" on="1"/>
        <pt x="302" y="535" on="0"/>
        <pt x="334" y="516" on="0"/>
        <pt x="334" y="475" on="1"/>
        <pt x="334" y="434" on="0"/>
        <pt x="306" y="415" on="0"/>
        <pt x="264" y="414" on="1"/>
        <pt x="224" y="414" on="0"/>
      </contour>
      <contour>
        <pt x="205" y="70" on="1"/>
        <pt x="195" y="89" on="0"/>
        <pt x="195" y="117" on="1"/>
        <pt x="195" y="161" on="0"/>
        <pt x="228" y="176" on="0"/>
        <pt x="266" y="178" on="1"/>
        <pt x="302" y="176" on="0"/>
        <pt x="334" y="160" on="0"/>
        <pt x="334" y="117" on="1"/>
        <pt x="334" y="74" on="0"/>
        <pt x="303" y="58" on="0"/>
        <pt x="264" y="57" on="1"/>
        <pt x="224" y="57" on="0"/>
      </contour>
      <contour>
        <pt x="476" y="243" on="1"/>
        <pt x="54" y="243" on="1"/>
        <pt x="51" y="254" on="0"/>
        <pt x="49" y="281" on="0"/>
        <pt x="49" y="296" on="1"/>
        <pt x="49" y="310" on="0"/>
        <pt x="51" y="339" on="0"/>
        <pt x="54" y="351" on="1"/>
        <pt x="476" y="351" on="1"/>
        <pt x="478" y="339" on="0"/>
        <pt x="481" y="310" on="0"/>
        <pt x="481" y="296" on="1"/>
        <pt x="481" y="266" on="0"/>
      </contour>
    </TTGlyph>
    <TTGlyph name="dollar" xMin="27" yMin="-43" xMax="473" yMax="693">
      <contour>
        <pt x="27" y="96" on="1"/>
        <pt x="27" y="109" on="0"/>
        <pt x="36" y="139" on="0"/>
        <pt x="50" y="166" on="0"/>
        <pt x="68" y="188" on="0"/>
        <pt x="77" y="194" on="1"/>
        <pt x="180" y="139" on="0"/>
        <pt x="256" y="139" on="1"/>
        <pt x="291" y="139" on="0"/>
        <pt x="335" y="167" on="0"/>
        <pt x="335" y="192" on="1"/>
        <pt x="335" y="215" on="0"/>
        <pt x="306" y="244" on="0"/>
        <pt x="277" y="255" on="1"/>
        <pt x="180" y="290" on="1"/>
        <pt x="51" y="339" on="0"/>
        <pt x="51" y="444" on="1"/>
        <pt x="51" y="507" on="0"/>
        <pt x="133" y="596" on="0"/>
        <pt x="202" y="608" on="1"/>
        <pt x="202" y="689" on="1"/>
        <pt x="217" y="693" on="0"/>
        <pt x="250" y="693" on="1"/>
        <pt x="285" y="693" on="0"/>
        <pt x="300" y="689" on="1"/>
        <pt x="300" y="609" on="1"/>
        <pt x="379" y="601" on="0"/>
        <pt x="457" y="566" on="1"/>
        <pt x="457" y="538" on="0"/>
        <pt x="431" y="481" on="0"/>
        <pt x="411" y="464" on="1"/>
        <pt x="321" y="504" on="0"/>
        <pt x="255" y="504" on="1"/>
        <pt x="223" y="504" on="0"/>
        <pt x="186" y="477" on="0"/>
        <pt x="186" y="455" on="1"/>
        <pt x="186" y="434" on="0"/>
        <pt x="213" y="413" on="0"/>
        <pt x="243" y="402" on="1"/>
        <pt x="337" y="367" on="1"/>
        <pt x="473" y="316" on="0"/>
        <pt x="473" y="200" on="1"/>
        <pt x="473" y="134" on="0"/>
        <pt x="376" y="45" on="0"/>
        <pt x="296" y="35" on="1"/>
        <pt x="296" y="-40" on="1"/>
        <pt x="282" y="-43" on="0"/>
        <pt x="246" y="-43" on="1"/>
        <pt x="210" y="-43" on="0"/>
        <pt x="198" y="-40" on="1"/>
        <pt x="198" y="37" on="1"/>
        <pt x="94" y="50" on="0"/>
      </contour>
    </TTGlyph>
    <TTGlyph name="dollar.smcp" xMin="23" yMin="-37" xMax="423" yMax="588">
      <contour>
        <pt x="23" y="78" on="1"/>
        <pt x="25" y="103" on="0"/>
        <pt x="52" y="159" on="0"/>
        <pt x="70" y="171" on="1"/>
        <pt x="155" y="126" on="0"/>
        <pt x="223" y="126" on="1"/>
        <pt x="290" y="126" on="0"/>
        <pt x="290" y="164" on="1"/>
        <pt x="290" y="192" on="0"/>
        <pt x="245" y="209" on="1"/>
        <pt x="160" y="240" on="1"/>
        <pt x="43" y="282" on="0"/>
        <pt x="43" y="374" on="1"/>
        <pt x="43" y="431" on="0"/>
        <pt x="115" y="506" on="0"/>
        <pt x="178" y="518" on="1"/>
        <pt x="178" y="583" on="1"/>
        <pt x="195" y="588" on="0"/>
        <pt x="224" y="588" on="1"/>
        <pt x="254" y="588" on="0"/>
        <pt x="271" y="583" on="1"/>
        <pt x="271" y="521" on="1"/>
        <pt x="345" y="512" on="0"/>
        <pt x="410" y="482" on="1"/>
        <pt x="407" y="421" on="0"/>
        <pt x="365" y="388" on="1"/>
        <pt x="291" y="424" on="0"/>
        <pt x="231" y="424" on="1"/>
        <pt x="172" y="424" on="0"/>
        <pt x="172" y="385" on="1"/>
        <pt x="172" y="371" on="0"/>
        <pt x="194" y="354" on="0"/>
        <pt x="218" y="346" on="1"/>
        <pt x="296" y="318" on="1"/>
        <pt x="423" y="272" on="0"/>
        <pt x="423" y="172" on="1"/>
        <pt x="423" y="111" on="0"/>
        <pt x="340" y="36" on="0"/>
        <pt x="268" y="27" on="1"/>
        <pt x="268" y="-33" on="1"/>
        <pt x="253" y="-37" on="0"/>
        <pt x="221" y="-37" on="1"/>
        <pt x="190" y="-37" on="0"/>
        <pt x="175" y="-33" on="1"/>
        <pt x="175" y="27" on="1"/>
        <pt x="83" y="38" on="0"/>
      </contour>
    </TTGlyph>
    <TTGlyph name="dotaccent" xMin="124" yMin="571" xMax="274" yMax="702">
      <contour>
        <pt x="134" y="689" on="1"/>
        <pt x="158" y="702" on="0"/>
        <pt x="243" y="702" on="0"/>
        <pt x="264" y="689" on="1"/>
        <pt x="274" y="666" on="0"/>
        <pt x="274" y="608" on="0"/>
        <pt x="264" y="585" on="1"/>
        <pt x="241" y="571" on="0"/>
        <pt x="157" y="571" on="0"/>
        <pt x="134" y="585" on="1"/>
        <pt x="124" y="608" on="0"/>
        <pt x="124" y="666" on="0"/>
      </contour>
    </TTGlyph>
    <TTGlyph name="dotaccent.alt" xMin="130" yMin="289" xMax="267" yMax="426">
      <contour>
        <pt x="138" y="411" on="1"/>
        <pt x="165" y="426" on="0"/>
        <pt x="199" y="426" on="1"/>
        <pt x="231" y="426" on="0"/>
        <pt x="258" y="411" on="1"/>
        <pt x="263" y="400" on="0"/>
        <pt x="267" y="372" on="0"/>
        <pt x="267" y="358" on="1"/>
        <pt x="267" y="326" on="0"/>
        <pt x="258" y="305" on="1"/>
        <pt x="238" y="289" on="0"/>
        <pt x="199" y="289" on="1"/>
        <pt x="182" y="289" on="0"/>
        <pt x="158" y="295" on="0"/>
        <pt x="142" y="302" on="0"/>
        <pt x="138" y="305" on="1"/>
        <pt x="135" y="310" on="0"/>
        <pt x="131" y="334" on="0"/>
        <pt x="130" y="358" on="1"/>
        <pt x="130" y="390" on="0"/>
      </contour>
    </TTGlyph>
    <TTGlyph name="dotaccent.cap" xMin="124" yMin="743" xMax="274" yMax="874">
      <contour>
        <pt x="134" y="757" on="1"/>
        <pt x="129" y="768" on="0"/>
        <pt x="124" y="794" on="0"/>
        <pt x="124" y="808" on="1"/>
        <pt x="124" y="822" on="0"/>
        <pt x="129" y="849" on="0"/>
        <pt x="134" y="860" on="1"/>
        <pt x="160" y="874" on="0"/>
        <pt x="200" y="874" on="1"/>
        <pt x="241" y="874" on="0"/>
        <pt x="264" y="860" on="1"/>
        <pt x="274" y="837" on="0"/>
        <pt x="274" y="808" on="1"/>
        <pt x="274" y="780" on="0"/>
        <pt x="264" y="757" on="1"/>
        <pt x="241" y="743" on="0"/>
        <pt x="197" y="743" on="1"/>
        <pt x="154" y="743" on="0"/>
      </contour>
    </TTGlyph>
    <TTGlyph name="dotlessi" xMin="23" yMin="-5" xMax="218" yMax="500">
      <contour>
        <pt x="218" y="395" on="1"/>
        <pt x="218" y="0" on="1"/>
        <pt x="188" y="-5" on="0"/>
        <pt x="119" y="-5" on="0"/>
        <pt x="87" y="0" on="1"/>
        <pt x="87" y="348" on="1"/>
        <pt x="87" y="403" on="0"/>
        <pt x="42" y="403" on="1"/>
        <pt x="29" y="403" on="1"/>
        <pt x="23" y="426" on="0"/>
        <pt x="23" y="472" on="0"/>
        <pt x="29" y="495" on="1"/>
        <pt x="76" y="500" on="0"/>
        <pt x="105" y="500" on="1"/>
        <pt x="122" y="500" on="1"/>
        <pt x="166" y="500" on="0"/>
        <pt x="218" y="444" on="0"/>
      </contour>
    </TTGlyph>
    <TTGlyph name="e" xMin="37" yMin="-14" xMax="457" yMax="510">
      <contour>
        <pt x="446" y="206" on="1"/>
        <pt x="170" y="206" on="1"/>
        <pt x="173" y="151" on="0"/>
        <pt x="218" y="88" on="0"/>
        <pt x="274" y="88" on="1"/>
        <pt x="332" y="88" on="0"/>
        <pt x="407" y="122" on="1"/>
        <pt x="436" y="92" on="0"/>
        <pt x="444" y="43" on="1"/>
        <pt x="364" y="-14" on="0"/>
        <pt x="252" y="-14" on="1"/>
        <pt x="146" y="-14" on="0"/>
        <pt x="37" y="117" on="0"/>
        <pt x="37" y="246" on="1"/>
        <pt x="37" y="306" on="0"/>
        <pt x="65" y="403" on="0"/>
        <pt x="119" y="472" on="0"/>
        <pt x="197" y="510" on="0"/>
        <pt x="247" y="510" on="1"/>
        <pt x="298" y="510" on="0"/>
        <pt x="376" y="479" on="0"/>
        <pt x="430" y="422" on="0"/>
        <pt x="457" y="344" on="0"/>
        <pt x="457" y="298" on="1"/>
        <pt x="457" y="273" on="0"/>
        <pt x="451" y="228" on="0"/>
      </contour>
      <contour>
        <pt x="253" y="416" on="1"/>
        <pt x="175" y="416" on="0"/>
        <pt x="169" y="298" on="1"/>
        <pt x="335" y="298" on="1"/>
        <pt x="335" y="310" on="1"/>
        <pt x="335" y="358" on="0"/>
        <pt x="295" y="416" on="0"/>
      </contour>
    </TTGlyph>
    <TTGlyph name="e.smcp" xMin="78" yMin="-1" xMax="480" yMax="548">
      <contour>
        <pt x="209" y="158" on="1"/>
        <pt x="208" y="104" on="1"/>
        <pt x="248" y="106" on="0"/>
        <pt x="273" y="106" on="1"/>
        <pt x="480" y="106" on="1"/>
        <pt x="480" y="77" on="0"/>
        <pt x="478" y="62" on="1"/>
        <pt x="466" y="-1" on="0"/>
        <pt x="398" y="-1" on="1"/>
        <pt x="154" y="-1" on="1"/>
        <pt x="119" y="-1" on="0"/>
        <pt x="78" y="40" on="0"/>
        <pt x="78" y="75" on="1"/>
        <pt x="78" y="543" on="1"/>
        <pt x="83" y="548" on="1"/>
        <pt x="463" y="548" on="1"/>
        <pt x="467" y="529" on="0"/>
        <pt x="467" y="467" on="0"/>
        <pt x="456" y="441" on="1"/>
        <pt x="208" y="441" on="1"/>
        <pt x="209" y="389" on="1"/>
        <pt x="209" y="328" on="1"/>
        <pt x="232" y="329" on="0"/>
        <pt x="268" y="329" on="1"/>
        <pt x="410" y="329" on="1"/>
        <pt x="417" y="312" on="0"/>
        <pt x="417" y="244" on="0"/>
        <pt x="410" y="225" on="1"/>
        <pt x="209" y="225" on="1"/>
      </contour>
    </TTGlyph>
    <TTGlyph name="eacute" xMin="37" yMin="-14" xMax="457" yMax="755">
      <component glyphName="e" x="0" y="0" flags="0x204"/>
      <component glyphName="acute" x="57" y="0" flags="0x4"/>
    </TTGlyph>
    <TTGlyph name="eacute.smcp" xMin="78" yMin="-1" xMax="480" yMax="807">
      <component glyphName="e.smcp" x="0" y="0" flags="0x204"/>
      <component glyphName="acute" x="76" y="52" flags="0x4"/>
    </TTGlyph>
    <TTGlyph name="ecaron" xMin="37" yMin="-14" xMax="457" yMax="747">
      <component glyphName="e" x="0" y="0" flags="0x204"/>
      <component glyphName="caron" x="56" y="0" flags="0x4"/>
    </TTGlyph>
    <TTGlyph name="ecaron.smcp" xMin="78" yMin="-1" xMax="480" yMax="799">
      <component glyphName="e.smcp" x="0" y="0" flags="0x204"/>
      <component glyphName="caron" x="77" y="52" flags="0x4"/>
    </TTGlyph>
    <TTGlyph name="ecircumflex" xMin="37" yMin="-14" xMax="457" yMax="745">
      <component glyphName="e" x="0" y="0" flags="0x204"/>
      <component glyphName="circumflex" x="56" y="0" flags="0x4"/>
    </TTGlyph>
    <TTGlyph name="ecircumflex.smcp" xMin="78" yMin="-1" xMax="480" yMax="797">
      <component glyphName="e.smcp" x="0" y="0" flags="0x204"/>
      <component glyphName="circumflex" x="76" y="52" flags="0x4"/>
    </TTGlyph>
    <TTGlyph name="edieresis" xMin="37" yMin="-14" xMax="457" yMax="677">
      <component glyphName="e" x="0" y="0" flags="0x204"/>
      <component glyphName="dieresis" x="56" y="0" flags="0x4"/>
    </TTGlyph>
    <TTGlyph name="edieresis.smcp" xMin="78" yMin="-1" xMax="480" yMax="729">
      <component glyphName="e.smcp" x="0" y="0" flags="0x204"/>
      <component glyphName="dieresis" x="76" y="52" flags="0x4"/>
    </TTGlyph>
    <TTGlyph name="egrave" xMin="37" yMin="-14" xMax="457" yMax="755">
      <component glyphName="e" x="0" y="0" flags="0x204"/>
      <component glyphName="grave" x="57" y="0" flags="0x4"/>
    </TTGlyph>
    <TTGlyph name="egrave.smcp" xMin="78" yMin="-1" xMax="480" yMax="807">
      <component glyphName="e.smcp" x="0" y="0" flags="0x204"/>
      <component glyphName="grave" x="78" y="52" flags="0x4"/>
    </TTGlyph>
    <TTGlyph name="eight" xMin="35" yMin="-14" xMax="495" yMax="662">
      <contour>
        <pt x="35" y="164" on="1"/>
        <pt x="35" y="218" on="0"/>
        <pt x="98" y="306" on="0"/>
        <pt x="147" y="334" on="1"/>
        <pt x="51" y="392" on="0"/>
        <pt x="51" y="488" on="1"/>
        <pt x="51" y="525" on="0"/>
        <pt x="84" y="589" on="0"/>
        <pt x="142" y="635" on="0"/>
        <pt x="220" y="662" on="0"/>
        <pt x="266" y="662" on="1"/>
        <pt x="312" y="662" on="0"/>
        <pt x="390" y="637" on="0"/>
        <pt x="446" y="592" on="0"/>
        <pt x="477" y="529" on="0"/>
        <pt x="477" y="491" on="1"/>
        <pt x="477" y="402" on="0"/>
        <pt x="382" y="349" on="1"/>
        <pt x="495" y="286" on="0"/>
        <pt x="495" y="171" on="1"/>
        <pt x="495" y="128" on="0"/>
        <pt x="458" y="59" on="0"/>
        <pt x="394" y="11" on="0"/>
        <pt x="307" y="-14" on="0"/>
        <pt x="258" y="-14" on="1"/>
        <pt x="207" y="-14" on="0"/>
        <pt x="125" y="10" on="0"/>
        <pt x="67" y="56" on="0"/>
        <pt x="35" y="122" on="0"/>
      </contour>
      <contour>
        <pt x="236" y="294" on="1"/>
        <pt x="235" y="294" on="1"/>
        <pt x="167" y="246" on="0"/>
        <pt x="167" y="173" on="1"/>
        <pt x="167" y="130" on="0"/>
        <pt x="221" y="78" on="0"/>
        <pt x="264" y="78" on="1"/>
        <pt x="307" y="78" on="0"/>
        <pt x="361" y="130" on="0"/>
        <pt x="361" y="172" on="1"/>
        <pt x="361" y="250" on="0"/>
        <pt x="258" y="286" on="1"/>
      </contour>
      <contour>
        <pt x="180" y="489" on="1"/>
        <pt x="180" y="424" on="0"/>
        <pt x="279" y="393" on="1"/>
        <pt x="292" y="388" on="1"/>
        <pt x="350" y="425" on="0"/>
        <pt x="350" y="486" on="1"/>
        <pt x="350" y="523" on="0"/>
        <pt x="302" y="568" on="0"/>
        <pt x="265" y="568" on="1"/>
        <pt x="228" y="568" on="0"/>
        <pt x="180" y="523" on="0"/>
      </contour>
    </TTGlyph>
    <TTGlyph name="eight.smcp" xMin="33" yMin="-14" xMax="449" yMax="562">
      <contour>
        <pt x="33" y="132" on="1"/>
        <pt x="33" y="180" on="0"/>
        <pt x="91" y="255" on="0"/>
        <pt x="134" y="276" on="1"/>
        <pt x="49" y="325" on="0"/>
        <pt x="49" y="406" on="1"/>
        <pt x="49" y="439" on="0"/>
        <pt x="78" y="496" on="0"/>
        <pt x="129" y="538" on="0"/>
        <pt x="200" y="562" on="0"/>
        <pt x="242" y="562" on="1"/>
        <pt x="329" y="562" on="0"/>
        <pt x="432" y="481" on="0"/>
        <pt x="432" y="415" on="1"/>
        <pt x="432" y="337" on="0"/>
        <pt x="356" y="297" on="1"/>
        <pt x="449" y="241" on="0"/>
        <pt x="449" y="157" on="1"/>
        <pt x="449" y="114" on="0"/>
        <pt x="417" y="50" on="0"/>
        <pt x="360" y="7" on="0"/>
        <pt x="282" y="-14" on="0"/>
        <pt x="236" y="-14" on="1"/>
        <pt x="190" y="-14" on="0"/>
        <pt x="115" y="7" on="0"/>
        <pt x="62" y="45" on="0"/>
        <pt x="33" y="99" on="0"/>
      </contour>
      <contour>
        <pt x="236" y="233" on="1"/>
        <pt x="226" y="236" on="1"/>
        <pt x="159" y="202" on="0"/>
        <pt x="159" y="142" on="1"/>
        <pt x="159" y="112" on="0"/>
        <pt x="203" y="74" on="0"/>
        <pt x="240" y="74" on="1"/>
        <pt x="277" y="74" on="0"/>
        <pt x="320" y="113" on="0"/>
        <pt x="320" y="143" on="1"/>
        <pt x="320" y="201" on="0"/>
      </contour>
      <contour>
        <pt x="253" y="341" on="1"/>
        <pt x="266" y="336" on="1"/>
        <pt x="310" y="366" on="0"/>
        <pt x="310" y="412" on="1"/>
        <pt x="310" y="439" on="0"/>
        <pt x="270" y="473" on="0"/>
        <pt x="241" y="473" on="1"/>
        <pt x="210" y="473" on="0"/>
        <pt x="173" y="438" on="0"/>
        <pt x="173" y="415" on="1"/>
        <pt x="173" y="393" on="0"/>
        <pt x="211" y="355" on="0"/>
      </contour>
    </TTGlyph>
    <TTGlyph name="emdash" xMin="71" yMin="214" xMax="737" yMax="316">
      <contour>
        <pt x="731" y="214" on="1"/>
        <pt x="76" y="214" on="1"/>
        <pt x="71" y="236" on="0"/>
        <pt x="71" y="295" on="0"/>
        <pt x="76" y="316" on="1"/>
        <pt x="731" y="316" on="1"/>
        <pt x="737" y="296" on="0"/>
        <pt x="737" y="236" on="0"/>
      </contour>
    </TTGlyph>
    <TTGlyph name="endash" xMin="58" yMin="214" xMax="486" yMax="316">
      <contour>
        <pt x="480" y="214" on="1"/>
        <pt x="64" y="214" on="1"/>
        <pt x="58" y="236" on="0"/>
        <pt x="58" y="296" on="0"/>
        <pt x="64" y="316" on="1"/>
        <pt x="480" y="316" on="1"/>
        <pt x="486" y="296" on="0"/>
        <pt x="486" y="236" on="0"/>
      </contour>
    </TTGlyph>
    <TTGlyph name="eogonek" xMin="37" yMin="-218" xMax="457" yMax="510">
      <contour>
        <pt x="446" y="206" on="1"/>
        <pt x="170" y="206" on="1"/>
        <pt x="173" y="151" on="0"/>
        <pt x="218" y="88" on="0"/>
        <pt x="274" y="88" on="1"/>
        <pt x="332" y="88" on="0"/>
        <pt x="407" y="122" on="1"/>
        <pt x="436" y="92" on="0"/>
        <pt x="444" y="43" on="1"/>
        <pt x="415" y="22" on="0"/>
        <pt x="379" y="9" on="1"/>
        <pt x="313" y="-41" on="0"/>
        <pt x="313" y="-94" on="1"/>
        <pt x="313" y="-134" on="0"/>
        <pt x="357" y="-134" on="1"/>
        <pt x="386" y="-134" on="0"/>
        <pt x="412" y="-119" on="1"/>
        <pt x="439" y="-144" on="0"/>
        <pt x="440" y="-180" on="1"/>
        <pt x="391" y="-218" on="0"/>
        <pt x="335" y="-218" on="1"/>
        <pt x="278" y="-218" on="0"/>
        <pt x="214" y="-166" on="0"/>
        <pt x="214" y="-115" on="1"/>
        <pt x="214" y="-65" on="0"/>
        <pt x="269" y="-13" on="1"/>
        <pt x="265" y="-14" on="0"/>
        <pt x="252" y="-14" on="1"/>
        <pt x="146" y="-14" on="0"/>
        <pt x="37" y="117" on="0"/>
        <pt x="37" y="246" on="1"/>
        <pt x="37" y="306" on="0"/>
        <pt x="65" y="403" on="0"/>
        <pt x="119" y="472" on="0"/>
        <pt x="197" y="510" on="0"/>
        <pt x="247" y="510" on="1"/>
        <pt x="298" y="510" on="0"/>
        <pt x="376" y="479" on="0"/>
        <pt x="430" y="422" on="0"/>
        <pt x="457" y="344" on="0"/>
        <pt x="457" y="298" on="1"/>
        <pt x="457" y="273" on="0"/>
        <pt x="451" y="228" on="0"/>
      </contour>
      <contour>
        <pt x="253" y="416" on="1"/>
        <pt x="175" y="416" on="0"/>
        <pt x="169" y="298" on="1"/>
        <pt x="335" y="298" on="1"/>
        <pt x="335" y="310" on="1"/>
        <pt x="335" y="358" on="0"/>
        <pt x="295" y="416" on="0"/>
      </contour>
    </TTGlyph>
    <TTGlyph name="eogonek.smcp" xMin="78" yMin="-218" xMax="480" yMax="548">
      <contour>
        <pt x="209" y="158" on="1"/>
        <pt x="208" y="105" on="1"/>
        <pt x="208" y="104" on="1"/>
        <pt x="238" y="107" on="0"/>
        <pt x="273" y="107" on="1"/>
        <pt x="480" y="107" on="1"/>
        <pt x="480" y="77" on="0"/>
        <pt x="478" y="62" on="1"/>
        <pt x="470" y="18" on="0"/>
        <pt x="433" y="3" on="1"/>
        <pt x="392" y="-13" on="0"/>
        <pt x="348" y="-67" on="0"/>
        <pt x="348" y="-90" on="1"/>
        <pt x="348" y="-134" on="0"/>
        <pt x="393" y="-134" on="1"/>
        <pt x="421" y="-134" on="0"/>
        <pt x="447" y="-119" on="1"/>
        <pt x="473" y="-142" on="0"/>
        <pt x="476" y="-180" on="1"/>
        <pt x="428" y="-218" on="0"/>
        <pt x="370" y="-218" on="1"/>
        <pt x="313" y="-218" on="0"/>
        <pt x="250" y="-165" on="0"/>
        <pt x="250" y="-120" on="1"/>
        <pt x="250" y="-51" on="0"/>
        <pt x="317" y="-1" on="1"/>
        <pt x="154" y="-1" on="1"/>
        <pt x="119" y="-1" on="0"/>
        <pt x="78" y="40" on="0"/>
        <pt x="78" y="75" on="1"/>
        <pt x="78" y="543" on="1"/>
        <pt x="83" y="548" on="1"/>
        <pt x="463" y="548" on="1"/>
        <pt x="467" y="529" on="0"/>
        <pt x="467" y="468" on="0"/>
        <pt x="456" y="440" on="1"/>
        <pt x="208" y="440" on="1"/>
        <pt x="209" y="388" on="1"/>
        <pt x="209" y="329" on="1"/>
        <pt x="232" y="330" on="0"/>
        <pt x="268" y="330" on="1"/>
        <pt x="410" y="330" on="1"/>
        <pt x="417" y="311" on="0"/>
        <pt x="417" y="242" on="0"/>
        <pt x="410" y="225" on="1"/>
        <pt x="209" y="225" on="1"/>
      </contour>
    </TTGlyph>
    <TTGlyph name="equal" xMin="49" yMin="138" xMax="481" yMax="457">
      <contour>
        <pt x="476" y="138" on="1"/>
        <pt x="54" y="138" on="1"/>
        <pt x="49" y="160" on="0"/>
        <pt x="49" y="224" on="0"/>
        <pt x="54" y="246" on="1"/>
        <pt x="476" y="246" on="1"/>
        <pt x="481" y="223" on="0"/>
        <pt x="481" y="160" on="0"/>
      </contour>
      <contour>
        <pt x="476" y="349" on="1"/>
        <pt x="54" y="349" on="1"/>
        <pt x="49" y="371" on="0"/>
        <pt x="49" y="434" on="0"/>
        <pt x="54" y="457" on="1"/>
        <pt x="476" y="457" on="1"/>
        <pt x="481" y="434" on="0"/>
        <pt x="481" y="372" on="0"/>
      </contour>
    </TTGlyph>
    <TTGlyph name="eth" xMin="35" yMin="-14" xMax="482" yMax="750">
      <contour>
        <pt x="97" y="571" on="1"/>
        <pt x="176" y="625" on="1"/>
        <pt x="145" y="648" on="0"/>
        <pt x="105" y="670" on="1"/>
        <pt x="108" y="693" on="0"/>
        <pt x="138" y="741" on="0"/>
        <pt x="156" y="750" on="1"/>
        <pt x="215" y="726" on="0"/>
        <pt x="268" y="688" on="1"/>
        <pt x="353" y="747" on="1"/>
        <pt x="389" y="723" on="0"/>
        <pt x="398" y="684" on="1"/>
        <pt x="330" y="637" on="1"/>
        <pt x="482" y="490" on="0"/>
        <pt x="482" y="247" on="1"/>
        <pt x="482" y="187" on="0"/>
        <pt x="452" y="90" on="0"/>
        <pt x="395" y="23" on="0"/>
        <pt x="311" y="-14" on="0"/>
        <pt x="258" y="-14" on="1"/>
        <pt x="205" y="-14" on="0"/>
        <pt x="122" y="23" on="0"/>
        <pt x="65" y="90" on="0"/>
        <pt x="35" y="183" on="0"/>
        <pt x="35" y="239" on="1"/>
        <pt x="35" y="296" on="0"/>
        <pt x="66" y="387" on="0"/>
        <pt x="122" y="452" on="0"/>
        <pt x="201" y="487" on="0"/>
        <pt x="249" y="487" on="1"/>
        <pt x="275" y="487" on="0"/>
        <pt x="304" y="475" on="1"/>
        <pt x="286" y="523" on="0"/>
        <pt x="236" y="573" on="1"/>
        <pt x="141" y="508" on="1"/>
        <pt x="104" y="535" on="0"/>
      </contour>
      <contour>
        <pt x="348" y="247" on="1"/>
        <pt x="348" y="320" on="0"/>
        <pt x="336" y="370" on="1"/>
        <pt x="298" y="393" on="0"/>
        <pt x="260" y="393" on="1"/>
        <pt x="169" y="393" on="0"/>
        <pt x="169" y="238" on="1"/>
        <pt x="169" y="83" on="0"/>
        <pt x="258" y="83" on="1"/>
        <pt x="348" y="83" on="0"/>
      </contour>
    </TTGlyph>
    <TTGlyph name="eth.smcp" xMin="15" yMin="-4" xMax="567" yMax="553">
      <contour>
        <pt x="92" y="-1" on="1"/>
        <pt x="86" y="5" on="1"/>
        <pt x="86" y="223" on="1"/>
        <pt x="20" y="223" on="1"/>
        <pt x="17" y="234" on="0"/>
        <pt x="15" y="259" on="0"/>
        <pt x="15" y="273" on="1"/>
        <pt x="15" y="287" on="0"/>
        <pt x="17" y="313" on="0"/>
        <pt x="20" y="325" on="1"/>
        <pt x="86" y="325" on="1"/>
        <pt x="86" y="543" on="1"/>
        <pt x="92" y="549" on="1"/>
        <pt x="170" y="551" on="0"/>
        <pt x="272" y="553" on="0"/>
        <pt x="296" y="553" on="1"/>
        <pt x="374" y="553" on="0"/>
        <pt x="479" y="510" on="0"/>
        <pt x="541" y="434" on="0"/>
        <pt x="567" y="332" on="0"/>
        <pt x="567" y="272" on="1"/>
        <pt x="567" y="218" on="0"/>
        <pt x="545" y="118" on="0"/>
        <pt x="487" y="42" on="0"/>
        <pt x="387" y="-4" on="0"/>
        <pt x="308" y="-4" on="1"/>
        <pt x="207" y="-4" on="0"/>
      </contour>
      <contour>
        <pt x="215" y="94" on="1"/>
        <pt x="301" y="95" on="1"/>
        <pt x="367" y="96" on="0"/>
        <pt x="432" y="183" on="0"/>
        <pt x="432" y="274" on="1"/>
        <pt x="432" y="453" on="0"/>
        <pt x="301" y="453" on="1"/>
        <pt x="273" y="453" on="0"/>
        <pt x="231" y="453" on="0"/>
        <pt x="215" y="454" on="1"/>
        <pt x="215" y="325" on="1"/>
        <pt x="326" y="325" on="1"/>
        <pt x="331" y="300" on="0"/>
        <pt x="331" y="273" on="1"/>
        <pt x="331" y="246" on="0"/>
        <pt x="326" y="223" on="1"/>
        <pt x="215" y="223" on="1"/>
      </contour>
    </TTGlyph>
    <TTGlyph name="exclam" xMin="71" yMin="-10" xMax="226" yMax="691">
      <contour>
        <pt x="96" y="202" on="1"/>
        <pt x="79" y="654" on="1"/>
        <pt x="128" y="691" on="0"/>
        <pt x="218" y="691" on="1"/>
        <pt x="226" y="681" on="1"/>
        <pt x="196" y="202" on="1"/>
        <pt x="175" y="196" on="0"/>
        <pt x="145" y="196" on="1"/>
        <pt x="131" y="196" on="0"/>
        <pt x="105" y="199" on="0"/>
      </contour>
      <contour>
        <pt x="80" y="110" on="1"/>
        <pt x="94" y="118" on="0"/>
        <pt x="128" y="125" on="0"/>
        <pt x="146" y="125" on="1"/>
        <pt x="164" y="125" on="0"/>
        <pt x="198" y="118" on="0"/>
        <pt x="212" y="110" on="1"/>
        <pt x="222" y="93" on="0"/>
        <pt x="222" y="57" on="1"/>
        <pt x="222" y="33" on="0"/>
        <pt x="213" y="1" on="0"/>
        <pt x="193" y="-4" on="0"/>
        <pt x="164" y="-10" on="0"/>
        <pt x="146" y="-10" on="1"/>
        <pt x="128" y="-10" on="0"/>
        <pt x="87" y="-1" on="0"/>
        <pt x="79" y="5" on="0"/>
        <pt x="71" y="32" on="0"/>
        <pt x="71" y="57" on="1"/>
        <pt x="71" y="93" on="0"/>
      </contour>
    </TTGlyph>
    <TTGlyph name="exclamdown" xMin="72" yMin="-195" xMax="228" yMax="506">
      <contour>
        <pt x="202" y="294" on="1"/>
        <pt x="219" y="-159" on="1"/>
        <pt x="169" y="-195" on="0"/>
        <pt x="80" y="-195" on="1"/>
        <pt x="72" y="-186" on="1"/>
        <pt x="102" y="294" on="1"/>
        <pt x="112" y="297" on="0"/>
        <pt x="139" y="300" on="0"/>
        <pt x="153" y="300" on="1"/>
        <pt x="182" y="300" on="0"/>
      </contour>
      <contour>
        <pt x="218" y="386" on="1"/>
        <pt x="194" y="371" on="0"/>
        <pt x="152" y="371" on="1"/>
        <pt x="135" y="371" on="0"/>
        <pt x="107" y="375" on="0"/>
        <pt x="85" y="386" on="0"/>
        <pt x="77" y="413" on="0"/>
        <pt x="77" y="438" on="1"/>
        <pt x="77" y="463" on="0"/>
        <pt x="85" y="492" on="0"/>
        <pt x="107" y="502" on="0"/>
        <pt x="134" y="506" on="0"/>
        <pt x="152" y="506" on="1"/>
        <pt x="170" y="506" on="0"/>
        <pt x="198" y="501" on="0"/>
        <pt x="222" y="490" on="0"/>
        <pt x="227" y="462" on="0"/>
        <pt x="228" y="438" on="1"/>
        <pt x="228" y="402" on="0"/>
      </contour>
    </TTGlyph>
    <TTGlyph name="f" xMin="3" yMin="-5" xMax="388" yMax="740">
      <contour>
        <pt x="94" y="0" on="1"/>
        <pt x="94" y="404" on="1"/>
        <pt x="8" y="403" on="1"/>
        <pt x="5" y="415" on="0"/>
        <pt x="3" y="439" on="0"/>
        <pt x="3" y="450" on="1"/>
        <pt x="3" y="461" on="0"/>
        <pt x="5" y="484" on="0"/>
        <pt x="8" y="497" on="1"/>
        <pt x="88" y="496" on="1"/>
        <pt x="82" y="548" on="0"/>
        <pt x="82" y="574" on="1"/>
        <pt x="82" y="610" on="0"/>
        <pt x="106" y="671" on="0"/>
        <pt x="150" y="715" on="0"/>
        <pt x="209" y="740" on="0"/>
        <pt x="244" y="740" on="1"/>
        <pt x="315" y="740" on="0"/>
        <pt x="388" y="714" on="1"/>
        <pt x="388" y="659" on="0"/>
        <pt x="359" y="627" on="1"/>
        <pt x="303" y="641" on="0"/>
        <pt x="277" y="641" on="1"/>
        <pt x="207" y="641" on="0"/>
        <pt x="207" y="565" on="1"/>
        <pt x="207" y="531" on="0"/>
        <pt x="213" y="495" on="1"/>
        <pt x="349" y="497" on="1"/>
        <pt x="351" y="484" on="0"/>
        <pt x="354" y="461" on="0"/>
        <pt x="354" y="450" on="1"/>
        <pt x="354" y="439" on="0"/>
        <pt x="351" y="415" on="0"/>
        <pt x="349" y="403" on="1"/>
        <pt x="222" y="405" on="1"/>
        <pt x="222" y="0" on="1"/>
        <pt x="205" y="-3" on="0"/>
        <pt x="174" y="-5" on="0"/>
        <pt x="158" y="-5" on="1"/>
        <pt x="142" y="-5" on="0"/>
        <pt x="111" y="-3" on="0"/>
      </contour>
    </TTGlyph>
    <TTGlyph name="f.smcp" xMin="78" yMin="-5" xMax="461" yMax="548">
      <contour>
        <pt x="209" y="439" on="1"/>
        <pt x="210" y="379" on="1"/>
        <pt x="210" y="320" on="1"/>
        <pt x="402" y="320" on="1"/>
        <pt x="408" y="302" on="0"/>
        <pt x="408" y="234" on="0"/>
        <pt x="402" y="215" on="1"/>
        <pt x="210" y="215" on="1"/>
        <pt x="210" y="0" on="1"/>
        <pt x="182" y="-5" on="0"/>
        <pt x="105" y="-5" on="0"/>
        <pt x="78" y="0" on="1"/>
        <pt x="78" y="544" on="1"/>
        <pt x="83" y="548" on="1"/>
        <pt x="455" y="548" on="1"/>
        <pt x="461" y="526" on="0"/>
        <pt x="461" y="499" on="1"/>
        <pt x="461" y="439" on="0"/>
        <pt x="394" y="439" on="1"/>
      </contour>
    </TTGlyph>
    <TTGlyph name="five" xMin="46" yMin="-14" xMax="479" yMax="648">
      <contour>
        <pt x="208" y="538" on="1"/>
        <pt x="200" y="421" on="1"/>
        <pt x="236" y="432" on="0"/>
        <pt x="270" y="432" on="1"/>
        <pt x="318" y="432" on="0"/>
        <pt x="396" y="402" on="0"/>
        <pt x="450" y="348" on="0"/>
        <pt x="479" y="270" on="0"/>
        <pt x="479" y="222" on="1"/>
        <pt x="479" y="165" on="0"/>
        <pt x="443" y="77" on="0"/>
        <pt x="375" y="17" on="0"/>
        <pt x="288" y="-14" on="0"/>
        <pt x="240" y="-14" on="1"/>
        <pt x="120" y="-14" on="0"/>
        <pt x="46" y="53" on="1"/>
        <pt x="50" y="73" on="0"/>
        <pt x="82" y="125" on="0"/>
        <pt x="100" y="139" on="1"/>
        <pt x="135" y="114" on="0"/>
        <pt x="200" y="91" on="0"/>
        <pt x="228" y="91" on="1"/>
        <pt x="284" y="91" on="0"/>
        <pt x="344" y="163" on="0"/>
        <pt x="344" y="222" on="1"/>
        <pt x="344" y="275" on="0"/>
        <pt x="281" y="331" on="0"/>
        <pt x="236" y="331" on="1"/>
        <pt x="211" y="331" on="0"/>
        <pt x="159" y="313" on="0"/>
        <pt x="135" y="294" on="1"/>
        <pt x="118" y="298" on="0"/>
        <pt x="80" y="324" on="0"/>
        <pt x="70" y="339" on="1"/>
        <pt x="86" y="641" on="1"/>
        <pt x="94" y="648" on="1"/>
        <pt x="445" y="648" on="1"/>
        <pt x="454" y="624" on="0"/>
        <pt x="454" y="594" on="1"/>
        <pt x="454" y="538" on="0"/>
        <pt x="398" y="538" on="1"/>
      </contour>
    </TTGlyph>
    <TTGlyph name="five.smcp" xMin="42" yMin="-14" xMax="436" yMax="548">
      <contour>
        <pt x="42" y="44" on="1"/>
        <pt x="44" y="53" on="0"/>
        <pt x="54" y="77" on="0"/>
        <pt x="68" y="101" on="0"/>
        <pt x="85" y="123" on="0"/>
        <pt x="94" y="129" on="1"/>
        <pt x="147" y="89" on="0"/>
        <pt x="211" y="89" on="1"/>
        <pt x="253" y="89" on="0"/>
        <pt x="305" y="137" on="0"/>
        <pt x="305" y="179" on="1"/>
        <pt x="305" y="219" on="0"/>
        <pt x="256" y="268" on="0"/>
        <pt x="218" y="268" on="1"/>
        <pt x="198" y="268" on="0"/>
        <pt x="154" y="252" on="0"/>
        <pt x="131" y="235" on="1"/>
        <pt x="114" y="239" on="0"/>
        <pt x="77" y="266" on="0"/>
        <pt x="66" y="281" on="1"/>
        <pt x="81" y="542" on="1"/>
        <pt x="89" y="548" on="1"/>
        <pt x="410" y="548" on="1"/>
        <pt x="418" y="522" on="0"/>
        <pt x="418" y="495" on="1"/>
        <pt x="418" y="443" on="0"/>
        <pt x="362" y="443" on="1"/>
        <pt x="198" y="443" on="1"/>
        <pt x="193" y="353" on="1"/>
        <pt x="225" y="361" on="0"/>
        <pt x="253" y="361" on="1"/>
        <pt x="292" y="361" on="0"/>
        <pt x="359" y="335" on="0"/>
        <pt x="408" y="288" on="0"/>
        <pt x="436" y="224" on="0"/>
        <pt x="436" y="186" on="1"/>
        <pt x="436" y="138" on="0"/>
        <pt x="402" y="63" on="0"/>
        <pt x="342" y="12" on="0"/>
        <pt x="260" y="-14" on="0"/>
        <pt x="212" y="-14" on="1"/>
        <pt x="113" y="-14" on="0"/>
      </contour>
    </TTGlyph>
    <TTGlyph name="four" xMin="29" yMin="-5" xMax="502" yMax="661">
      <contour>
        <pt x="407" y="126" on="1"/>
        <pt x="408" y="63" on="1"/>
        <pt x="408" y="0" on="1"/>
        <pt x="379" y="-5" on="0"/>
        <pt x="308" y="-5" on="0"/>
        <pt x="281" y="0" on="1"/>
        <pt x="281" y="63" on="1"/>
        <pt x="282" y="126" on="1"/>
        <pt x="218" y="124" on="1"/>
        <pt x="58" y="124" on="1"/>
        <pt x="29" y="171" on="0"/>
        <pt x="29" y="225" on="0"/>
        <pt x="48" y="269" on="1"/>
        <pt x="213" y="655" on="1"/>
        <pt x="241" y="661" on="0"/>
        <pt x="318" y="645" on="0"/>
        <pt x="333" y="629" on="1"/>
        <pt x="243" y="418" on="1"/>
        <pt x="192" y="290" on="0"/>
        <pt x="153" y="232" on="1"/>
        <pt x="156" y="228" on="1"/>
        <pt x="214" y="234" on="0"/>
        <pt x="280" y="234" on="1"/>
        <pt x="281" y="234" on="1"/>
        <pt x="281" y="314" on="1"/>
        <pt x="281" y="362" on="0"/>
        <pt x="328" y="417" on="0"/>
        <pt x="370" y="417" on="1"/>
        <pt x="402" y="417" on="1"/>
        <pt x="408" y="411" on="1"/>
        <pt x="408" y="297" on="1"/>
        <pt x="407" y="234" on="1"/>
        <pt x="459" y="235" on="1"/>
        <pt x="498" y="235" on="1"/>
        <pt x="502" y="214" on="0"/>
        <pt x="502" y="156" on="0"/>
        <pt x="493" y="126" on="1"/>
      </contour>
    </TTGlyph>
    <TTGlyph name="four.smcp" xMin="28" yMin="-5" xMax="455" yMax="559">
      <contour>
        <pt x="376" y="99" on="1"/>
        <pt x="377" y="39" on="1"/>
        <pt x="377" y="0" on="1"/>
        <pt x="350" y="-5" on="0"/>
        <pt x="284" y="-5" on="0"/>
        <pt x="257" y="0" on="1"/>
        <pt x="257" y="39" on="1"/>
        <pt x="258" y="99" on="1"/>
        <pt x="195" y="97" on="1"/>
        <pt x="56" y="97" on="1"/>
        <pt x="28" y="146" on="0"/>
        <pt x="28" y="194" on="0"/>
        <pt x="45" y="230" on="1"/>
        <pt x="199" y="555" on="1"/>
        <pt x="230" y="559" on="0"/>
        <pt x="298" y="543" on="0"/>
        <pt x="316" y="526" on="1"/>
        <pt x="234" y="355" on="1"/>
        <pt x="196" y="275" on="0"/>
        <pt x="151" y="199" on="1"/>
        <pt x="154" y="195" on="1"/>
        <pt x="201" y="200" on="0"/>
        <pt x="257" y="202" on="1"/>
        <pt x="257" y="261" on="1"/>
        <pt x="257" y="303" on="0"/>
        <pt x="304" y="357" on="0"/>
        <pt x="342" y="357" on="1"/>
        <pt x="373" y="357" on="1"/>
        <pt x="378" y="351" on="1"/>
        <pt x="378" y="278" on="1"/>
        <pt x="376" y="203" on="1"/>
        <pt x="376" y="202" on="1"/>
        <pt x="417" y="203" on="1"/>
        <pt x="452" y="203" on="1"/>
        <pt x="455" y="188" on="0"/>
        <pt x="455" y="127" on="0"/>
        <pt x="446" y="99" on="1"/>
      </contour>
    </TTGlyph>
    <TTGlyph name="fraction" xMin="-124" yMin="-6" xMax="380" yMax="689">
      <contour>
        <pt x="-124" y="0" on="1"/>
        <pt x="254" y="683" on="1"/>
        <pt x="280" y="689" on="0"/>
        <pt x="363" y="689" on="0"/>
        <pt x="380" y="683" on="1"/>
        <pt x="3" y="0" on="1"/>
        <pt x="-24" y="-6" on="0"/>
        <pt x="-106" y="-6" on="0"/>
      </contour>
    </TTGlyph>
    <TTGlyph name="g" xMin="38" yMin="-221" xMax="493" yMax="510">
      <contour>
        <pt x="367" y="461" on="1"/>
        <pt x="395" y="498" on="0"/>
        <pt x="450" y="504" on="1"/>
        <pt x="464" y="494" on="0"/>
        <pt x="490" y="454" on="0"/>
        <pt x="493" y="437" on="1"/>
        <pt x="465" y="413" on="0"/>
        <pt x="465" y="354" on="1"/>
        <pt x="465" y="75" on="1"/>
        <pt x="465" y="-12" on="0"/>
        <pt x="437" y="-126" on="0"/>
        <pt x="381" y="-194" on="0"/>
        <pt x="296" y="-221" on="0"/>
        <pt x="239" y="-221" on="1"/>
        <pt x="139" y="-221" on="0"/>
        <pt x="58" y="-187" on="1"/>
        <pt x="58" y="-163" on="0"/>
        <pt x="77" y="-107" on="0"/>
        <pt x="91" y="-91" on="1"/>
        <pt x="154" y="-122" on="0"/>
        <pt x="226" y="-122" on="1"/>
        <pt x="338" y="-122" on="0"/>
        <pt x="338" y="-3" on="1"/>
        <pt x="338" y="36" on="1"/>
        <pt x="281" y="-9" on="0"/>
        <pt x="215" y="-9" on="1"/>
        <pt x="127" y="-9" on="0"/>
        <pt x="38" y="129" on="0"/>
        <pt x="38" y="250" on="1"/>
        <pt x="38" y="311" on="0"/>
        <pt x="69" y="407" on="0"/>
        <pt x="122" y="474" on="0"/>
        <pt x="192" y="510" on="0"/>
        <pt x="232" y="510" on="1"/>
        <pt x="314" y="510" on="0"/>
      </contour>
      <contour>
        <pt x="338" y="143" on="1"/>
        <pt x="338" y="370" on="1"/>
        <pt x="295" y="410" on="0"/>
        <pt x="255" y="410" on="1"/>
        <pt x="215" y="410" on="0"/>
        <pt x="171" y="326" on="0"/>
        <pt x="171" y="248" on="1"/>
        <pt x="171" y="170" on="0"/>
        <pt x="212" y="97" on="0"/>
        <pt x="245" y="97" on="1"/>
        <pt x="298" y="97" on="0"/>
      </contour>
    </TTGlyph>
    <TTGlyph name="g.smcp" xMin="36" yMin="-14" xMax="526" yMax="562">
      <contour>
        <pt x="297" y="308" on="1"/>
        <pt x="320" y="309" on="0"/>
        <pt x="389" y="310" on="0"/>
        <pt x="436" y="310" on="1"/>
        <pt x="487" y="310" on="0"/>
        <pt x="526" y="274" on="0"/>
        <pt x="526" y="237" on="1"/>
        <pt x="526" y="19" on="1"/>
        <pt x="427" y="-14" on="0"/>
        <pt x="295" y="-14" on="1"/>
        <pt x="163" y="-14" on="0"/>
        <pt x="36" y="142" on="0"/>
        <pt x="36" y="279" on="1"/>
        <pt x="36" y="349" on="0"/>
        <pt x="79" y="455" on="0"/>
        <pt x="153" y="526" on="0"/>
        <pt x="253" y="562" on="0"/>
        <pt x="310" y="562" on="1"/>
        <pt x="427" y="562" on="0"/>
        <pt x="519" y="511" on="1"/>
        <pt x="517" y="497" on="0"/>
        <pt x="507" y="468" on="0"/>
        <pt x="492" y="441" on="0"/>
        <pt x="474" y="419" on="0"/>
        <pt x="465" y="413" on="1"/>
        <pt x="393" y="455" on="0"/>
        <pt x="320" y="455" on="1"/>
        <pt x="248" y="455" on="0"/>
        <pt x="172" y="364" on="0"/>
        <pt x="172" y="271" on="1"/>
        <pt x="172" y="86" on="0"/>
        <pt x="322" y="86" on="1"/>
        <pt x="362" y="86" on="0"/>
        <pt x="402" y="94" on="1"/>
        <pt x="402" y="152" on="1"/>
        <pt x="403" y="179" on="0"/>
        <pt x="404" y="202" on="1"/>
        <pt x="350" y="202" on="1"/>
        <pt x="290" y="202" on="0"/>
        <pt x="290" y="255" on="1"/>
        <pt x="290" y="287" on="0"/>
      </contour>
    </TTGlyph>
    <TTGlyph name="germandbls" xMin="9" yMin="-14" xMax="614" yMax="699">
      <contour>
        <pt x="100" y="0" on="1"/>
        <pt x="100" y="375" on="1"/>
        <pt x="14" y="374" on="1"/>
        <pt x="11" y="386" on="0"/>
        <pt x="9" y="412" on="0"/>
        <pt x="9" y="425" on="1"/>
        <pt x="9" y="438" on="0"/>
        <pt x="11" y="463" on="0"/>
        <pt x="14" y="476" on="1"/>
        <pt x="100" y="475" on="1"/>
        <pt x="100" y="503" on="1"/>
        <pt x="100" y="598" on="0"/>
        <pt x="225" y="699" on="0"/>
        <pt x="330" y="699" on="1"/>
        <pt x="382" y="699" on="0"/>
        <pt x="469" y="670" on="0"/>
        <pt x="530" y="616" on="0"/>
        <pt x="564" y="541" on="0"/>
        <pt x="564" y="495" on="1"/>
        <pt x="564" y="459" on="0"/>
        <pt x="548" y="418" on="1"/>
        <pt x="515" y="408" on="0"/>
        <pt x="476" y="374" on="0"/>
        <pt x="476" y="354" on="1"/>
        <pt x="475" y="331" on="0"/>
        <pt x="504" y="305" on="1"/>
        <pt x="542" y="269" on="1"/>
        <pt x="614" y="200" on="0"/>
        <pt x="614" y="133" on="1"/>
        <pt x="614" y="100" on="0"/>
        <pt x="585" y="46" on="0"/>
        <pt x="535" y="7" on="0"/>
        <pt x="467" y="-14" on="0"/>
        <pt x="427" y="-14" on="1"/>
        <pt x="349" y="-14" on="0"/>
        <pt x="291" y="15" on="1"/>
        <pt x="291" y="26" on="0"/>
        <pt x="298" y="52" on="0"/>
        <pt x="308" y="77" on="0"/>
        <pt x="321" y="99" on="0"/>
        <pt x="329" y="106" on="1"/>
        <pt x="351" y="95" on="0"/>
        <pt x="391" y="85" on="0"/>
        <pt x="408" y="85" on="1"/>
        <pt x="437" y="85" on="0"/>
        <pt x="476" y="112" on="0"/>
        <pt x="476" y="134" on="1"/>
        <pt x="476" y="147" on="0"/>
        <pt x="460" y="178" on="0"/>
        <pt x="441" y="195" on="1"/>
        <pt x="400" y="232" on="1"/>
        <pt x="337" y="289" on="0"/>
        <pt x="337" y="343" on="1"/>
        <pt x="337" y="378" on="0"/>
        <pt x="386" y="444" on="0"/>
        <pt x="428" y="461" on="1"/>
        <pt x="431" y="476" on="0"/>
        <pt x="431" y="492" on="1"/>
        <pt x="431" y="538" on="0"/>
        <pt x="379" y="599" on="0"/>
        <pt x="330" y="599" on="1"/>
        <pt x="233" y="599" on="0"/>
        <pt x="233" y="489" on="1"/>
        <pt x="233" y="0" on="1"/>
        <pt x="216" y="-3" on="0"/>
        <pt x="183" y="-5" on="0"/>
        <pt x="166" y="-5" on="1"/>
        <pt x="149" y="-5" on="0"/>
        <pt x="117" y="-3" on="0"/>
      </contour>
    </TTGlyph>
    <TTGlyph name="germandbls.cap" xMin="9" yMin="-14" xMax="614" yMax="699">
      <contour>
        <pt x="100" y="0" on="1"/>
        <pt x="100" y="375" on="1"/>
        <pt x="14" y="374" on="1"/>
        <pt x="11" y="386" on="0"/>
        <pt x="9" y="412" on="0"/>
        <pt x="9" y="425" on="1"/>
        <pt x="9" y="438" on="0"/>
        <pt x="11" y="463" on="0"/>
        <pt x="14" y="476" on="1"/>
        <pt x="100" y="475" on="1"/>
        <pt x="100" y="503" on="1"/>
        <pt x="100" y="598" on="0"/>
        <pt x="225" y="699" on="0"/>
        <pt x="330" y="699" on="1"/>
        <pt x="382" y="699" on="0"/>
        <pt x="469" y="670" on="0"/>
        <pt x="530" y="616" on="0"/>
        <pt x="564" y="541" on="0"/>
        <pt x="564" y="495" on="1"/>
        <pt x="564" y="459" on="0"/>
        <pt x="548" y="418" on="1"/>
        <pt x="515" y="408" on="0"/>
        <pt x="476" y="374" on="0"/>
        <pt x="476" y="354" on="1"/>
        <pt x="475" y="331" on="0"/>
        <pt x="504" y="305" on="1"/>
        <pt x="542" y="269" on="1"/>
        <pt x="614" y="200" on="0"/>
        <pt x="614" y="133" on="1"/>
        <pt x="614" y="100" on="0"/>
        <pt x="585" y="46" on="0"/>
        <pt x="535" y="7" on="0"/>
        <pt x="467" y="-14" on="0"/>
        <pt x="427" y="-14" on="1"/>
        <pt x="349" y="-14" on="0"/>
        <pt x="291" y="15" on="1"/>
        <pt x="291" y="26" on="0"/>
        <pt x="298" y="52" on="0"/>
        <pt x="308" y="77" on="0"/>
        <pt x="321" y="99" on="0"/>
        <pt x="329" y="106" on="1"/>
        <pt x="351" y="95" on="0"/>
        <pt x="391" y="85" on="0"/>
        <pt x="408" y="85" on="1"/>
        <pt x="437" y="85" on="0"/>
        <pt x="476" y="112" on="0"/>
        <pt x="476" y="134" on="1"/>
        <pt x="476" y="147" on="0"/>
        <pt x="460" y="178" on="0"/>
        <pt x="441" y="195" on="1"/>
        <pt x="400" y="232" on="1"/>
        <pt x="337" y="289" on="0"/>
        <pt x="337" y="343" on="1"/>
        <pt x="337" y="378" on="0"/>
        <pt x="386" y="444" on="0"/>
        <pt x="428" y="461" on="1"/>
        <pt x="431" y="476" on="0"/>
        <pt x="431" y="492" on="1"/>
        <pt x="431" y="538" on="0"/>
        <pt x="379" y="599" on="0"/>
        <pt x="330" y="599" on="1"/>
        <pt x="233" y="599" on="0"/>
        <pt x="233" y="489" on="1"/>
        <pt x="233" y="0" on="1"/>
        <pt x="216" y="-3" on="0"/>
        <pt x="183" y="-5" on="0"/>
        <pt x="166" y="-5" on="1"/>
        <pt x="149" y="-5" on="0"/>
        <pt x="117" y="-3" on="0"/>
      </contour>
    </TTGlyph>
    <TTGlyph name="germandbls.cap_smcp" xMin="8" yMin="-12" xMax="564" yMax="563">
      <contour>
        <pt x="90" y="0" on="1"/>
        <pt x="90" y="259" on="1"/>
        <pt x="13" y="258" on="1"/>
        <pt x="10" y="270" on="0"/>
        <pt x="8" y="296" on="0"/>
        <pt x="8" y="309" on="1"/>
        <pt x="8" y="322" on="0"/>
        <pt x="10" y="346" on="0"/>
        <pt x="13" y="358" on="1"/>
        <pt x="90" y="357" on="1"/>
        <pt x="90" y="399" on="1"/>
        <pt x="90" y="480" on="0"/>
        <pt x="206" y="563" on="0"/>
        <pt x="305" y="563" on="1"/>
        <pt x="353" y="563" on="0"/>
        <pt x="433" y="538" on="0"/>
        <pt x="490" y="493" on="0"/>
        <pt x="522" y="429" on="0"/>
        <pt x="522" y="391" on="1"/>
        <pt x="522" y="361" on="0"/>
        <pt x="514" y="335" on="1"/>
        <pt x="456" y="316" on="0"/>
        <pt x="456" y="281" on="1"/>
        <pt x="456" y="265" on="0"/>
        <pt x="478" y="246" on="1"/>
        <pt x="507" y="220" on="1"/>
        <pt x="536" y="194" on="0"/>
        <pt x="564" y="139" on="0"/>
        <pt x="564" y="112" on="1"/>
        <pt x="564" y="84" on="0"/>
        <pt x="539" y="39" on="0"/>
        <pt x="495" y="6" on="0"/>
        <pt x="435" y="-12" on="0"/>
        <pt x="400" y="-12" on="1"/>
        <pt x="331" y="-12" on="0"/>
        <pt x="280" y="9" on="1"/>
        <pt x="281" y="31" on="0"/>
        <pt x="302" y="84" on="0"/>
        <pt x="316" y="99" on="1"/>
        <pt x="333" y="91" on="0"/>
        <pt x="364" y="84" on="0"/>
        <pt x="377" y="84" on="1"/>
        <pt x="401" y="84" on="0"/>
        <pt x="428" y="103" on="0"/>
        <pt x="428" y="119" on="1"/>
        <pt x="428" y="140" on="0"/>
        <pt x="401" y="163" on="1"/>
        <pt x="368" y="191" on="1"/>
        <pt x="340" y="214" on="0"/>
        <pt x="315" y="251" on="0"/>
        <pt x="315" y="277" on="1"/>
        <pt x="315" y="303" on="0"/>
        <pt x="354" y="356" on="0"/>
        <pt x="388" y="370" on="1"/>
        <pt x="389" y="373" on="0"/>
        <pt x="389" y="385" on="1"/>
        <pt x="389" y="420" on="0"/>
        <pt x="345" y="467" on="0"/>
        <pt x="306" y="467" on="1"/>
        <pt x="223" y="467" on="0"/>
        <pt x="223" y="383" on="1"/>
        <pt x="223" y="0" on="1"/>
        <pt x="205" y="-3" on="0"/>
        <pt x="172" y="-5" on="0"/>
        <pt x="155" y="-5" on="1"/>
        <pt x="138" y="-5" on="0"/>
        <pt x="107" y="-3" on="0"/>
      </contour>
    </TTGlyph>
    <TTGlyph name="germandbls.smcp" xMin="22" yMin="-14" xMax="977" yMax="562">
      <component glyphName="s.smcp" x="0" y="0" flags="0x4"/>
      <component glyphName="s.smcp" x="502" y="0" flags="0x4"/>
    </TTGlyph>
    <TTGlyph name="grave" xMin="58" yMin="539" xMax="291" yMax="755">
      <contour>
        <pt x="142" y="755" on="1"/>
        <pt x="291" y="591" on="1"/>
        <pt x="284" y="573" on="0"/>
        <pt x="253" y="544" on="0"/>
        <pt x="236" y="539" on="1"/>
        <pt x="58" y="675" on="1"/>
        <pt x="66" y="700" on="0"/>
        <pt x="116" y="746" on="0"/>
      </contour>
    </TTGlyph>
    <TTGlyph name="grave.cap" xMin="56" yMin="728" xMax="323" yMax="921">
      <contour>
        <pt x="110" y="921" on="1"/>
        <pt x="323" y="792" on="1"/>
        <pt x="315" y="746" on="0"/>
        <pt x="285" y="728" on="1"/>
        <pt x="56" y="820" on="1"/>
        <pt x="58" y="848" on="0"/>
        <pt x="92" y="907" on="0"/>
      </contour>
    </TTGlyph>
    <TTGlyph name="greater" xMin="56" yMin="47" xMax="491" yMax="547">
      <contour>
        <pt x="478" y="246" on="1"/>
        <pt x="115" y="47" on="1"/>
        <pt x="91" y="62" on="0"/>
        <pt x="57" y="118" on="0"/>
        <pt x="56" y="149" on="1"/>
        <pt x="265" y="258" on="1"/>
        <pt x="307" y="279" on="0"/>
        <pt x="345" y="293" on="1"/>
        <pt x="345" y="300" on="1"/>
        <pt x="307" y="314" on="0"/>
        <pt x="265" y="335" on="1"/>
        <pt x="56" y="444" on="1"/>
        <pt x="58" y="475" on="0"/>
        <pt x="93" y="533" on="0"/>
        <pt x="116" y="547" on="1"/>
        <pt x="478" y="347" on="1"/>
        <pt x="491" y="292" on="0"/>
      </contour>
    </TTGlyph>
    <TTGlyph name="guillemotleft" xMin="27" yMin="31" xMax="555" yMax="481">
      <contour>
        <pt x="551" y="413" on="1"/>
        <pt x="420" y="257" on="1"/>
        <pt x="555" y="98" on="1"/>
        <pt x="548" y="77" on="0"/>
        <pt x="504" y="37" on="0"/>
        <pt x="482" y="31" on="1"/>
        <pt x="282" y="216" on="1"/>
        <pt x="275" y="232" on="0"/>
        <pt x="275" y="278" on="0"/>
        <pt x="282" y="294" on="1"/>
        <pt x="480" y="481" on="1"/>
        <pt x="501" y="475" on="0"/>
        <pt x="544" y="434" on="0"/>
      </contour>
      <contour>
        <pt x="303" y="413" on="1"/>
        <pt x="172" y="257" on="1"/>
        <pt x="307" y="98" on="1"/>
        <pt x="300" y="77" on="0"/>
        <pt x="256" y="37" on="0"/>
        <pt x="234" y="31" on="1"/>
        <pt x="34" y="216" on="1"/>
        <pt x="27" y="232" on="0"/>
        <pt x="27" y="278" on="0"/>
        <pt x="34" y="294" on="1"/>
        <pt x="232" y="481" on="1"/>
        <pt x="253" y="475" on="0"/>
        <pt x="296" y="434" on="0"/>
      </contour>
    </TTGlyph>
    <TTGlyph name="guillemotright" xMin="33" yMin="31" xMax="561" yMax="481">
      <contour>
        <pt x="38" y="99" on="1"/>
        <pt x="168" y="255" on="1"/>
        <pt x="33" y="414" on="1"/>
        <pt x="40" y="435" on="0"/>
        <pt x="84" y="475" on="0"/>
        <pt x="106" y="481" on="1"/>
        <pt x="307" y="295" on="1"/>
        <pt x="313" y="280" on="0"/>
        <pt x="313" y="234" on="0"/>
        <pt x="307" y="218" on="1"/>
        <pt x="109" y="31" on="1"/>
        <pt x="87" y="37" on="0"/>
        <pt x="45" y="78" on="0"/>
      </contour>
      <contour>
        <pt x="286" y="99" on="1"/>
        <pt x="416" y="255" on="1"/>
        <pt x="281" y="414" on="1"/>
        <pt x="288" y="435" on="0"/>
        <pt x="332" y="475" on="0"/>
        <pt x="354" y="481" on="1"/>
        <pt x="555" y="295" on="1"/>
        <pt x="561" y="280" on="0"/>
        <pt x="561" y="234" on="0"/>
        <pt x="555" y="218" on="1"/>
        <pt x="357" y="31" on="1"/>
        <pt x="335" y="37" on="0"/>
        <pt x="293" y="78" on="0"/>
      </contour>
    </TTGlyph>
    <TTGlyph name="guilsinglleft" xMin="27" yMin="31" xMax="307" yMax="481">
      <contour>
        <pt x="303" y="413" on="1"/>
        <pt x="172" y="257" on="1"/>
        <pt x="307" y="98" on="1"/>
        <pt x="300" y="77" on="0"/>
        <pt x="256" y="37" on="0"/>
        <pt x="234" y="31" on="1"/>
        <pt x="34" y="216" on="1"/>
        <pt x="27" y="232" on="0"/>
        <pt x="27" y="278" on="0"/>
        <pt x="34" y="294" on="1"/>
        <pt x="232" y="481" on="1"/>
        <pt x="253" y="475" on="0"/>
        <pt x="296" y="434" on="0"/>
      </contour>
    </TTGlyph>
    <TTGlyph name="guilsinglright" xMin="33" yMin="31" xMax="313" yMax="481">
      <contour>
        <pt x="38" y="99" on="1"/>
        <pt x="168" y="255" on="1"/>
        <pt x="33" y="414" on="1"/>
        <pt x="40" y="435" on="0"/>
        <pt x="84" y="475" on="0"/>
        <pt x="106" y="481" on="1"/>
        <pt x="307" y="295" on="1"/>
        <pt x="313" y="280" on="0"/>
        <pt x="313" y="234" on="0"/>
        <pt x="307" y="218" on="1"/>
        <pt x="109" y="31" on="1"/>
        <pt x="87" y="37" on="0"/>
        <pt x="45" y="78" on="0"/>
      </contour>
    </TTGlyph>
    <TTGlyph name="h" xMin="69" yMin="-7" xMax="499" yMax="736">
      <contour>
        <pt x="478" y="334" on="1"/>
        <pt x="478" y="116" on="1"/>
        <pt x="478" y="52" on="0"/>
        <pt x="499" y="21" on="1"/>
        <pt x="467" y="-7" on="0"/>
        <pt x="422" y="-7" on="1"/>
        <pt x="379" y="-7" on="0"/>
        <pt x="347" y="32" on="0"/>
        <pt x="347" y="74" on="1"/>
        <pt x="347" y="307" on="1"/>
        <pt x="347" y="352" on="0"/>
        <pt x="325" y="388" on="0"/>
        <pt x="295" y="388" on="1"/>
        <pt x="242" y="388" on="0"/>
        <pt x="196" y="340" on="1"/>
        <pt x="196" y="0" on="1"/>
        <pt x="181" y="-3" on="0"/>
        <pt x="150" y="-5" on="0"/>
        <pt x="133" y="-5" on="1"/>
        <pt x="117" y="-5" on="0"/>
        <pt x="85" y="-3" on="0"/>
        <pt x="69" y="0" on="1"/>
        <pt x="69" y="729" on="1"/>
        <pt x="75" y="736" on="1"/>
        <pt x="126" y="736" on="1"/>
        <pt x="165" y="736" on="0"/>
        <pt x="196" y="700" on="0"/>
        <pt x="196" y="655" on="1"/>
        <pt x="196" y="444" on="1"/>
        <pt x="266" y="505" on="0"/>
        <pt x="337" y="505" on="1"/>
        <pt x="409" y="505" on="0"/>
        <pt x="478" y="412" on="0"/>
      </contour>
    </TTGlyph>
    <TTGlyph name="h.smcp" xMin="78" yMin="-5" xMax="546" yMax="554">
      <contour>
        <pt x="415" y="338" on="1"/>
        <pt x="414" y="397" on="1"/>
        <pt x="414" y="548" on="1"/>
        <pt x="439" y="554" on="0"/>
        <pt x="521" y="554" on="0"/>
        <pt x="546" y="548" on="1"/>
        <pt x="546" y="0" on="1"/>
        <pt x="518" y="-5" on="0"/>
        <pt x="442" y="-5" on="0"/>
        <pt x="414" y="0" on="1"/>
        <pt x="414" y="172" on="1"/>
        <pt x="415" y="232" on="1"/>
        <pt x="368" y="231" on="1"/>
        <pt x="256" y="231" on="1"/>
        <pt x="209" y="232" on="1"/>
        <pt x="210" y="172" on="1"/>
        <pt x="210" y="0" on="1"/>
        <pt x="184" y="-5" on="0"/>
        <pt x="103" y="-5" on="0"/>
        <pt x="78" y="0" on="1"/>
        <pt x="78" y="548" on="1"/>
        <pt x="102" y="554" on="0"/>
        <pt x="185" y="554" on="0"/>
        <pt x="210" y="548" on="1"/>
        <pt x="210" y="397" on="1"/>
        <pt x="209" y="338" on="1"/>
        <pt x="256" y="339" on="1"/>
        <pt x="368" y="339" on="1"/>
      </contour>
    </TTGlyph>
    <TTGlyph name="hbar" xMin="-7" yMin="-7" xMax="502" yMax="736">
      <contour>
        <pt x="199" y="655" on="1"/>
        <pt x="199" y="646" on="1"/>
        <pt x="351" y="648" on="1"/>
        <pt x="356" y="625" on="0"/>
        <pt x="356" y="604" on="1"/>
        <pt x="356" y="583" on="0"/>
        <pt x="351" y="563" on="1"/>
        <pt x="199" y="564" on="1"/>
        <pt x="199" y="444" on="1"/>
        <pt x="269" y="505" on="0"/>
        <pt x="340" y="505" on="1"/>
        <pt x="412" y="505" on="0"/>
        <pt x="481" y="412" on="0"/>
        <pt x="481" y="334" on="1"/>
        <pt x="481" y="116" on="1"/>
        <pt x="481" y="52" on="0"/>
        <pt x="502" y="21" on="1"/>
        <pt x="470" y="-7" on="0"/>
        <pt x="425" y="-7" on="1"/>
        <pt x="382" y="-7" on="0"/>
        <pt x="350" y="32" on="0"/>
        <pt x="350" y="74" on="1"/>
        <pt x="350" y="307" on="1"/>
        <pt x="350" y="352" on="0"/>
        <pt x="328" y="388" on="0"/>
        <pt x="298" y="388" on="1"/>
        <pt x="245" y="388" on="0"/>
        <pt x="199" y="340" on="1"/>
        <pt x="199" y="0" on="1"/>
        <pt x="184" y="-3" on="0"/>
        <pt x="153" y="-5" on="0"/>
        <pt x="136" y="-5" on="1"/>
        <pt x="120" y="-5" on="0"/>
        <pt x="88" y="-3" on="0"/>
        <pt x="72" y="0" on="1"/>
        <pt x="72" y="564" on="1"/>
        <pt x="-1" y="563" on="1"/>
        <pt x="-7" y="585" on="0"/>
        <pt x="-7" y="604" on="1"/>
        <pt x="-7" y="621" on="0"/>
        <pt x="-1" y="648" on="1"/>
        <pt x="72" y="646" on="1"/>
        <pt x="72" y="729" on="1"/>
        <pt x="78" y="736" on="1"/>
        <pt x="129" y="736" on="1"/>
        <pt x="168" y="736" on="0"/>
        <pt x="199" y="700" on="0"/>
      </contour>
    </TTGlyph>
    <TTGlyph name="hbar.smcp" xMin="16" yMin="-5" xMax="616" yMax="554">
      <contour>
        <pt x="213" y="228" on="1"/>
        <pt x="214" y="169" on="1"/>
        <pt x="214" y="0" on="1"/>
        <pt x="188" y="-5" on="0"/>
        <pt x="107" y="-5" on="0"/>
        <pt x="82" y="0" on="1"/>
        <pt x="82" y="399" on="1"/>
        <pt x="22" y="399" on="1"/>
        <pt x="16" y="418" on="0"/>
        <pt x="16" y="460" on="0"/>
        <pt x="22" y="481" on="1"/>
        <pt x="82" y="481" on="1"/>
        <pt x="82" y="548" on="1"/>
        <pt x="106" y="554" on="0"/>
        <pt x="189" y="554" on="0"/>
        <pt x="214" y="548" on="1"/>
        <pt x="214" y="481" on="1"/>
        <pt x="418" y="481" on="1"/>
        <pt x="418" y="548" on="1"/>
        <pt x="443" y="554" on="0"/>
        <pt x="525" y="554" on="0"/>
        <pt x="550" y="548" on="1"/>
        <pt x="550" y="481" on="1"/>
        <pt x="611" y="481" on="1"/>
        <pt x="616" y="458" on="0"/>
        <pt x="616" y="421" on="0"/>
        <pt x="611" y="399" on="1"/>
        <pt x="550" y="399" on="1"/>
        <pt x="550" y="0" on="1"/>
        <pt x="522" y="-5" on="0"/>
        <pt x="446" y="-5" on="0"/>
        <pt x="418" y="0" on="1"/>
        <pt x="418" y="169" on="1"/>
        <pt x="419" y="228" on="1"/>
        <pt x="372" y="227" on="1"/>
        <pt x="260" y="227" on="1"/>
      </contour>
      <contour>
        <pt x="213" y="333" on="1"/>
        <pt x="260" y="334" on="1"/>
        <pt x="372" y="334" on="1"/>
        <pt x="419" y="333" on="1"/>
        <pt x="418" y="395" on="1"/>
        <pt x="418" y="399" on="1"/>
        <pt x="214" y="399" on="1"/>
        <pt x="214" y="395" on="1"/>
      </contour>
    </TTGlyph>
    <TTGlyph name="hyphen" xMin="43" yMin="214" xMax="320" yMax="322">
      <contour>
        <pt x="314" y="214" on="1"/>
        <pt x="49" y="214" on="1"/>
        <pt x="43" y="236" on="0"/>
        <pt x="43" y="300" on="0"/>
        <pt x="49" y="322" on="1"/>
        <pt x="314" y="322" on="1"/>
        <pt x="320" y="300" on="0"/>
        <pt x="320" y="236" on="0"/>
      </contour>
    </TTGlyph>
    <TTGlyph name="i" xMin="23" yMin="-5" xMax="218" yMax="702">
      <contour>
        <pt x="218" y="395" on="1"/>
        <pt x="218" y="0" on="1"/>
        <pt x="203" y="-3" on="0"/>
        <pt x="170" y="-5" on="0"/>
        <pt x="153" y="-5" on="1"/>
        <pt x="136" y="-5" on="0"/>
        <pt x="103" y="-3" on="0"/>
        <pt x="87" y="0" on="1"/>
        <pt x="87" y="348" on="1"/>
        <pt x="87" y="403" on="0"/>
        <pt x="42" y="403" on="1"/>
        <pt x="29" y="403" on="1"/>
        <pt x="23" y="425" on="0"/>
        <pt x="23" y="449" on="1"/>
        <pt x="23" y="471" on="0"/>
        <pt x="29" y="495" on="1"/>
        <pt x="52" y="497" on="0"/>
        <pt x="91" y="500" on="0"/>
        <pt x="105" y="500" on="1"/>
        <pt x="122" y="500" on="1"/>
        <pt x="167" y="500" on="0"/>
        <pt x="218" y="444" on="0"/>
      </contour>
      <contour>
        <pt x="67" y="689" on="1"/>
        <pt x="90" y="702" on="0"/>
        <pt x="133" y="702" on="1"/>
        <pt x="158" y="702" on="0"/>
        <pt x="189" y="694" on="0"/>
        <pt x="203" y="683" on="0"/>
        <pt x="207" y="653" on="0"/>
        <pt x="207" y="637" on="1"/>
        <pt x="204" y="586" on="0"/>
        <pt x="185" y="576" on="0"/>
        <pt x="132" y="571" on="1"/>
        <pt x="76" y="573" on="0"/>
        <pt x="57" y="599" on="0"/>
        <pt x="57" y="637" on="1"/>
        <pt x="57" y="666" on="0"/>
      </contour>
    </TTGlyph>
    <TTGlyph name="i.smcp" xMin="80" yMin="-5" xMax="213" yMax="553">
      <contour>
        <pt x="80" y="0" on="1"/>
        <pt x="80" y="548" on="1"/>
        <pt x="106" y="553" on="0"/>
        <pt x="186" y="553" on="0"/>
        <pt x="213" y="548" on="1"/>
        <pt x="213" y="0" on="1"/>
        <pt x="186" y="-5" on="0"/>
        <pt x="106" y="-5" on="0"/>
      </contour>
    </TTGlyph>
    <TTGlyph name="iacute" xMin="23" yMin="-5" xMax="283" yMax="755">
      <component glyphName="dotlessi" x="0" y="0" flags="0x204"/>
      <component glyphName="acute" x="-64" y="0" flags="0x4"/>
    </TTGlyph>
    <TTGlyph name="iacute.smcp" xMin="64" yMin="-5" xMax="298" yMax="807">
      <component glyphName="i.smcp" x="0" y="0" flags="0x204"/>
      <component glyphName="acute" x="-49" y="52" flags="0x4"/>
    </TTGlyph>
    <TTGlyph name="icircumflex" xMin="-21" yMin="-5" xMax="287" yMax="745">
      <component glyphName="dotlessi" x="0" y="0" flags="0x204"/>
      <component glyphName="circumflex" x="-66" y="0" flags="0x4"/>
    </TTGlyph>
</ttFont>
